<?xml version="1.0" standalone="no"?>
<!DOCTYPE svg PUBLIC "-//W3C//DTD SVG 1.1//EN" "http://www.w3.org/Graphics/SVG/1.1/DTD/svg11.dtd" >
<svg xmlns="http://www.w3.org/2000/svg">
<metadata></metadata>
<defs>
<font id="brushstroke_plainplain" horiz-adv-x="1138" >
<font-face units-per-em="2048" ascent="1638" descent="-410" />
<missing-glyph horiz-adv-x="958" />
<glyph horiz-adv-x="0" />
<glyph horiz-adv-x="682" />
<glyph unicode=" "  horiz-adv-x="958" />
<glyph unicode="&#x09;" horiz-adv-x="958" />
<glyph unicode="&#xa0;" horiz-adv-x="958" />
<glyph unicode="!" horiz-adv-x="638" d="M526 1630q25 6 31 -8l16 -49q-8 -104 -49 -301l-57 -314q-18 -117 -18 -241q0 -117 20 -219q-10 0 -23 18l-12 39l-8 70l-2 53q0 29 2 73t8 101l10 172l-24 -33l-17 -373h-8l-4 209l-20 -57l-4 -78l2 -67l2 -62l-21 105l-6 112q0 39 2 85t8 96l19 151l-8 8 q-23 -43 -35 -159q0 -55 -5.5 -85t-15.5 -65l-14 -137q0 -51 -4 -78t-12 -59l-5 -5l-22 70l-6 82l8 152l10 114q29 98 78 367l49 287q0 -123 -57 -418l-60 -342l15 -15q39 254 61.5 373t44 215t51.5 205q12 0 27 -35l-6 -26l14 -86l33 79q12 35 12 76zM330 1608 q-10 -88 -21 -170q-18 -106 -26 -170l-52 -406q-8 -78 -12 -153.5t-4 -176.5q-8 -4 -10 -8l-12 -8q-10 33 -17.5 64.5t-11.5 52.5l-8 127q0 49 6 115.5t29.5 232.5t23.5 242q-6 -27 -31.5 -155t-35 -182.5t-15.5 -127t-6 -142.5q0 -106 14 -194q-6 -10 -6 -31v-33l-2 -22 q-16 0 -29 24l-6 58q0 96 8.5 211.5t26.5 242.5l68 492l12 49q4 14 23 33l2 -25l-23 -178q23 29 39 113q12 84 20 104h15l-2 -20q6 -10 10 -15q16 0 22 17zM326 758v-10l-4 18zM326 680v-8l-4 51zM326 614q6 -6 11 -33.5t11 -35.5q-12 0 -20 20l-6 25zM264 442 q68 -25 174 -106l125 -88l10 -29l2 -37q-12 0 -36 25q-18 25 -39 18q18 -10 18 -37t17 -41h-41l8 -30l-13 -8l-16 -3q-16 0 -49 36t-51 40l-60 31q0 -29 62 -84q61 -49 69 -63q-53 16 -143 88l-104 82l-9 2l-18 -13l4 -16l-24 27l-39 75h63v23l148 -62q-18 31 -58 52l-90 45 v16l19 8l26 -10l25 -10q12 0 18 20l90 -41q0 23 -44 42t-44 48zM63 236l43 -11l-12 -8l-16 -2l-19 6zM135 205q31 -27 126 -79t134 -99q6 -20 -22 -29q-14 0 -37 24.5t-45 18.5l35 -49q-23 2 -60 37l-57 63q-88 12 -168 78q10 16 27 16q12 0 39.5 -19.5t42.5 -19.5 q-6 14 -13 21l-14 20zM264 66l6 4l-90 69l-6 -4z" />
<glyph unicode="&#x22;" horiz-adv-x="884" d="M385 1610q0 16 12 20q12 -8 17.5 -16t9.5 -25q0 -264 -160 -465q0 23 32 77t36 87l-39 -74q-37 -63 -86 -110q-10 6 -17 -10q0 -10 -12 -15q-8 -12 -45 -28v28l-63 -63l-15 26q-6 12 2 25q12 8 23 39q6 31 14 39q31 74 40 146.5t13.5 121.5t4.5 100l12 7l14 -19l4 -24 l2 -41q6 8 11 32l-5 25l-4 35q0 29 31 39q8 -27 14.5 -63t6.5 -70q0 -82 -15.5 -140.5t-28 -93.5t-36.5 -82q27 27 39 53l57 160l12 37l4 41l-6 68l-4 51q0 45 13.5 62.5t29.5 17.5t25 -4q14 0 22 20q16 -18 22.5 -40.5t9.5 -37t3 -39.5q0 -45 -8 -69h8l6 59l4 49 q0 41 -10 64zM176 1305l8 120l-37 -192zM354 1341l4 -4l25 78l-6 4zM338 1290l6 15zM289 1233l6 18zM129 1128l4 29l-22 -53zM795 1618q0 16 12 20q12 -8 17 -16t10 -25q0 -264 -160 -464q0 23 31.5 77t35.5 86l-39 -73q-37 -63 -86 -111q-10 6 -16 -10q0 -10 -12 -15 q-8 -12 -45 -28v28l-64 -63l-14 27q-6 12 2 24q12 8 22 39q6 31 15 39q31 74 40 146.5t13 121.5t4 101l12 6l15 -19l4 -24l2 -41q6 8 10 33l-4 24l-4 35q0 29 31 39q8 -27 14 -62.5t6 -70.5q0 -82 -15.5 -140.5t-27.5 -93t-37 -82.5q27 27 39 54l58 159l12 37l4 41l-6 68 l-4 51q0 45 13 62.5t30 17.5q16 0 24 -4q14 0 23 20q16 -18 22 -41.5t9.5 -37t3.5 -37.5q0 -45 -9 -70h9l6 59l4 49q0 41 -10 64zM586 1313l8 121l-37 -193zM764 1350l4 -4l25 77l-7 4zM748 1298l6 15zM698 1241l7 19zM539 1137l4 28l-23 -53z" />
<glyph unicode="#" horiz-adv-x="1499" d="M614 1427q8 6 17 -8l-4 -35q-6 -20 -23.5 -52t-43 -80t-46.5 -117q25 25 69 118t64 115l25 -33v-28l-41 -88l-13 -17l9 27l22 47l-16 -41l-49 -113q-25 -57 -43.5 -98t-59.5 -123l-135 -287l-113 -254q-12 0 -12 21l4 27l8 28l-18 -22q-12 -20 -29 -21l-2 60l-32 -25v37 l165 330l127 266zM647 1311l-18 -27q-4 -10 -2 -22q8 2 14 16.5t6 32.5zM573 1126l5 33l-21 -59zM514 1130l-47 -161v-21q23 45 29 90q0 39 18 92zM457 938l94 256l100 256l-90 -260zM612 1380l-49 -94l-33 -90l39 76q35 65 43 108zM449 924l-21 -31q-4 -8 -4 -33l16 33z M391 903q-29 -29 -47 -98zM365 741l-7 2q-35 -61 -67 -151l-45 -127zM240 584l-21 -41l-18 -54q10 8 22 39q9 38 17 56zM1182 1374q6 6 18 -10l-6 -33l-70 -137q-29 -57 -43 -113q25 25 67 114t66 120l25 -35v-29l-31 -63l-22 -39l8 27l23 47l-17 -41l-115 -252l-284 -625 q-12 0 -13 21l5 28l8 29l-19 -23q-12 -20 -28 -20l-2 57l-33 -24v39l172 336l119 251zM1214 1255l-16 -22q-4 -8 -4 -27l16 21zM1141 1071l4 35l-21 -59zM1081 1075l-47 -162v-20q23 45 29 90q0 39 18 92zM1024 885l94 256l101 256l-91 -260zM1180 1325q-53 -88 -82 -184 l37 73q31 64 45 111zM1016 868q-10 -10 -19 -28l-6 -35l17 33zM958 848q-29 -23 -47 -96zM932 686l-6 2q-16 -29 -25.5 -48t-40.5 -93l-47 -135zM807 528q-12 -16 -25 -45l-14 -47q10 6 23 37q8 37 16 55zM307 1221q-6 6 8 18l35 -6q14 -4 30.5 -13.5t57.5 -32t88 -41 t74 -26.5q-27 27 -117 68t-116 65l32 25h29l80 -39l24 -14l-73 30l41 -16l110 -49q59 -25 100.5 -43.5t123.5 -59.5l284 -135l256 -112q0 -12 -20 -13l-29 4l-27 9l23 -19q20 -12 20 -28l-59 -2l25 -33h-37q-328 172 -527 260zM424 1253l25 -18q10 -6 24 -2q-2 8 -16.5 14 t-32.5 6zM608 1180l-33 4l60 -21zM604 1120l162 -47h20q-45 23 -90 29q-39 0 -92 18zM797 1063l-260 94l-252 100l260 -90zM354 1219l92 -50l93 -32l-76 39q-66 35 -109 43zM811 1055l29 -21q10 -4 34 -4l-32 17zM831 997q29 -29 99 -47zM993 971l-2 -6l103 -52l176 -59z M1151 846l33 -19l61 -18q-8 12 -42 20.5t-52 16.5zM150 850q-6 12 8 18l35 -4l126 -65q33 -14 55.5 -23.5t67.5 -23.5q-25 25 -118 68.5t-115 64.5l33 24h28l80 -39l25 -14l-74 31l41 -17l115 -51l270 -125l289 -137l201 -86q0 -12 -21 -14l-33 6l-22 8l22 -20 q20 -14 21 -29l-60 -2l25 -31h-37l-352 178l-271 127zM266 885l25 -19q10 -6 24 -2q-2 8 -16.5 14.5t-32.5 6.5zM451 811l-33 4l59 -20zM446 752l162 -47h21q-20 10 -45 17t-47 11q-38 1 -91 19zM639 692l-260 96l-252 101l260 -90zM197 848l96 -47l88 -33l-76 37 q-63 35 -108 43zM653 686l29 -20q10 -4 35 -4l-33 16zM674 629l39 -29l59 -20zM836 600q51 -33 149 -72l127 -45zM993 477l39 -20l55 -19q-8 12 -38 21z" />
<glyph unicode="$" horiz-adv-x="1318" d="M797 1608q12 -35 32 -35q10 0 35 18l27 21q12 0 12 -45q119 -12 176 -33q61 -14 103 -72q18 -10 41 -39l43 -65v-49l2 -45q0 -35 -4 -47q0 -12 -15 -35l-39 -33q-23 -23 -49 -29l15 37q0 10 -19 21q-18 -49 -76 -80q-20 0 -43 -11l-32 -10l-21 4l37 17q16 10 18 26 q0 31 -20 31l-59 -6q0 -20 -5 -33l-47 12q-25 6 -30 41v21q10 0 25.5 -16.5t27.5 -16.5l-2 25q0 10 14 16q37 -31 84 -24l6 26q0 25 -9 41t-64 80q10 12 26 -4l27 -14q10 4 12 8q-14 27 -32.5 42t-75.5 42q47 0 97 -48.5t62 -82.5l8 -47l-4 -43l-4 -37l6 -29 q18 12 25.5 34.5t11.5 51.5l-2 45q0 33 -14 75t-73.5 77.5t-143.5 54.5q-10 -6 -15 -31v-33l64 -36l-25 2l-26 18l-19 -31q-12 -20 -16 -39l6 -22l-59 -262q152 -92 233 -178q84 -80 84 -207q12 -41 12 -78q0 -82 -39 -148l-86 -139q-20 -25 -69 -51l-60 -33l-8 8 q49 39 85 84t55 105l-11 8l-84 -125q27 45 43 102l27 103l8 67q0 94 -62.5 172t-156.5 129l-16 -18q94 -70 147 -170t53 -221q-31 -84 -68.5 -141.5t-99.5 -85.5l-16 34q-8 16 -25 25q-8 -6 -6 -21l6 -18q-6 -18 -56 -25.5t-50 -17.5q2 -6 3 -10t11 -17q23 12 39 13 q18 0 31 -13l27 -28l-130 -31l-16 -61l-6 -52h-21l-8 88q-29 2 -41 -41q-6 -43 -20 -45l-27 19l10 57q0 31 -34 39q-127 12 -232.5 71.5t-179.5 160.5q0 92 38 166.5t118 111.5q10 0 34 12l29 13q-23 -4 -65 -41l-56 -45v-21q59 49 134 81t141 32l55 -6q25 -18 38 -42 t17 -57l-43 37q-2 -12 6 -39l11 -32q-10 25 -35 38l-66 41l39 -88l-69 58q-27 20 -50 20q-16 0 -36.5 -14.5t-20.5 -46.5q0 -18 8 -43l9 -29q82 -133 245 -162q12 31 28.5 97.5t27 134t19.5 129t19 94.5l-167 129q-94 84 -109 176q25 -82 106.5 -154.5t176.5 -115.5 q8 14 -17 35l-28 22q-84 43 -153 128t-69 175l-2 37q0 76 38 138.5t114 119.5q12 -12 31 -12q23 0 36 20q16 55 115 86t107 103zM838 1575v-21h-23v21h23zM848 1169q6 -29 51 -53q47 -20 57 -33q-6 -4 -22 -4q-10 0 -17.5 4t-29 16.5t-31.5 20.5q-12 4 -12 27v12zM338 1153 l-4 -55l-4 32q0 13 8 23zM326 530q35 -2 65.5 -33.5t36.5 -66.5zM1018 1466l106 -80q-12 33 -39.5 50.5t-66.5 29.5zM723 1442q-6 -10 -51 -43t-56 -70l-4 -63q0 -49 16.5 -82t61.5 -68l53 326h-20zM743 1057h9l45 215q18 86 18 166q-23 -63 -39 -148zM455 1217l-9 32 q-18 -47 -18 -102v-33l18 -53q12 -33 66.5 -89.5t130.5 -103.5q8 6 8 19v16l-125 125l17 6l-47 74q-23 39 -23 74q0 25 12 49q8 55 62 102l104 86q-72 -25 -126 -75.5t-70 -126.5zM1153 1350l4 4l-24 24l-5 -4zM446 1311q18 0 34 14t14 37l-43 -23q-11 -8 -5 -28zM584 1313 q-20 -37 -21 -70q0 -55 51 -121l58 -65l-58 102q-10 20 -16 43t-6 47l-8 15l10 34q-6 11 -10 15zM1157 1313q0 -49 4 -66l13 -41l2 29q0 20 4 31q0 18 -3.5 26.5t-19.5 20.5zM422 1278h-10v-29zM1225 1249l-8 13l-9 -56zM399 1231l-22 -88q0 -18 14 -27zM1049 1518v8l-29 8z M1174 1458l-54 43l58 -59l4 4zM821 952l-14 4l24 -16zM928 885q82 -47 107.5 -136.5t25.5 -213.5v-91q10 14 16 50l6 65v66q0 78 -41.5 149.5t-113.5 110.5zM705 860v-29h16v13q-2 12 -7 14t-9 2zM690 731l-10 8v-26zM739 696l-4 -49q49 -33 69.5 -81t26 -74.5t5.5 -53.5 l-2 -30l-3 -25l-24 133q-20 72 -84 102l-68 -335q12 -10 39 -15l47 4l43 2v-12h31q23 16 39 49q14 37 14 72l6 53q0 72 -39 139.5t-96 120.5zM668 659q-27 -61 -58 -210l-30 -166l12 -17l57 226q19 77 19 167zM903 1493l29 2q12 0 20 -10q-8 -12 -24 0q-13 12 -25 8z M109 479l-11 -8l11 -12v20zM141 467l-12 -37l-4 -41v-27q6 -31 51 -50t55 -33q-12 20 -54 64t-42 85zM217 420q6 -53 64.5 -97t76.5 -65l72 -25q37 -12 64 -12l24 4q-104 33 -179 76t-122 119zM98 403v-65q55 -92 153.5 -135t231.5 -62q-66 8 -149 49l-152 76 q-37 25 -60.5 60.5t-23.5 76.5zM543 115l-13 -29l39 -2q16 0 23 14zM451 1194q6 -37 11 -56.5t20.5 -58.5t47.5 -75q-35 33 -59 83q-8 23 -14 50.5t-6 56.5z" />
<glyph unicode="%" horiz-adv-x="1695" d="M1067 1636q23 0 27 -30q0 -33 4 -37q12 4 23.5 29.5t27.5 25.5l-133 -448l-185 -629l-120 -430q-25 -104 -39 -107l-21 -2q78 279 101.5 364t66.5 234.5t88 298.5l-143 -411l-135 -467l-17 -15q-12 -12 -22 -12q-10 4 -12 8l2 31l6 20q-4 14 -8 19q-14 -6 -25.5 -39 t-30.5 -39l174 580q20 23 27 90q0 61 18 94q20 59 67.5 217t83.5 286t89 343l31 12l14 -8q0 -23 -6 -53.5t-23 -77.5q-23 -82 -26 -115v-18q29 35 50 140t46 146zM440 1624h37q53 0 77 -10t42 -51l-29 -17l29 -18l20 14q14 -12 27.5 -25.5t26.5 -7.5l4 -22l-4 4h-11 q-6 -10 5 -23l14 -14l4 19q35 -100 35 -195l-2 -47l-4 4l6 -45l-6 -49l-11 -43l9 -49q0 -39 -23 -84l-39 -86l29 96q12 37 12 63q-16 -10 -41 -82q-18 -68 -41 -88l68 193l22 -14q0 219 -32.5 346t-171.5 188l-29 4l-27 6q-14 0 -24 -10q8 -16 51 -29q43 -6 55 -24 q61 -59 90 -120.5t39 -101.5t10 -83l-2 -37q-16 -31 -37.5 -159t-39.5 -171q12 -6 10 -29q-41 0 -61.5 -54t-59.5 -54q-16 -23 -76.5 -30t-87.5 -27q-25 18 -51 18q-18 0 -37 -12l6 -6q-33 0 -79 37.5t-62 76.5q-16 47 -27 107l-8 112q0 141 50 271.5t143 246.5l22 -22 q10 -6 29 -10q12 45 51 65l-29 23q-6 -10 -6 -15l-2 -14l-41 -12q6 14 27 28l51 25l8 -12q6 25 47 37zM1219 938q55 37 131 37q92 0 133 -60l-27 -10l6 -10l13 -12q8 6 24 10q18 0 31 -19l8 5q12 0 14 -17l-4 -26q0 -18 27 -19q33 -121 33 -248q0 -102 -17.5 -187 t-60.5 -159v23l-33 -19l35 113q20 66 20 100l13 -24v92q0 170 -35 276.5t-166 157.5h-37q-18 0 -27 -10q78 -33 111 -53.5t57 -65.5q41 -53 54.5 -111.5t25.5 -162.5q-27 -35 -39 -150q0 -51 -11 -90t-30 -61q0 -20 7 -27h8q-12 -39 -40 -72t-108 -94q-12 6 -32 -6l-29 -14 l-21 12q-10 -8 -18 -12.5t-23 -4.5q-16 0 -36 11l-37 10q-18 0 -41 -23q-76 18 -113 88q-29 63 -51 179q0 209 67.5 375.5t217.5 277.5zM410 1477l-19 6q-20 0 -35.5 -12.5t-39 -56.5t-41 -133t-17.5 -179q0 -98 18.5 -179t63.5 -147q-51 29 -79 73t-28 109l-12 211 q-12 -53 -12 -108v-46.5t8 -63.5t31 -109q18 -37 48 -59.5t81 -22.5q100 51 130 160.5t30 267.5q-10 106 -34.5 171t-92.5 118zM266 1473l-30 -15q-154 -219 -154 -502l-8 64l2 55q0 33 4 53q-16 -78 -17 -147q0 -94 26 -169t91 -130l23 -4q-8 2 -27 31q-12 29 -37 36 q-66 72 -65 154q0 29 8 51l24 -86q12 -29 33 -41l-18 115l-8 117v46t3 36.5t9 37t14 42.5zM1034 1313l19 82l-49 -197zM541 1391q33 -111 32 -226q0 -227 -106 -401l33 27q29 23 22 55q82 139 82 305q0 72 -16 127q-12 64 -47 113zM244 1317l4 18zM926 1217q-16 -33 -17 -52 q0 -12 11 -12zM203 1210l-13 -67l-6 -64q0 -41 9 -67zM385 1538v-20l37 -5q-19 25 -37 25zM147 950l33 -145q18 -31 52 -56.5t71 -25.5q-51 12 -73 43.5t-83 183.5zM1208 909q-2 -8 -33.5 -22.5t-29.5 -36.5l20 -6q14 0 26.5 25.5t27.5 35.5zM1278 887q-2 -8 6 -19 q8 -6 21 0v11q-15 12 -27 8zM1249 834q-47 -61 -78 -158q-25 -92 -24 -193q0 -100 19.5 -188t60.5 -164q-68 37 -92 105q-20 76 -21 172v53l2 55q-8 -29 -12 -56.5t-4 -68.5q0 -68 18.5 -136.5t61.5 -117.5l45 -20l39 -8q29 0 36 28q63 63 92 149.5t29 178.5q0 29 -2 59.5 t-8 61.5q-6 57 -25 133q-39 68 -61 92q-18 25 -57 25zM1155 823q-47 -35 -81 -89t-62 -136q0 -41 -6.5 -80t-10.5 -61l-14 -131q0 -49 10 -83t39 -69l-18 119l-8 117q0 104 30 194q72 100 121 219zM1419 760q45 -119 45 -250q0 -215 -100 -391l45 45q37 78 61.5 168 t24.5 182q0 74 -17.5 136.5t-58.5 109.5zM317 702h-14l14 -16v16zM1085 557l-10 -45l-2 -49q0 -45 12 -88v182zM971 483l-13 -88l-6 -82v-32l9 -43l2 41l2 49v84zM1548 279l17 96l-35 -119zM1034 301l33 -137q27 -43 54.5 -63.5t56.5 -20.5q12 0 18 2q-61 12 -94 63 q-29 56 -68 156zM989 160l10 -31q8 -14 18.5 -31.5t27 -37t49.5 -33.5q-4 31 -48.5 66.5t-56.5 66.5z" />
<glyph unicode="&#x26;" horiz-adv-x="1900" d="M877 1591q14 6 35.5 12.5t37.5 8.5l64 6q78 0 149.5 -35t108.5 -98.5t37 -147.5q0 -53 -15 -90l-84 -100q-66 -84 -106 -109q-29 -12 -66 -27.5t-74.5 -34t-74.5 -58.5l67 -148q16 -33 68 -90l254 174q152 92 281 92q76 0 145 -28q55 -29 99 -68t71 -90v-25q0 -31 -7 -50 t-32 -36q-16 16 -35 109q-12 88 -74 106q-31 23 -67 31l-74 8q-84 0 -174 -43l14 -8l56 16l71 9q16 0 38 -1.5t57 -15.5q47 -12 100 -45q18 -18 25 -39l20 -69l-45 57l8 -62q-33 61 -58.5 96.5t-82.5 35.5q41 -33 84 -97l76 -114q-10 -6 -31 -11q-16 0 -41 50q-18 49 -41 63 q-12 18 -62.5 27.5t-50.5 33.5l-67 7q-20 0 -43 -2.5t-56.5 -10.5t-50 -15t-28.5 -11q6 -23 -35 -41q-39 -12 -47 -33q25 -2 69 18q12 8 35 17.5t33 11.5l72 12l75 9q33 0 48.5 -2.5t39.5 -14.5q35 -12 76 -55q0 -12 13.5 -45t13.5 -51q0 -25 -23 -48q-12 8 -12 43 q0 37 -25 62q-18 25 -56 40t-75 15q-63 0 -162.5 -40t-136.5 -50q-4 -10 -35.5 -31.5t-29.5 -50.5q35 -59 153.5 -136t155.5 -153l-107 41l-24 -6q2 -8 32.5 -26.5t24.5 -46.5q-6 -4 -20 -5q-8 0 -25 7l-43 14l-18 -6q2 -23 34.5 -37t34.5 -25l-6 -18q10 -6 15 -6l12 6 q6 8 33 2l32 -10l9 -15q-25 -12 -50 -12l-71 8l-53 10l-21 -4q-20 0 -45 13l-47 39q-10 -18 16 -48l31 -32q-25 0 -59 22l-62 43l10 33l-7 7t-25 16l-60 26q-27 12 -49 49l-31 -16q4 -12 31 -35l12 12l9 -12q-12 -8 -23 -10q-20 0 -25 -4l-32 43q-27 41 -56 37 q-78 -84 -179 -148.5t-208 -83.5q-45 -39 -110 -39q-37 0 -68 9l-74 26q-78 39 -115.5 111.5t-49.5 138.5l-7 82q0 141 85 259t227 198l37 18l32 12q0 -12 -14 -28l-25 -25q80 29 158 96l-16 111l-4 108q0 98 22.5 170t75.5 130q0 -16 -10 -44l-11 -45q0 -12 9 -28l49 108 q8 -8 10 -15t8 -11q18 6 25 41l10 39q18 8 43 35.5t45 41.5q12 -6 47 -10l45 4l56 15q109 0 194.5 -45.5t118.5 -139.5l27 -112l6 59q0 100 -46 161.5t-114 87t-145 25.5zM1155 27q16 -27 16 -47q-106 31 -159 120q16 10 37 15q18 0 47 -29zM803 1487l-41 -12l6 -17 q8 0 17.5 6t12.5 12.5t5 10.5zM737 1483l-26 -23q-6 -6 0 -18h12q8 6 14 20v21zM842 1430q-2 -8 6 -13q14 0 20 4q-10 6 -14 6zM893 1417q6 -20 29 -31l67 -22q-12 23 -37 39q-28 14 -59 14zM696 1403l-16 -35l-14 -70l-7 -65q0 -47 21 -82l2 31l-2 53q0 29 3 43t19 31 l19 -27q-12 -35 -12 -68q0 -39 12 -86l24 -86h15q4 29 -8 99l-11 82q0 45 21 80q-12 -6 -19 10q0 16 -6 22l-35 -26q-6 4 -10 26l4 31v37zM645 1386q-33 -45 -33 -118l6 -47zM729 1360h16q0 14 5 22q-12 0 -16.5 -4t-4.5 -18zM958 1335l-57 29l-8 -8zM1016 1343 q-12 -16 -12 -30q0 -20 38 -62q41 -37 43 -55l9 25l-9 30l-6 35q0 12 25 23q-10 -18 -25 -23q-2 0 -7 5t-19 26.5t-37 25.5zM807 1303q-6 -25 -8 -35.5t-2 -36.5q0 -100 53 -154q-6 -6 -10 -26q0 -25 22 -27l103 51q57 33 82 76q-31 66 -93.5 101t-146.5 51zM1217 1225h-62 q0 -14 27 -17h35v17zM614 1171l-8 -47v-37q0 -70 35 -110q6 12 10 43q0 23 -18.5 74.5t-18.5 76.5zM772 1030q-18 -10 -18 -24q4 -10 8 -13l18 19zM549 1020v-47q0 -25 18 -31q0 29 -4 43zM645 958l4 -20l8 6l-6 10zM575 911h-8v-26h8v26zM811 881q-6 -68 51 -113l-16 51 q-12 46 -35 62zM518 868q-92 -55 -160.5 -111.5t-119.5 -133.5l8 -25q0 -12 -19.5 -43t-19.5 -43l4 -18q31 104 108 182q31 35 85.5 78t111.5 80zM881 807l-13 39l-6 -4zM694 827q16 -82 52 -158.5t90 -144.5l18 8l-74 130zM301 768l27 27l-41 -27h14zM614 768l-12 -14 l170 -283l8 23zM266 754q-12 -8 -23.5 -17.5t-36 -34t-32.5 -47.5zM893 754l-4 -13l-12 11q12 -90 69 -129q0 14 -4 22l-8 14q6 10 6 21q0 12 -11 35t-36 39zM563 737q-90 -57 -138 -94t-59.5 -68.5t-16.5 -56t-7 -37.5q0 -70 56.5 -94.5t117.5 -24.5q119 0 213 82 q-25 72 -80 156zM868 655l4 4l-53 82l-4 -4zM119 541l8 53l-21 -53h13zM180 541l4 -4l21 45zM1032 575l8 -26q12 0 14.5 2t4.5 4q6 12 -4 20q-9 6 -23 0zM154 489l-19 -38q-6 -16 0 -23l19 37q6 12 0 24zM1090 489q4 -27 39.5 -54t48.5 -46zM915 455l13 -13v9zM211 451 l-6 -66q2 -33 24.5 -56.5t63.5 -43.5l8 12q-33 25 -57 72zM92 420q-12 -18 -16 -55l2 -46l2 -26q0 -33 -27 -51h29q12 0 19.5 -16.5t14.5 -33t25 -40.5l60 -80l26 2q14 -12 49 -23l66 -6h37l37 4q-33 0 -92 27l-119 55q-53 45 -85 107.5t-32 138.5zM958 389q0 -37 39 -73.5 t50 -53.5l43 -31q10 6 14 11l-131 147h-15zM680 279q10 -6 16 -17l66 49q27 20 22 51zM934 279l-35 40l-6 -4zM590 289l-15 -19zM197 285q6 -37 36 -60l99 -45q27 -8 49 -12t57 -4q57 0 107.5 18.5t85.5 55.5l-119 -21l-98 -8q-43 0 -63.5 2t-65.5 17.5t-88 56.5zM528 285 l-28 -13q-10 -2 -8 -14q37 -6 57 12q-7 17 -21 15zM471 127l-4 -21l-61 5v-13l14 -16q8 -2 12 -2q12 12 33 16l27 -2l24 6zM868 1507l-30 -10q-6 -2 -4 -14l18 6l25 -8l26 -8q14 0 25 10v-23q6 -2 13 -3t26 -11l41 -12q16 0 24 14l27 -35l20 4q25 0 51 -35l33 -39 q10 2 17 -2l10 11q-2 12 -35 36.5t-39 41.5l8 18q-20 0 -48.5 6t-96.5 29.5t-111 23.5z" />
<glyph unicode="'" horiz-adv-x="606" d="M575 1599l-30 -217q-78 -229 -120 -329.5t-126 -202.5l-10 10q-12 -10 -17.5 -20.5t-21.5 -8.5l125 340q66 180 65 336v37l-4 37l19 18l22 11q14 -37 15 -68q0 -18 -2.5 -29.5t-12.5 -58.5l-12 -86l6 -43q16 31 27 86l8 117v82l26 12l17 4q18 0 26 -27zM403 1565l15 -15 q0 -145 -29 -241.5t-56.5 -161t-62.5 -119.5l19 -10l-35 -105q-25 -61 -74 -73v-15l-8 60q-2 -14 -28.5 -35t-28.5 -35q0 -12 16 -29l41 7q4 -29 -16 -45l-35 -21l-15 8q-14 -8 -18 -16l-16 -14l-15 8q6 12 11 37q0 18 -13.5 43.5t-13.5 37.5l6 19q45 31 64 104l20 127 q0 20 2 57.5t8 88.5l13 135l-2 41l24 20l29 -51l-29 -188l-10 -135l43 153q16 72 16 135l-2 52q0 16 -12 53q25 -12 43 16q14 31 35 33q25 -31 24 -74q0 -33 -22 -102q-8 -35 -13.5 -59.5t-7.5 -45.5q55 47 67.5 169t20.5 151zM162 989l4 49l-25 -80zM201 948l4 31l-10 -35z " />
<glyph unicode="(" horiz-adv-x="688" d="M446 1624q20 0 23 -8q-53 -61 -90 -136t-125 -298l256 436h22l-14 -45l53 51q2 -18 23 -20l16 8l15 -39q-135 -184 -220.5 -412.5t-121.5 -490.5l-4 12q-23 -102 -23 -223q0 -117 13.5 -218.5t43.5 -224.5q-14 2 -28 -14q-6 -12 -9.5 -14t-5.5 -4l-16 12l-25 82l-18 88 h-8l-6 -6q0 -29 10 -70l10 -74l-4 -30q-18 6 -35 49q-12 41 -24 57q-12 -6 -13 -20l6 -37l-6 -17q-27 0 -43 8.5t-28 63.5l-19 135l-6 178q0 481 127 754l168 344q40 72 106 123zM508 1554l8 19zM549 1554l4 -4l12 19l-4 4zM526 1520l13 20l-7 2zM412 1395l-21 -41 q-6 -16 -2 -35l19 43q4 13 4 33zM434 1327l33 68zM377 1307l-10 -17q0 -10 4 -12zM416 1284l-113 -323v-23q0 63 52.5 187t60.5 159zM303 1137q-23 -57 -42 -132t-41.5 -214.5t-22.5 -456.5q0 123 3 169t17 163.5t51 320.5q0 25 18.5 68t18.5 63zM176 965h8l9 30l-5 4z M164 928q-25 -115 -42.5 -242t-17.5 -235q0 -152 27 -273q-6 53 -10 112.5t-4 125.5q0 115 9 210t17.5 162.5t20.5 139.5z" />
<glyph unicode=")" horiz-adv-x="712" d="M403 1618l27 -23l8 9q23 -12 41 -54l21 -61l8 29q0 18 -10 41l-9 34l7 25l39 -62q12 4 12 25l-2 29l53 4q10 -78 16.5 -168t6.5 -172q0 -330 -79 -648.5t-233 -600.5l-16 -23l-14 -22q-2 12 14 43.5t20 54.5l-24 8q10 31 29.5 79t77 170t57.5 247q-23 -23 -37.5 -91.5 t-22.5 -84.5l-172 -390q-12 -16 -47 -16q-4 12 8.5 36.5t7.5 45.5l-38 -41q-27 -37 -64 -31l55 68q23 25 29 57q-8 -6 -20.5 -20.5t-41 -50t-51.5 -35.5q-12 0 -28 8q154 193 211 394.5t77.5 310t20.5 227.5q0 27 7 259t7 369q16 -31 27.5 -77.5t11.5 -102.5q0 -41 2 -80 t6.5 -55t14.5 -22q12 55 12 114v56q-6 43 -9 68.5t-5.5 53t-10.5 66.5zM442 1575l-4 20l4 -30v10zM469 1397l-25 155l9 -247zM545 1454l-2 -53q0 -25 10 -41l-2 24v31zM451 1270l-13 -64l-2 -76v-90l-2 -75q0 -29 -14 -64l22 62l7 151zM553 1260l-6 -80q0 -41 10 -68l2 45 l2 51q0 34 -8 52zM535 985l-43 -256q23 57 34 107.5t15 81t4 67.5h-10zM424 821l-4 4l4 -14v10zM381 750q-57 -225 -96 -353.5t-113 -257.5q90 115 130 253.5t79 357.5z" />
<glyph unicode="*" horiz-adv-x="958" d="M410 1569q0 18 12 22q4 -2 9 -4t13.5 -9t8.5 -24l18 29q23 -100 57 -188q27 16 58 53l63 70v-33l27 16q18 10 24 21q0 -41 -55 -76t-65 -70l22 -24q31 16 61.5 66t53.5 67l26 -25l7 4h12l8 -16q-2 -6 -6 -12t-12 -17l-17 -20l15 33q-31 0 -50 -33l17 -13l-111 -104 q6 -12 17 -12l10 4l16 8l160 141q0 -37 -27 -69l-90 -94l137 -39q49 -12 52 -27q0 -16 4 -25q-47 0 -115 13.5t-108.5 20.5t-69.5 7h-31l41 -32l33 -19q10 18 24 19l70 -33l82 -8q39 0 59 -33l-43 -21l35 -16q12 -6 17 -18q-4 -16 -18.5 -27.5t-49.5 -11.5q-16 0 -74.5 18.5 t-87.5 18.5q0 -31 25 -105l26 -80q-14 6 -24 -14.5t-31 -18.5l-37 134q-18 51 -53 102h-8q10 -51 17 -91t14.5 -66.5t44.5 -71.5v-25q0 -12 -7 -18q-33 14 -50 83.5t-48 86.5l-12 34q-4 12 -17 21q0 -39 29 -119t29 -121q-6 -6 -23 -6q-6 2 -10 4t-14 10q-12 16 -36 82 t-40 88l-141 -135q0 16 30 58l39 55l-33 -10l76 108h-18v15h-25l15 24l-9 12q-37 -18 -102 -90l-76 -78q0 41 41 84l80 84l-8 11l-74 -70q-29 -27 -63 -72l-4 4l116 138q-35 25 -90 24l-102 8v29q12 -6 37 -6l37 2q33 0 57 -25l29 19l-156 33v24q2 18 24 15q2 10 -10 14 t-17 7t-5 5q23 25 59 25l68 -13q47 -12 69 -12q12 -20 41 -31l64 -8l61 2q-35 31 -131 54l-194 40q10 43 49 43l135 -18l-12 74l-15 78q0 43 41 69l33 -125q25 -104 74 -135l10 10l-66 189l52 -115l4 31q0 33 -19 82l-33 90l-22 -8v8q49 0 73.5 -69.5t32.5 -80.5l27 -86 l31 -65q0 70 -23.5 138.5t-70.5 158.5zM330 1028q6 -6 -2 -16q-6 -6 2 -13h18l-127 -127q0 27 51.5 83.5t57.5 72.5zM156 1217q47 -31 120 -39l177 -9zM504 1159v10h-33v-10h33zM518 1155l47 -6l-20 6q-19 6 -27 0zM283 1145l-9 -4q111 -16 210.5 -29.5t232.5 -36.5l-49 29 l-215 29q-96 12 -170 12zM467 1061l-29 -31q-6 -12 0 -20l25 26q8 11 4 25zM721 1460l-148 -174l7 -4l84 88q37 45 57 90zM381 971l4 -4l16 32l-6 5z" />
<glyph unicode="+" horiz-adv-x="995" d="M528 1473l9 -17l2 -22v-50q-12 -6 -19 -26l-6 -25l8 -4h13l18 37q0 -45 -32 -158.5t-32 -163.5l7 -61l24 55q8 18 13.5 33.5t9.5 36.5l47 215q0 -82 -19 -180l-28 -160l16 -8h21q23 49 41 168l34 246l11 8l12 6l4 -33q0 -23 18 -33q12 12 13 43v27q0 12 16 23l10 -13 l-10 -237h10q10 27 22.5 135t43.5 158l8 -5l-61 -452q12 -12 39 -23l49 -6l49 2q35 0 57.5 -8t40.5 -39l-29 -33q-18 -18 -22 -35q0 -16 27 -30l-5 -23q-12 0 -31.5 5t-53 13.5t-60.5 8.5q-43 0 -63 -27q12 -12 34.5 -19t61.5 -7q72 0 98 -31l-55 4l-51 6l-29 -2 q10 -12 70 -24q61 -6 61 -35q0 -16 -14 -39q-39 -4 -89.5 9t-88.5 17l-41 -6l-52 -194l-20 -162q-12 -6 -31.5 1t-25.5 26l24 94q12 49 12 141q-29 -45 -47 -149q-12 -98 -67 -154l-33 37q6 41 14 94t21 94l37 162q-6 12 -27 10q-23 -53 -37 -127l-20 -98l-9 -31l-2 -6l9 53 l2 33l-13 -20l-8 -39l-4 -49v-48q0 -45 -10 -65q-29 20 -29 78q8 68 17.5 101.5t30 56t20.5 141.5l-8 10l-25 -22q-27 -131 -40 -180.5t-26.5 -121t-19.5 -112.5q-12 -2 -21 6l-16 22q-10 -10 -15 -19t-18 -3q-6 14 13 29l20 14l-33 45l49 324q-8 4 -18 6t-35 2l-47 2h-94 l-78 2q-25 4 -43 12q0 35 18.5 52.5t65.5 39.5l88 -6l82 -6h29q18 0 28.5 4t16.5 14v17l-254 33q-2 10 24.5 28.5t14.5 40.5l125 2q84 0 100 9l-213 32l176 31q86 18 80 61q0 59 12.5 135t13.5 85.5t19 74.5h16l-49 -372q41 41 54 165q0 53 9 97.5t21 68.5l15 105 q5 41 32 72zM535 1159q16 -6 16 -24q0 -14 -16 -48l-15 -34l-4 30l2 35zM633 993l-21 -131q-6 -41 -26 -90q6 -4 10 -20l-6 -58l28 84q6 -4 11 -24l-2 -60l24 140l-28 -46l-2 25l6 80l8 70zM764 666v8h-21v-8h21zM479 508l-28 10l-5 -31z" />
<glyph unicode="," horiz-adv-x="401" d="M319 213q0 16 13 20q10 -8 14 -16l8 -24q0 -231 -139 -410q0 14 8 33.5t26.5 54.5t22.5 59q-10 -23 -28.5 -57.5t-26.5 -46.5t-19.5 -26.5t-33.5 -35.5q-12 6 -14 -6q0 -10 -13 -16l-12 -12l-29 -13v25q-10 -6 -28 -27l-27 -26l-12 22q-6 8 0 21q16 8 22 37l12 32 q25 68 37.5 154t12.5 176l10 4q10 -8 16 -41q0 -31 4 -37l9 29l-5 29l-4 28q0 23 27 35q18 -59 18 -121q0 -66 -14 -122t-24.5 -83.5t-30.5 -72.5q37 37 55 94l29 94q16 33 16 76l-4 51l-4 51q0 39 16 64l41 -2q10 0 21 18q33 -37 33 -100q0 -35 -11 -66h8l7 56l6 39 q-1 28 -13 59zM135 -59l8 110l-32 -170zM293 -23l22 66zM279 -68l6 9zM236 -119l6 13zM92 -215l4 25l-18 -46z" />
<glyph unicode="-" horiz-adv-x="827" d="M68 989q29 10 77 21l97 8l94 -4l98 -8l-28 -2l-44 2l-45 2l-47 -7q-29 0 -43 -4l74 -12l92 -2h72l74 2l10 16q27 -25 115 -38q90 -10 122 -35q0 -12 -19 -28.5t-24 -27.5l13 -24l-4 -8l-76 14q-63 8 -88 37l-137 8l-93 2l-106 -2l-115 -8q-8 8 -45 8q-39 0 -24 37 q-12 0 -13 18q-6 10 6.5 17.5t6.5 17.5zM80 829l149 7l148 6q80 0 126 -7.5t115 -31.5q31 6 68 -17l47 -26v-19q-63 16 -142 29.5t-202 28t-295 14.5zM227 791q12 2 25.5 -13.5t40.5 -9.5l-14 18q98 0 188 -12t197 -37l-9 -18q2 -6 6.5 -11.5t22.5 -15.5t18 -24l-34 -6 q12 -10 24.5 -14.5t9.5 -20.5l-12 -17q-119 39 -258 52q-55 0 -173 5t-161 5q0 18 11 28l28 9l27 -2q20 0 33 -5q20 0 30 9q92 0 158 -9l264 -40q0 10 -28 22l-56 23q-31 6 -64.5 10t-54.5 6l-133 4l-98 -2h-98q-6 23 16.5 37t26.5 24q2 -8 18 -14l49 -4v23zM217 997h-57 l-54 -12z" />
<glyph unicode="." horiz-adv-x="425" d="M160 371l24 24q16 12 35 13q31 0 70 -54l51 -86l29 -67q6 -14 10 -45q0 -33 -25 -62l-35 15l-18 -46l-31 62l-37 59q-2 -12 17.5 -50t23.5 -60q0 -27 -41 -45q-6 -10 -30 -15l-29 29v-31q-8 -8 -14 -8q-8 -12 -31 -2q-18 10 -25 29q0 33 -45 104.5t-49 97.5q0 45 72 78 q0 14 8 24.5t21 10.5q14 0 30.5 -15.5t22.5 -31.5q20 6 22 20q-2 6 -3 10.5t-11 18.5zM252 240l-43 49l57 -94zM188 258q-6 -18 14.5 -34.5t14.5 -39.5h14l-14 39q-9 19 -29 35zM131 225l92 -147l-35 80q-22 44 -57 67zM76 215q0 -14 20.5 -33.5t24.5 -34.5q0 16 -19 39z M131 127l19 -45l18 -25z" />
<glyph unicode="/" horiz-adv-x="1499" d="M1352 1622q18 6 28 -8l-6 -31l-114 -123q-41 -47 -70 -104q41 20 121 109t98 104l37 -31l4 4v-31l-270 -313l-213 -250l-172 -217q-90 -119 -199 -246l-221 -260q-33 -39 -89.5 -110.5t-99.5 -128.5q-20 0 -22 16l8 25l16 28l-32 -20q-25 -18 -45 -19l-7 54l-51 -23l2 35 q205 219 420 477l445 535zM1407 1516q-20 -12 -28.5 -22.5t-4.5 -23.5q10 2 24.5 18t8.5 28zM1286 1348l8 30l-34 -53zM1190 1352l-240 -260v-19l131 139q66 72 109 140zM932 1065l-43 -45q-12 -14 -23 -43q27 18 46.5 40.5t19.5 47.5zM801 913l-76 -84l-57 -84l67 76 q46 45 66 92zM535 498l-29 -25q-10 -10 -8 -33l30 35q7 7 7 23zM440 479q-53 -29 -73 -88zM397 332q-43 -37 -69 -70l-121 -180zM199 188q-18 -8 -31 -30l-31 -54q16 6 31 29z" />
<glyph unicode="0" horiz-adv-x="1261" d="M655 1597l99 27q53 12 98 12q53 0 99 -16t85 -59q80 -100 117 -224.5t37 -271.5q0 -178 -47 -349t-125 -315q-74 -178 -250 -290.5t-371 -112.5q-8 25 -20 27q-6 -20 -23 -23q-8 2 -13 3t-17 13l-25 17q0 16 -29 45l-32 35l18 4q31 0 39 8l-37 37q-14 -27 -39 -27 q-10 0 -26 19q-10 4 -13 22q0 18 -16 19q-4 -12 -4 -21q0 -20 16 -43l45 -51q-98 98 -134 238.5t-36 322.5l6 207l6 197q51 137 132 258.5t192 232.5l-117 -158q-51 -66 -73 -127q12 6 96 125t127 131q41 8 47 45q0 37 37 37q10 -16 26 -16q12 0 43 18.5t50 18.5 q16 -1 32 -15zM647 1620l25 10l2 -6l-23 -8zM795 1612l10 -6l12 -2l25 6l24 8l19 -6l-21 4h-18q-37 0 -51 -4zM967 1583l-41 19l-6 -5zM717 1561q29 -8 37 12h-23q-10 -2 -14 -12zM647 1532l15 -14l4 10zM1008 1528q-16 0 -27 -19q37 -12 76 -71l45 -64l-41 92 q-16 39 -53 62zM739 1518q119 -23 171.5 -122.5t97.5 -252.5q0 45 -4.5 75.5t-18.5 73.5q-18 78 -65 129q-39 49 -74 78q-33 23 -76 23zM592 1434l35 2l55 -6l57 -13q104 -102 127 -313l13 -350q27 106 26 215q0 195 -47 305t-97 147t-99 37q-35 1 -70 -24zM387 1378l10 -26 l-98 -176q-10 -39 -18.5 -78t-22.5 -128t-14 -175q0 -68 6 -123.5t28.5 -138t90.5 -164.5q-41 88 -55.5 164.5t-20.5 135t-6 107.5q0 180 50 356.5t138 321.5q-25 0 -43 -39t-45 -37zM545 1434h10l10 20q-18 7 -20 -20zM555 1399q-98 -98 -133 -203.5t-47.5 -185.5 t-12.5 -164q0 -117 14.5 -210t49.5 -212l76 -107q39 -49 69 -59l35 -6h8q45 0 84 59l56 105q70 215 69 442q0 262 -94 475q0 41 -31.5 64.5t-74.5 23.5q-39 1 -68 -22zM1028 1370q-4 -27 9.5 -62.5t17.5 -62.5l-4 -24l22 -105l6 -110q0 -123 -24.5 -224.5t-43 -157 t-48.5 -124.5q-39 -33 -68 -76t-94 -158q100 84 167.5 203t104.5 260l12 186l15 183q0 59 -3 81.5t-14.5 76t-54.5 114.5zM270 1292q-8 -29 -47 -117t-39 -143q-16 -16 -24 -38.5t-8 -57.5l6 -78l6 -78v-22l20 80l9 63q0 43 6 89t20 104zM1130 1292l5 -157l4 -125l-2 -80 q0 -33 -2 -49.5t-15 -57.5l27 138q8 70 9 96t1 43q0 106 -27 192zM934 1268v10l-16 4zM184 1208q-16 -23 -25 -40t-22 -52l-22 -112zM940 1036l-14 -334l8 -8q0 16 2 47t8 74l10 115l-2 51q0 18 -12 55zM129 934l-10 -55l-2 -62q0 -20 2 -55t8 -84l10 -143l47 -183 q33 -102 101 -157l114 -91q51 -35 97 -34q31 0 63 20q-12 14 -58 20.5t-140.5 62.5t-163 267t-68.5 494zM852 500v41l-10 -52zM115 295l12 -47q6 -18 20 -19zM795 225l-13 -20zM559 197l-4 -23q6 -10 23 -16l32 -2q12 18 -4 26zM795 197l-41 -23l-15 8l2 -18q0 -14 13 -14 l4 6l33 24q4 5 4 17zM698 123l31 14q-4 4 -16 2z" />
<glyph unicode="1" horiz-adv-x="950" d="M778 1610q4 6 9.5 8t9.5 4q12 0 26 -16l19 -15q6 18 24 23q12 -4 17 -8l-6 -27l22 -4q-102 -348 -172 -732t-106 -777l-9 -7l-6 74q0 70 6 108t9 66l16 162l-12 -8l-47 -414h-9l-6 94l-37 -24l-4 4q-10 0 -22 -33q-6 -29 -35 -22l147 858l6 -4h11q10 10 2 28l-10 21 l92 428q12 47 24 87t41 126zM649 1614q0 -16 -12 -51l-16 -39q18 -6 30 8l25 35q-8 23 6 30l37 17l12 -4q6 -20 -16 -43q-18 -25 -13 -39l29 22q-45 -70 -71.5 -157.5t-38.5 -186.5l-117 -579q-57 -297 -86 -559l-47 -29l32 323l11 191q-12 -37 -26.5 -112.5t-39 -249 t-33.5 -199.5l-14 -8q0 127 13.5 246.5t34 223t32.5 162t27.5 136t15.5 168.5l-18 -23l-78 -410q-39 -229 -68 -452l-22 -17q-14 10 -17 35l8 39l9 41l231 1098q-33 -14 -92 -74l-62 -57q-31 6 -63 -27l-53 -63l4 16l-25 8l33 47l6 31q-31 -12 -74 -67.5t-77 -55.5l-29 6 q-6 4 -10 25v18l47 45q37 31 114 113l197 207l193 199l26 -39zM389 1327q47 29 80 68l90 121q-8 18 11.5 28t15.5 31l-113 -125q-20 -27 -40.5 -56.5t-43.5 -66.5zM848 1534l8 37l-4 4zM793 1460q-12 -27 -23.5 -62.5t-24.5 -76.5l-30 -158l43 137q35 101 35 160zM539 1438 l-39 -35l-113 -119l-98 -110h18l232 235v29zM358 1292q8 -6 15 0q6 6 6 17q-10 4 -16.5 -1.5t-4.5 -15.5zM334 1257l2 27l-119 -137zM547 1231q-16 -78 -29.5 -146.5t-36.5 -160.5h11l71 274zM696 1094l-14 -35q-12 -25 -2 -37q20 14 22 47zM668 969l-6 -17l-7 -20 q8 -10 13 -12l4 16l4 20q-4 13 -8 13zM649 858v35l-8 -35h8zM625 780q-25 -80 -50 -264l-40 -297q35 119 62.5 273.5t27.5 287.5zM645 508l8 119l-12 -125z" />
<glyph unicode="2" horiz-adv-x="1286" d="M940 1630q6 2 11 5t18.5 16.5t25.5 1.5l-4 -27q47 -25 88 -60.5t74 -82.5q0 35 -24.5 68.5t-69.5 66.5q80 -43 117.5 -122t37.5 -171l-2 -43q-2 -6 -2 -22l4 -25l19 -53q0 -12 -8 -29q-27 -18 -56.5 -93t-35.5 -81l6 -10q16 16 39 55l34 70q0 -74 -35.5 -118t-57 -68.5 t-62.5 -63.5l37 53q31 37 30 64l-65 -56l-8 19q-8 -4 -11 -17l7 -22q-2 -10 -46.5 -51t-160.5 -134l-236 -182q-127 -100 -196 -170l55 -14l-23 -2l-28 2q-31 0 -33 -33q68 -14 221 -31q70 0 120 -8t109 -24q66 -8 132 -43l108 -54q6 -10 -4 -18l-23 -14q-61 41 -142 65.5 t-179 36.5v-14q113 -35 175 -56.5t122 -62.5q-16 -12 -21 -25l9 -14l-86 -4l-70 -4q-47 0 -83 9t-65 32l-43 -13q-174 20 -230 28.5t-171 25.5q-59 0 -125 -13l-53 -57q-20 -25 -49 -20q-25 12 -25 43q0 27 14 43q78 135 162 222t160 156.5t210 186.5t220 209q23 45 41 91 t41 104.5t23 133.5q0 45 -7.5 77t-33.5 77q-23 49 -73 82t-116 45q-92 -80 -125 -206t-33 -281q-25 -4 -38 -10.5t-15 -26.5v-8l-14 71l-6 74q0 47 10 74l-8 10q-12 -12 -23 -62q0 -41 -10 -57q0 156 43 275.5t122 176t120 78t82 29.5v-12l51 6q80 0 141 -47 q63 -43 131 -125q0 -18 4 -22l8 4q0 43 -13 71.5t-48 53.5l-113 71l-51 15q6 6 19 6l26 -6q17 -5 33 -15zM584 1626q-37 -6 -64 -27l-94 -65q33 0 88 25l72 30q-152 -86 -245 -227t-93 -309l-6 -31l8 -59l8 -60q0 -55 -61 -61q-41 82 -41 178q0 98 31.5 193.5t86.5 205.5 q33 31 82.5 75t96.5 79t131 53zM397 1378l11 19l4 -6l-4 -13h-11zM389 1366q-14 -43 -25.5 -92t-21.5 -115q-12 -111 -12 -227q-12 53 -13 106q0 72 17.5 143.5t23.5 93t31 91.5zM385 1032l4 -76q-16 16 -16 43q0 17 12 33zM1014 784l-293 -215l293 234v-19zM670 541l4 -4 l-101 -82zM584 371l280 -37q145 -18 252 -74v-16q-6 -8 -20 -6l-21 14l-14 -2l-4 -6l41 -29q-12 -12 -47 -16l-41 6l-41 10q-45 35 -86 49.5t-94.5 28.5t-100.5 29l-207 12l68 10l57 8zM1128 1452l-41 55l41 -73v18zM961 1171q-59 -283 -287 -469l90 62q33 20 72 67 q14 10 37.5 64.5t62.5 60.5l-18 13q18 41 30.5 96t12.5 106zM344 444l-90 -96q-78 -80 -90 -137l133 149q94 109 170 158q-37 0 -68 -29zM877 1571l-105 18q-25 0 -40 -8t-30 -37q104 -45 154 -84q53 -37 76 -110q0 12 -14.5 30.5t-4.5 38.5l50 -69q-6 70 -54 116 q-41 47 -114 97q86 0 151.5 -102.5t65.5 -243.5q0 -96 -35 -179h18q23 53 34 104.5t15.5 82t4.5 67.5l-7 74l-73 115q-35 59 -92 90zM481 244l-114 8l-58 -12q-12 -6 -12 -35l336 -45l69 -13q49 -8 72 -6q-43 18 -129 43l-182 49zM813 141l-6 -12l100 -39l80 -18 q-10 6 -29.5 14t-64.5 31.5t-80 23.5z" />
<glyph unicode="3" horiz-adv-x="1179" d="M805 1626q74 0 129 -29q57 -25 110 -81q18 -27 30.5 -45.5t29.5 -49.5q20 -47 20 -92q0 -111 -61.5 -188.5t-188.5 -179.5q12 -25 52 -52l84 -55q53 -41 77.5 -104.5t24.5 -145.5q0 -41 -7 -87t-38 -146.5t-178.5 -219t-315.5 -147.5l-57 6q-14 0 -36.5 -2t-53.5 -8 l-86 -10l-47 6q-25 4 -43 14q-90 31 -147.5 117t-57.5 188q-12 33 23.5 63t35.5 54q12 -6 13 -49l-2 -35l-2 -22l47 -140q31 -74 102 -106l39 -12q23 -8 41 -5l-137 130l6 -27l16 -27q-33 37 -47 83t-18 75t-4 68q0 59 12 120h8q0 -31 -4 -43v-26q0 -100 33 -179t110 -135 q96 -31 187 -30l65 6l11 8l-174 37q-100 33 -144 119q-29 31 -37 96l-14 121l33 4q-2 12 6 24l12 17l29 -137q18 -72 59 -117l29 -14q-6 20 -15.5 43.5t-28 70.5t-18.5 90q0 41 21 76q0 -55 8 -94t40 -102.5t126 -100.5q-25 8 -39 4l-6 -4q31 -43 98 -43l58 8l26 19 q27 14 39 33q43 35 63.5 91t20.5 126l-2 84v30q0 12 -2 29.5t-2 26.5q-18 53 -63.5 91t-86.5 54l-51 16l-26 2l-47 -2l-31 -2l-43 6l26 43l-30 5l297 178l-9 -31q49 6 72 48t35 91l10 60q0 49 -33 82l-118 39q-53 16 -99 16q-35 0 -57 -8l-63 -25q-37 -18 -52 -45l2 -24 q0 -18 -16 -29q-12 12 -25 12q-12 0 -39 -20l-30 -21q0 45 51 84l100 70l64 14l90 8q51 0 92 -14q45 -12 74 -45l8 8q-25 43 -68 61.5t-94 18.5q-53 0 -86 -6t-48 -9t-38.5 -9.5t-54.5 -30.5l-80 -68q-18 6 -18 23q4 18 8 24l26 35l54 59l-27 7q6 18 33 38l61 43q-8 6 -12 7 h-14q20 35 62 59.5t105.5 49t137.5 24.5h51q25 -6 37 -8l90 -19q-2 18 -35 27zM782 1143q8 -25 -8 -53l-31 -46q2 8 4.5 18.5t12.5 31.5zM457 1489q12 -6 32 14q-18 0 -32 -14zM782 1477q45 -23 86 -63t62 -93v-8q-49 78 -138.5 129t-183.5 51l-43 -4l-18 -12q20 8 57 16 l72 6q63 1 106 -22zM397 1391l86 36q35 14 41 50q-29 -4 -54.5 -19.5t-72.5 -66.5zM702 1462q-8 -10 3 -16l24 -6v10l-14 2zM999 1462l-2 -16q51 -61 52 -146q0 -45 -11 -75q-6 -37 -28 -78q10 4 22 31l23 55v39l2 45q0 49 -10.5 84.5t-47.5 60.5zM1063 1440l-6 18z M543 1413l63 -6q33 0 47 14q-16 10 -43 15l-35 -6q-14 -5 -32 -17zM778 1427l-22 9l26 -15zM688 1421l-8 -12l106 -76q37 -25 55.5 -66.5t18.5 -90.5q0 -57 -16 -99q18 18 26 47l9 60l-5 47l-8 51q-12 53 -71 86zM520 1413h-22l-4 -12zM965 1223l8 71zM844 1546 q-33 10 -68 16.5t-74 6.5q-61 0 -111 -13.5t-87 -48.5l104 25q27 6 39 8t37 2h25q18 0 61 -10t115 -57l112 -84v10q-23 33 -38 51t-39.5 43.5t-75.5 50.5zM858 983l80 57l-96 -57h16zM543 881l-45 -23q10 4 22 -2l19 -6zM555 850l18 -8l27 12q-16 12 -45 -4zM627 850 q6 -8 10 -8l16 8h-26zM752 827q80 -12 115.5 -71.5t74.5 -167.5q-16 -35 -26.5 -87t-14.5 -79t-12 -43l8 84l2 47q0 100 -25.5 173t-95.5 118zM1049 752l-19 18l19 -49v31zM735 758l88 -162l2 -66l2 -67q0 -61 -11 -109.5t-48 -89.5h14q35 29 54 88l30 111q0 106 -25.5 185 t-105.5 110zM1036 584q0 -74 -28.5 -140.5t-69.5 -121.5q43 53 73.5 109t30.5 110zM991 326l-143 -144q-47 -47 -57 -51q-14 8 -23 16q-8 14 -11 15.5t-5 3.5q-47 0 -90 -41l-66 -72q20 -4 55 26t49 34q12 0 25 -23q84 39 153.5 95.5t112.5 140.5zM743 276l-26 -28 q-12 -14 -6 -25q12 6 20 23z" />
<glyph unicode="4" horiz-adv-x="1126" d="M635 1618l51 31q10 -12 10 -23q0 -12 4 -16l15 16l6 -37q0 -45 -29 -116l-51 -136q-20 -68 -126.5 -276.5t-147.5 -310.5q25 -6 39 -8.5t45 -2.5h41l47 2q-41 0 -88 -8l-93 -14l45 -14l50 -5l84 7l86 8q0 20 -27 22l-31 -2q6 6 25 6q31 0 41 9l80 297l55 219h14l-84 -516 l15 -5h16q29 88 49 201l39 221h-22l6 33l12 33l4 -49q12 12 14 39l-2 37q0 16 11 32l26 -26l-102 -516l12 -9q16 43 60 230l38 205l11 81q6 47 39 84l14 -2q10 -2 14 2l6 -8q0 -16 9 -22l65 61q12 -25 12 -59q0 -37 -6 -68t-14 -62.5t-20.5 -71.5t-35 -142.5t-44.5 -210.5 q8 -29 77 -35q68 0 68 -25q0 -14 -14 -36q12 -2 14 -23l-2 -53q-18 0 -21 -8q18 -10 19 -25l-12 -33q-12 -20 -7 -39q-27 0 -59.5 10.5t-50.5 4.5q8 -12 19.5 -17.5t7.5 -23.5l40 -9q6 -2 9.5 -3t19.5 -13l-29 -8l-47 8l-49 8l-24 -4q-16 -68 -30.5 -172t-21 -156.5 t-10.5 -70.5q-18 -6 -24 22q-2 29 -21 35v82q6 43 8 68l11 106v33q-16 -37 -29 -164q0 -53 -9.5 -95t-21.5 -75h-10q-4 4 -4 16q0 16 4 25l-6 12l-17 4l-16 -43q0 63 3 91t13 90l33 200l-12 13q-8 2 -12 0l-39 -207l-27 -170q-6 -6 -12 0l-8 22q0 47 3 73t23.5 127t20.5 151 l-27 -43l-43 -342q-14 -6 -27 -25l-16 -33l-14 25q-6 10 -23 -4l-2 43q0 66 23.5 197.5t23.5 185.5l-39 22h-196q-90 0 -187 -26l7 -9q-14 -10 -48 -16l-49 -4l-6 2q14 14 30.5 23.5t22.5 25.5l-28 4h-29q0 18 13.5 41t17.5 41q0 14 -8 25q14 63 34.5 122.5t78 204 t75.5 201.5l111 369q12 6 24 -21q0 -45 -36 -118.5t-42 -118.5l-49 -150q59 80 96 187.5t66 250.5l18 19l19 -19q0 16 8 25l35 29v-39q-6 -23 -8 -36t-7.5 -38t-15.5 -55q23 14 45.5 90t59.5 88q0 -47 -13 -88l-45 -111l33 135q-27 -49 -90.5 -222t-77.5 -197 q-20 -70 -86 -201t-90 -199l6 -4q45 45 121 201l86 172l80 199q59 147 82 260l47 106zM408 1192l55 145zM961 1303q0 -61 -20.5 -127t-33 -116t-12.5 -87q10 86 24.5 165t41.5 165zM961 1126h-15l15 -14v14zM700 715h15q0 10 -10 8zM938 715l-4 -23h39l28 -4q14 0 25 8z M209 680q-12 0 -12 -18h12v18zM592 610l-78 2l-84 2q-53 0 -74 -4q-33 0 -55 -10l109 -2h38.5t43.5 -4l100 6v10zM176 610q-12 -6 -24 -26q-12 -14 -2 -31h20q14 0 20 14l7 37zM911 584q23 -6 60 -6q25 0 33 8q-10 -2 -41 6l-33 12q-13 0 -19 -20zM123 573l4 -4l8 23z M111 477q23 0 64.5 2t96.5 8l156 11l59 -2q33 0 60 -9l18 17l-145 10q-37 0 -74 -2t-74 -8q-70 -6 -104 -14.5t-57 -12.5z" />
<glyph unicode="5" horiz-adv-x="1236" d="M1159 1595v-22q-35 0 -137 5t-154 5l-268 12l14 -18q78 0 114 -2t134.5 -12.5t155.5 -14.5t102 -4l39 -37q-10 -2 -62.5 -8t-115.5 -6q-135 0 -147 -4l-82 10l-74 6q-20 0 -41 -2t-37 -8v-10l78 -10l104 -2l119 -3q63 0 113 -14q41 12 84 12q45 0 61 -16l-47 -43 q-20 -12 -41 -18v-11l78 -2q6 -18 -14 -41l-23 -24l-428 22l137 -8l125 -6l68 2q39 4 80 23q-49 8 -110.5 13t-143.5 5q-76 0 -139.5 4t-104.5 10q-14 -10 -8 -28l26 -11q-31 4 -49 -36q-12 -39 -20 -46l-43 -167l6 -43l61 10l47 8q27 0 43 -8q23 -6 43 -29q55 0 90 -8 t82.5 -30.5t83.5 -71.5l19 -41q6 -12 29 -15q-6 47 -58.5 104.5t-109.5 75.5l-140 5v20l76 8l37 2q43 0 72.5 -4t70.5 -18q68 -18 117 -68q29 -47 42 -92t17.5 -71.5t4.5 -61.5q0 -113 -50.5 -232.5t-126.5 -238.5q-119 -141 -278.5 -223t-323.5 -82q-96 0 -178 26 q-70 47 -105.5 129t-35.5 172l2 37l16 -10l29 74l29 -23l12 39q6 10 25 4q0 -180 139 -289l51 7q-63 47 -107 116q-39 72 -38 144l2 30q16 -61 41.5 -115.5t70.5 -93.5l-37 132q-12 61 -12 133q29 -8 35 -54l8 -79q20 -57 75.5 -100.5t125.5 -63.5q25 0 39 -4h45q43 0 81 12 t66 43q78 127 78 280q0 111 -45 199q-31 49 -74 86q-37 37 -84 49q-127 0 -215 -28.5t-157 -106.5l-39 -2q-29 0 -27 29l168 694q31 16 43 51l23 70q12 -12 30 -17q6 2 11.5 6.5t18.5 19.5t26 17q16 -4 20 -8l33 33zM625 834l-144 -11l82 19zM285 735l102 62l-98 -66z M776 512q0 -55 -3 -76.5t-16.5 -72t-54.5 -101.5l48 135q4 12 14 56.5t12 58.5zM428 1368v-22q16 6 21 18zM512 1368h-8l8 -14v14zM420 1325q0 -66 -49 -231l-54 -187l33 -10l25 29q6 10 2 32q-20 0 -33 5l57 163q31 84 31 156l-4 43h-8zM475 1251l-45 -116 q-39 -98 -39 -144l62 139l28 -8q-25 25 -24 52q0 16 24.5 61t24.5 72l-2 18q-16 -2 -23 -29zM508 1200l4 25zM504 987h12q16 0 33 19l18 36q-49 -12 -59 -21t-4 -34zM666 1014l-19 -13q78 0 139.5 -45t112.5 -94q29 -43 39 -88t14 -72.5t4 -58.5q0 -82 -23.5 -167 t-66.5 -152l70 106q43 117 43 225q0 150 -51 224.5t-105 93.5zM643 926q82 -39 135 -82q55 -39 88 -109q0 68 -61 117l-80 49q-37 25 -82 25zM1065 897l-18 25l18 -33v8zM489 1507v-18v18zM944 1430l-8 -19q0 -31 37 -31q8 2 14 19l12 31q-10 12 -30 12q-19 0 -25 -12z M1071 764h-10v-55zM1020 657l-6 -36l-6 -37l6 -25zM1032 1419q6 -10 29 4q-6 6 -21 7q-8 -7 -8 -11zM164 197l20 -37q18 -31 35 -33zM793 197l-172 -78q10 0 16 -6q-37 -31 -130 -42.5t-110 -17.5l56 -4q92 0 181 38t159 110zM350 145l31 -30q12 -12 6 -29l43 -6l59 6 q10 2 22.5 5t43.5 18l-113 -11q-18 0 -42.5 24.5t-49.5 22.5z" />
<glyph unicode="6" horiz-adv-x="1130" d="M823 1640q0 -16 23 -22q25 0 31 -12q-12 -31 -75 -87.5t-81 -86.5q-104 -106 -180 -253t-131 -313l18 -6q16 0 55 24.5t58 24.5q14 0 24 -8q23 14 115 53l96 41l-90 -2q-61 -6 -74 -49l-24 8q-10 0 -42 -18.5t-54 -13.5q37 23 75.5 42t82.5 34.5t80 20.5t71 5 q43 0 96 -12q63 -25 105 -75t51 -120l10 -98q0 -145 -94.5 -301t-347.5 -340l-84 -35q-27 -8 -47.5 -13t-71.5 -16q-16 25 -37 25q-10 0 -34.5 -15.5t-45.5 -19.5q-16 0 -39 18l-39 25l4 18l-32 -2q-16 0 -29 15l4 20q0 14 -23 21l-28 6q-41 57 -57.5 118.5t-22.5 106.5 t-6 84q0 143 45 305l76 267l22 40q14 33 35 39q18 86 62 163t118 169l168 182q4 -20 -25.5 -55t-37.5 -53q29 20 70.5 64t72.5 61l2 -8q-170 -190 -286.5 -363.5t-191.5 -375t-75 -421.5l6 -114l19 -45l16 -45l-2 84v86v88t8 113.5t67.5 249.5t188.5 384t330 367l8 -12 q-84 -53 -158 -162l-110 -172q23 18 63.5 65t123.5 152.5t175 154.5zM664 1415l4 -4l10 21l-6 6zM543 1255q-41 -41 -59.5 -75.5t-36 -72.5t-33.5 -85l16 14q4 29 15.5 53.5t48.5 70.5t49 95zM414 1217q0 -16 -20.5 -44t-14.5 -51q14 10 27.5 41t7.5 54zM410 1010 q-12 -12 -17 -35q4 -14 8 -19q6 6 7 23zM379 940l-33 -72q-6 -23 -8 -33t-2 -34q45 51 45 117zM877 932l73 -58q-24 48 -73 58zM870 881l-63 41l72 -50zM285 920v-31v31zM721 893q2 -25 27 -39l47 -27q20 -29 34.5 -69.5t18.5 -64t4 -54.5v-49q-6 -25 -10 -51.5t-19 -59.5 q53 88 54 195q0 74 -33 127q-10 25 -29 39zM569 866l-4 -18l21 2q6 -2 16 -3t23 -7l-25 16zM901 840l17 -25v12zM530 838q-37 -6 -60.5 -21.5t-90.5 -91.5q-27 -86 -27 -178q0 -88 19.5 -161t68.5 -142l52 -31l40 -10q20 0 69.5 51t94.5 166t45 235l-16 -34l-37 129 q-45 88 -139 88h-19zM971 745v39h-8zM309 684q-31 -84 -30 -186q0 -55 3 -76t17 -66t53 -90l-26 58l-11 45q0 18 13 41l8 -31l-14 100l-9 -73l-6 47l-2 51l6 106l11 74h-13zM797 569q-18 -74 -47 -139t-78 -147q-6 -18 -37 -43q-31 -18 -37 -43q90 72 144.5 171t54.5 201z M918 438l40 68q12 23 13 55q-18 -14 -33 -51zM166 539q0 -135 8 -201t38 -126t95 -95q68 -31 76 -41l18 18l-92 47q-86 55 -116 160q-27 111 -27 238zM672 207q63 39 110 102.5t76 136.5q-39 -37 -74 -79zM356 326l-16 30l16 -51v21zM516 68q10 0 41 18l-25 -6z" />
<glyph unicode="7" horiz-adv-x="1196" d="M420 1618q338 0 639 -27q8 -43 -48.5 -104.5t-66.5 -94t-55 -122.5l-43 -86l6 -6q23 29 110 177t164 210l9 -9q-57 -78 -134 -198l-141 -246l-35 -10q-4 -2 -9 -4t-9 -8l27 -9l-437 -805q-4 -20 -10 -39.5t-22.5 -55.5t-20.5 -59.5t-4 -51.5q92 211 188 385l271 479 q172 297 266 471h12q-18 -37 -43.5 -87t-73 -136t-114.5 -154l6 -24q0 -31 -40 -81.5t-40 -82.5q-115 -195 -213 -411t-164 -431l-12 -10q-4 -4 -16 -4q-6 18 6 43.5t8 42.5l-21 -33q-4 -10 -20 -17q6 18 -6 25q-8 6 -25 0l23 70q0 12 -13 24q-16 -10 -36 -53 q-16 -41 -43 -53q25 109 82 237l98 217q-66 -78 -127 -206l-109 -238q-4 10 7.5 39t11.5 45q-20 -2 -31 -49q-6 -43 -27 -58v29q0 16 2 23l56 108l18 -4l125 270l-14 13l14 30v-10q4 -8 8 -10l412 739v25h14l-2 20l2 27q0 16 -22 23q-43 -53 -111.5 -184.5t-135.5 -247 t-152 -290.5t-139 -293t-124 -276l-45 31l193 414l131 276l166 311l26 15l-14 22l68 125q27 53 45 115q-68 12 -152 12q-59 0 -98 -8l-328 -27q-10 4 -12 17v24q18 0 20 17q0 16 10 22q49 0 145.5 8.5t141.5 8.5l334 6q12 12 12 31q-43 10 -98 16t-115 6q-37 0 -93 -2 t-128 -8l-160 -8l17 51q12 41 33 55q10 -4 22 -2q12 6 12 16l43 15q23 6 37 24h-49q12 10 29 13l47 4q55 0 84 6zM1126 1470h-12l16 33zM1083 1421q-6 8 2.5 21.5t22.5 15.5q2 -10 0 -14l-8 -23h-17zM887 1534v-18h26q10 0 15 12zM739 1595v9l-34 6zM473 1552l-43 -10 l-55 -2l-66 -2q-29 0 -57 -12h287l149 -2h58.5t87.5 -8l8 12q-45 8 -81 13t-83 5zM811 1409q12 -12 23 -12q23 0 18 30q-8 6 -25 3q-10 -5 -16 -21zM754 1409h10l2 18q-8 -4 -10 -8zM674 1272q-18 -23 -29.5 -41.5t-11.5 -42.5zM823 1245v-8h21q14 0 16 8h-37zM823 1130h11 l4 27zM504 655q29 6 28 45q-10 -4 -18 -22zM442 526l19 31l8 23q-14 -4 -25.5 -23t-1.5 -31zM477 305l-55 -115q-27 -59 -33 -98z" />
<glyph unicode="8" horiz-adv-x="1171" d="M768 1616l61 22l54 11q23 0 34 -10.5t11 -41.5l24 -18l17 29q76 -49 110 -127q37 -74 37 -172q0 -129 -87 -204t-198 -151q18 -18 91 -63l98 -68q29 -23 56.5 -92t27.5 -139q0 -35 -22.5 -130t-129 -210t-252.5 -189l-153 -34q-80 -18 -154 -19q-106 0 -178 53l8 17 q0 27 -26 29l-33 -19q-61 61 -103 150q-35 88 -34 180q0 72 24 149q20 27 56 107t92 110v-18q33 0 67 29l70 57q0 25 -29 45l-53 41l-53 119q-18 55 -19 110v25l4 25q25 111 74 197.5t139 127.5q-129 -111 -184 -284q0 -39 21 -68q14 117 61 206t141 128q-47 -39 -73 -90 l-76 -170q10 -12 12 -33l4 -35v-24v-37q0 -16 12 -35q12 -57 56.5 -113.5t97.5 -62.5l14 8q-61 63 -100 138t-39 157q0 80 33 150.5t100 119.5l10 27q47 43 110 67.5t132 24.5zM453 1571q37 41 90 41q0 -12 -35 -26.5t-37 -31.5q4 -18 8 -24h-18q6 6 0 22zM950 1522l-41 45 l-6 -4zM678 1530l74 -62l53 -51q74 -102 74 -235q0 -70 -21 -125h10l33 65q-6 16 -10 21l8 98q0 53 -12.5 93t-46.5 75q0 20 -30 52t-24 61q-12 33 -41 32q-16 0 -34 -8zM862 1499q49 -39 81 -91t32 -120l-4 -41q-18 6 -27 53q0 43 -12 64zM993 1473l-16 8l35 -54zM621 1466 q-41 -12 -66 -43.5t-45 -79.5q-12 -41 -12 -71q0 -57 24.5 -98t45 -68t53.5 -62q16 0 35.5 -10t25.5 -30q78 0 113 86l26 88l19 -4v10q-18 8 -25.5 57t-57.5 124.5t-136 100.5zM985 1247l-35 -119h8l23 41q6 14 10 43zM377 1210q6 -63 19.5 -106t35.5 -60l57 -47 q35 -31 58 -30q12 0 28 8q-68 33 -120 110zM217 1087l-2 74l-6 -6zM457 1137l43 -74q16 -18 39 -29zM227 1065q10 -55 43 -111q33 -47 84 -77l23 18q-16 12 -43 34.5t-54.5 54.5t-52.5 81zM741 776q0 37 -36 55l-72 35q-27 16 -47 17q-12 0 -21 -11l135 -67 q117 -63 156 -232l31 -165l8 90q0 106 -49 180zM682 881l23 -21q10 -6 18 6q-21 17 -41 15zM971 791l-84 90l106 -148zM750 850l100 -102q43 -41 63 -89q25 -41 25 -112q0 -45 -10 -92l-10 -72q18 29 24 59l16 138q-23 88 -77.5 163.5t-130.5 106.5zM436 791q-23 0 -39 -17 l-43 -51q-47 -72 -47 -172q0 -102 55 -189q66 -63 136.5 -97t152.5 -34l-18 -10l33 -6q41 0 82 59l49 66q23 51 22 111q0 111 -78 219q-39 45 -91 75.5t-111 30.5l127 -69q51 -27 57 -78q-47 57 -111 88zM182 696q-18 -4 -18 -41q12 6 20 21q6 12 -2 20zM199 637l-17 -41 l-14 8q-12 -6 -18 -18l-9 -31l-2 -49q0 -113 50.5 -211t146.5 -150q86 -27 160 -26q53 0 106 18l-39 -8l-45 6l-41 6q-16 0 -39 -12q-6 6 -22.5 10t-20.5 8.5t-6 6.5q12 6 29 -4l-150 104q10 -4 18.5 -16.5t2.5 -18.5l-39 35q-14 16 -10 37q14 -6 18 -10l14 -9 q-25 33 -53 134l-29 108l7 -78l12 -74q-20 31 -30.5 65t-10.5 79l6 49q31 6 31 35zM1022 637l6 -35l-6 -45q-4 -35 4 -43l8 10l6 37l4 33q1 35 -22 43zM88 502l-6 -80q0 -61 9 -100t22.5 -69t41 -75t108.5 -78.5t165 -33.5h41l25 4q-104 0 -190.5 49t-143.5 143l-29 70z M805 168q-18 4 -30.5 -20.5t-37.5 -18.5l-24 -27q-8 -12 -6 -20l108 74q37 25 49.5 47t45 35.5t36.5 31.5l-6 21q-37 -20 -71.5 -50t-63.5 -73zM625 195l-37 6zM354 178l-59 41l63 -37z" />
<glyph unicode="9" horiz-adv-x="1163" d="M121 1315q90 137 225 229t287 92q-61 -23 -115.5 -52.5t-87.5 -78.5q33 0 93.5 38t108.5 50.5t120 12.5q88 0 155.5 -26t116.5 -87q39 -68 57.5 -133.5t24.5 -108.5t6 -88q0 -162 -63.5 -338t-163.5 -340l-211 -282q-41 -53 -88 -102.5t-103 -98.5l-18 41l-53 -23 q0 18 30 50l68 63q-47 -6 -104.5 -62.5t-88.5 -72.5v25q0 12 -16 20l-41 -12q-25 -12 -37 -13q-14 0 -24 9q0 16 -4.5 26t-8.5 13l-28 -19l-4 10l223 217q115 113 193.5 222.5t115.5 246.5q-8 2 -24 2q-23 0 -48 -12q-35 -12 -63 -41q14 -4 41 2l41 8l-86 -30 q-70 -18 -98 -47q10 -6 34 -11l23 2l45 17q-61 -33 -143 -33q-133 0 -232 74q-94 98 -131 231q18 6 18 27q0 29 -4 45l-14 14l-4 -28v-27l-8 74q0 35 6 70.5t22 76.5zM618 1518l-18 -13q63 -6 119.5 -38.5t105.5 -88.5q-23 59 -81 99.5t-126 40.5zM528 1460l-79 -82 q-29 -59 -58 -139q-23 -80 -22 -147q0 -96 31.5 -151.5t77.5 -90.5t100 -35q96 0 163 76l17 117l8 114q0 59 -12 121q0 14 -9.5 33.5t-28 49.5t-22.5 48q53 -41 77 -106.5t24 -139.5l-7 -100l-12 -104q23 12 36 42.5t13 77.5q0 92 11 113l26 19q-25 0 -31 10l-18 88 q-2 16 -8 31.5t-14 31.5l-68 88l-64 21q-49 18 -92 18zM383 1452q-41 -12 -68 -51l-67 -125q-6 4 -10 18l4 19l-2 8l-52 -113q-8 -23 -14 -47t-6 -49q0 -94 37 -185t96 -139l-92 158l-6 94l-4 74q0 45 9 78t32 55q-12 -66 -13 -129q0 -104 34 -193t110 -155 q37 -16 68.5 -24.5t70.5 -8.5l49 6q-12 12 -64.5 20.5t-70.5 33.5q-78 49 -107 123q-23 68 -51 233q0 47 31 127l37 104l37 41q14 15 12 27zM438 1411q-18 -16 -41 -51q-14 -29 -8 -45zM965 1407l18 -14v10zM989 1370q6 -18 12.5 -51t10.5 -53l6 -115q0 -39 -2 -78t-8 -78 l-15 -104l21 59q6 18 8 33.5t2 46.5v25q23 51 23 110q0 37 -2.5 55.5t-14.5 51.5q-14 55 -41 98zM809 1352v-23q14 4 22 8l-10 9zM872 1337l-22 -22h8q18 -29 27.5 -77t9.5 -99l-6 -109l-8 -88l-19 -18l-53 -191q41 68 65 152l60 219q10 0 16 -2q0 -2 2 -2 q0 -117 -36.5 -244t-94.5 -258q37 57 62 125l61 186l39 164l-12 8l8 29l-12 43l-11 37v-37q0 -16 -4 -23h-18q-6 68 -19 123q-6 49 -43 84zM154 946q6 -55 42.5 -109.5t84.5 -74.5q-43 25 -69 76l-39 76.5t-19 31.5zM754 815h14l20 27q6 6 7 22l-4 15q-20 -10 -29.5 -27 t-7.5 -37zM750 780q0 -61 -52 -137l-98 -135q10 16 28.5 48t45.5 85zM604 748l37 8q-6 0 -13.5 -1t-23.5 -7zM348 721l4 4l-45 23zM817 707l-213 -334q0 -63 -86 -137q-84 -66 -102 -107q29 12 63 43l43 43q25 61 160 221t135 271zM803 580l-4 -21zM690 322l19 40l-39 -49z M338 201q-4 -10 -31.5 -29.5t-21.5 -42.5zM334 43q16 2 28 12q12 6 13 25q-12 6 -23.5 -13.5t-17.5 -23.5z" />
<glyph unicode=":" horiz-adv-x="540" d="M326 928q-6 18 5 30.5t56 22.5q10 -27 65.5 -82t55.5 -92q0 -20 -8 -37l-35 -2v-23q-8 6 -23 0q-8 -6 -14 -24l8 -19q10 -12 -6 -18l-145 168q0 -20 16 -45l45 -55l39 -72q-16 2 -20.5 -15.5t-24.5 -11.5l-94 103q-31 35 -74 63l-4 -4l139 -184q-41 18 -93 56t-85 83 q0 20 21 41q23 16 16 41q18 0 46 19.5t42 23.5q0 16 20 29q23 6 29 16q10 -2 12 -4zM299 471q27 -12 49 -47q23 -29 33 -55l27 -68l20 -59q0 -18 -18 -37q-8 8 -11 14q0 10 -12 10q-2 -4 -5 -12t-3 -16v-25q-12 -6 -25 2l-14 21l-2 -15v-14q0 -18 -10 -27q-12 4 -22.5 24.5 t-20.5 31.5l2 -52q0 -27 -25 -38q0 -12 -12 -9l-17 11q-6 -29 -40 -29q-10 0 -21 18q-6 18 -67.5 98.5t-67.5 118.5q20 6 48 45t65 29l88 -117q4 27 -22 64t-26 61q20 -16 64.5 -93t71.5 -103q-12 41 -62 129l-51 102q10 12 27 12q16 0 30.5 -10t40.5 -39l51 -57 q0 27 -30 76zM393 805l-28 35zM362 899q0 -20 25 -48t29 -46l-6 -23q12 -10 20 -14l-2 6l8 23q0 18 -22 43zM141 346l74 -106q10 -16 18.5 -34t16.5 -40q-6 4 -13.5 11t-25.5 36t-39 35l-43 63l10 -8q8 4 11 8z" />
<glyph unicode=";" horiz-adv-x="540" d="M358 870q35 -35 58.5 -60.5t50.5 -60t39 -87.5q-18 0 -25 -5l-30 -18l4 -18q6 -12 0 -21q0 -10 -11 -10l-12 10l-12 14q-12 -6 -12 -20v-33q-29 2 -81.5 78t-90.5 88l32 -72q23 -41 62 -53l22 -90l-78 82l-81 102q-18 0 -23 -4l135 -217q-12 -6 -29 -6q-18 0 -30 12 l-160 203q6 10 45 23q37 8 39 32q25 0 41 18.5t10 49.5q31 0 62 16l61 33zM467 395l-25 -172q-55 -164 -89 -251t-105 -167l-4 9l-13 -15q-6 -10 -20 -8l98 266q51 143 51 262l-2 37v25q14 16 33 22l6 -22l4 -33q0 -8 -2 -26.5t-8 -42.5l-10 -68l2 -31q10 16 18.5 51 t10.5 54.5t2 60.5v57l20 9l12 4q13 -1 21 -21zM332 369l12 -13q0 -231 -119 -413l19 -4l-37 -95q-12 -37 -49 -49v-12l-11 49l-43 -53q2 -6 4.5 -11.5t10.5 -13.5l28 4q4 -14 -3 -25.5t-33 -25.5q-12 12 -24.5 -4t-27.5 -8l9 31l-13 38q-8 20 -4 41q31 18 38 36t30 147 l8 104l8 107l-2 43l23 14l18 -37q0 -49 -14 -137l-15 -121l37 137l8 95l-2 28l-6 49q16 -6 31.5 16.5t30.5 22.5q18 -18 18 -55q0 -16 -18.5 -79.5t-18.5 -86.5q41 35 49 109l21 145zM332 809l88 -117zM143 -86l2 39l-20 -62zM172 -115l2 21l-4 -27z" />
<glyph unicode="&#x3c;" horiz-adv-x="1073" d="M1028 1034q-94 -27 -174 -49t-249 -73.5t-308 -143.5l-6 -20q57 -39 113.5 -70t144.5 -68t207 -37h30q14 0 43 3.5t40.5 5.5t39.5 12l-45 -12q-35 -6 -59 -27q10 -6 39 -10l47 6l47 10l-4 -14q-18 -8 -33.5 -14.5t-50.5 -14.5l-84 -8l-68 2h-24q-12 0 -41 4 q45 -29 174 -41q55 0 88 -3t63 -9q-104 -47 -202 -47q-135 0 -253 71.5t-257 194.5v-25q96 -133 234 -199.5t339 -117.5q35 25 88 25q55 0 82 14v-17q-8 -8 -12 -10l-14 -6q0 -18 14 -18l18 4l15 6q10 -10 10 -19l-37 -22l10 -23l8 -16q-2 -6 -3 -10t-11 -15 q-78 -23 -160 -22q-125 0 -234.5 52t-219.5 140l-213 172l-15 21q-4 4 -4 18q27 0 49 -20l48 -43l8 4q-14 6 -45 63q-25 55 -49 56q-18 0 -41 -23v47q4 18 18 37l-51 -12q43 76 129 131l186 100q88 47 219 86l342 86q-2 -31 27 -32q31 0 33 -23l-23 -6q-10 -4 -12 -8z M874 1204l23 -4l33 4l33 4q23 0 34 -22q-176 -37 -330.5 -86t-287.5 -111.5t-270 -169.5q0 25 -24 47.5t-24 40.5q0 16 9 35l53 49q-8 8 -8 15q0 14 14 16q57 51 152 111l153 96q182 76 307 116.5t238 40.5q-2 -10 -25 -28l-45 -29q0 -12 21 -12l35 4q20 0 24 -25 q-27 4 -80 -19.5t-84 -23.5l-6 -12l35 -6l53 6l37 6l-33 -12q-25 -6 -37 -31zM950 418v-12q-39 -14 -98 -21q-53 0 -76 -6q35 16 92 27zM963 1051l-25 2q-63 0 -115 -39zM874 1079l66 19l-111 -17zM895 1315q-178 -35 -299 -80t-194.5 -78t-145.5 -76l190 80l271 103 q18 8 70.5 18t71 15.5t36.5 17.5zM731 1178l-321 -136l2 17l153 57zM524 999v-12l92 37zM573 541h-20l20 -15v15zM270 741q10 -20 27.5 -34.5t38.5 -18.5l-27 31q-21 28 -39 22zM311 530l-84 119q-14 20 -41 45l-10 -18zM291 688l-25 19q-18 14 -28 12l30 -31q13 -6 23 0z M270 983q-47 -20 -80.5 -44t-60.5 -60zM203 1047l35 28l-56 -35z" />
<glyph unicode="=" horiz-adv-x="1075" d="M82 1182q25 6 50.5 10t41.5 6l121 6l141 -4l133 -4l-41 -2l-55 2l-59 2l-62 -6h-37l-20 -2l100 -10l119 -2h25h73l78 2h19l12 12q35 -20 156 -33q51 0 94 -7t67 -19q0 -12 -25.5 -22.5t-29.5 -20.5q8 -14 14 -21l-6 -6l-102 10q-41 0 -66.5 7t-50.5 24h-598l-82 10 q-18 6 -10 27q-14 0 -16 14l16 16v11zM98 1055l236 4l162 6l166 -6q41 0 60 -3t93 -22q41 6 94 -14l58 -21v-14q-199 29 -404 43t-446 14zM295 1024q18 0 31 -10q12 -6 34 -10l23 2l-21 14q57 0 120 -2t130 -8q68 0 113 -5.5t149 -23.5l-8 -14q4 -4 9.5 -8.5t28 -12.5 t22.5 -20l-45 -6l26 -11q12 -2 17.5 -5t1.5 -11l-17 -14q-125 23 -204.5 32t-139.5 9l-440 8q-4 33 47 33l39 -3q29 0 45 -4l39 7q98 0 146 -2.5t155 -14.5l260 -24q-4 18 -52 24t-61 12l-159 13l-174 4l-131 -2h-132q-6 18 16.5 27.5t29 13.5t12.5 8q10 -14 67 -14h23v18z M279 1190h-74l-70 -10zM82 711q25 6 50.5 10t41.5 6l121 6l141 -4l133 -4l-41 -2l-55 2l-59 2l-62 -6h-37l-20 -2l100 -10l119 -2h25h73l78 2h19l12 12q35 -20 156 -33q51 0 94 -7t67 -19q0 -12 -25.5 -22.5t-29.5 -21.5q8 -14 14 -20l-6 -6l-102 10q-41 0 -66.5 7t-50.5 24 h-598l-82 10q-18 6 -10 27q-14 0 -16 14l16 16v11zM98 584l236 4l162 6l166 -6q41 0 60 -3t93 -22q41 6 94 -14l58 -21v-14q-199 29 -404 43t-446 14zM295 553q18 0 31 -10q12 -6 34 -11l23 3l-21 14q57 0 120 -2t130 -8q68 0 113 -5.5t149 -23.5l-8 -14q4 -4 9.5 -8.5 t28 -12.5t22.5 -20l-45 -6l26 -11q12 -2 17.5 -5t1.5 -11l-17 -14q-125 23 -204.5 32t-139.5 9l-440 8q-4 33 47 32l39 -2q29 0 45 -4l39 6q98 0 146 -2t155 -14l260 -24q-4 18 -52 24t-61 12l-159 13l-174 4l-131 -2h-132q-6 18 16.5 27.5t29 13.5t12.5 8q10 -14 67 -14h23 v18zM279 719h-74l-70 -10z" />
<glyph unicode="&#x3e;" horiz-adv-x="1073" d="M57 543q190 51 388 112.5t343 153.5l7 20q-57 39 -113.5 70t-144.5 68t-207 37q-49 0 -76 -3.5t-37 -5.5t-41 -12l43 10q43 10 62 29q-10 6 -39 10l-49 -8l-46 -8l5 14q35 16 81 27l86 10l66 -2q45 0 68 -4q-27 16 -72 27.5t-102 11.5q-59 0 -94 4t-58 10q104 47 203 47 q135 0 224 -54t151.5 -100t134.5 -112v25q-92 129 -237.5 198.5t-336.5 118.5q-35 -25 -90 -25q-57 0 -80 -14v16q8 8 13 9l14 8q0 18 -14 18l-19 -6l-14 -4q-10 10 -10 18l36 23q-6 14 -10 18l-8 21q2 6 4 11t10 13q78 23 160 23q127 0 212 -41t132 -70.5t111 -80.5 l213 -173l12 -18l6 -20q-25 0 -49 18l-47 45l-8 -4q16 -6 43.5 -62.5t50.5 -56.5q18 0 41 23l-2 -47q0 -20 -17 -37l52 12q-43 -76 -129 -131l-189 -100q-86 -47 -219 -86l-340 -86q2 31 -29 32q-31 0 -30 23l22 4q10 6 12 10zM211 373l-23 4l-32 -4l-33 -4q-23 0 -35 22 q168 37 326.5 86t293 112.5t269.5 168.5q0 -25 23.5 -47.5t23.5 -40.5q0 -16 -8 -35l-53 -49q8 -8 8 -15q0 -14 -15 -16q-51 -45 -153 -111l-152 -96q-92 -37 -170 -67.5t-170 -60.5t-205 -30q2 10 25 27l45 31q0 12 -20 12l-35 -4q-20 0 -25 25q27 -4 80 19.5t84 23.5l6 12 l-35 6l-53 -6l-37 -6l31 12q27 6 39 31zM135 1159v12q20 10 74 17l100 10q-18 -10 -44.5 -17t-47.5 -12zM123 526l24 -2q63 0 115 39zM211 498l-66 -19l111 17zM190 262q174 35 292 78t199 80t148 76l-192 -82l-268 -101q-18 -8 -70.5 -18t-71.5 -15.5t-37 -17.5zM354 399 l322 136l-2 -17l-156 -59zM561 578v12l-92 -37zM512 1036h20l-20 15v-15zM815 836q-10 23 -26.5 36t-38.5 17l26 -33q21 -26 39 -20zM774 1047l84 -119q14 -20 41 -45l10 18zM795 889l53 -31l-33 29q-8 8 -20 2zM815 594q49 23 82 44t59 60zM883 530l-35 -28l55 35z" />
<glyph unicode="?" horiz-adv-x="942" d="M524 1632l-8 -12q4 -12 21 -12q18 0 22 -4q12 6 6 14l-6 10q74 0 139 -59q59 -47 103 -125q0 -166 -164 -311l-289 -234l-18 -51l-2 20q0 53 61 101l119 90l188 155h23q-8 8 -2 31l10 29q-4 14 -8 18q-6 -12 -41 -34.5t-37 -43.5l-375 -311l-10 -43q0 -18 18 -31 q45 -16 114 -26t169 -10q201 0 252 -29q51 -23 51 -64l-100 23l-76 6l-55 -6q23 -16 125 -29q98 0 125 -71q-31 -6 -68 12l-53 31l-43 6l-27 -2l-47 -13l16 -16l-20 -2l-23 -8q25 -10 62 -10l67 2q31 0 48.5 -8.5t29.5 -34.5q-90 23 -198 22q-49 0 -73 -2t-65 -12l-51 6 l-82 -12l-73 -11q43 -12 88 -12l73 4l76 4q25 0 37 -4h39l67 2q70 0 111 -9t74 -46v-25q-47 31 -96.5 40.5t-82 13.5t-69.5 4l-150 -8l-149 -9q-55 0 -92 4.5t-90.5 22.5t-108.5 88q-12 31 -12 66q0 51 24 98q70 88 227.5 211t196.5 168l47 61l9 41q0 31 -25 49 q-43 49 -104 49q-23 0 -43 -10q-18 6 -57.5 -25.5t-53.5 -31.5q-10 0 -22 22l4 31l-35 4q20 49 90 62.5t84 23.5q53 0 125 -67l80 -70q12 35 -35 84l-51 57l-66 19l-45 6q-33 0 -53 -10q-43 -8 -83 -37t-81 -72v51l-39 -35l-8 19q0 16 33 49l41 45q70 49 165 77t189 28 q-37 20 -86 20q-39 0 -57.5 -5t-39 -10t-55.5 -20q29 18 70 28.5t68.5 14.5t56.5 4h31zM188 1554l-65 -55q0 12 16 29l35 26h14zM100 1487l-24 -49q-8 -18 -31 -31q-2 12 12 33zM301 412q29 0 57 -21l50 -41l12 23l94 -92q53 -57 53 -101q0 -18 -8 -35q-6 -6 -16 2l-11 9 l-16 -11l-168 154l-12 -12l166 -187q0 -10 -13 -22l-30 -12l-68 65q-55 59 -88 72l-4 -10l2 -15q-6 16 -74.5 65.5t-81.5 86.5q4 4 25 8l55 -6q18 0 21 22l-2 19l-4 4q12 10 23 1t18.5 -13.5t9.5 -4.5q14 8 18 17zM135 287l148 -115q82 -59 116 -119h-43q-59 63 -94 92 t-88 48v-19l170 -135l-6 -25l-21 -16l-233 176l-18 29q12 23 34 22q12 0 27 -8l35 -24q6 16 -10 30l-37 33zM279 1522h-9l-43 -31zM317 1530q25 12 45 12t64 -14l63 -15q51 -37 76 -88t25 -116q0 -45 -47 -88l-84 -80l135 102q27 53 27 100q0 35 -11 56q-10 55 -71 88 l-105 51l21 16l-41 9q-52 0 -97 -33zM135 766q35 -53 65.5 -73.5t65.5 -16.5q-4 8 -55 33.5t-57 60.5l-4 49q0 35 9 60.5t34 42.5q-63 -45 -64 -119zM584 778v8h-52v-8h52zM614 778v8h-20v-8h20zM657 778v8h-28v-8h28zM731 774q6 -6 21 -6q27 0 34 -8zM283 739l-39 13v-9z M49 743l-8 -32q6 -20 14 -47t21.5 -49.5t50.5 -34.5v24q-31 14 -53 55q-17 39 -25 84zM614 727q-27 0 -65.5 -2t-87.5 -8l-103 -8l-49 2q35 -6 70 -10.5t78 -4.5q92 0 157 17v14zM303 662l-12 -7q10 -12 20 -12l19 6zM330 614l51 -4l221 27l-125 -2q-71 -1 -147 -21z M172 580h-25l27 -9zM537 1573h-25l29 -4zM477 1550l90 -37q43 -18 88 -49q-31 47 -54 57.5t-56 16.5t-68 12z" />
<glyph unicode="A" horiz-adv-x="1810" d="M1122 1620q18 -16 19 -49v-29q0 -14 8 -24l33 -115q4 -12 9 -22.5t23 -39.5l11 13q0 33 -24.5 116.5t-24.5 114.5q10 6 16 6l20 2l23 -106q18 -100 47 -144l12 29l-28 105l-23 120q31 4 43 -41l62 -256q27 -113 62.5 -239.5t113.5 -366t229 -528.5q6 -23 -16 -53l-19 26 l-22 -22l-17 37l-24 -19q-18 25 -43 75t-37 74.5t-19 32.5q0 -43 23 -94l41 -88q-4 -10 -18 -16l-35 -2l-160 338l-18 -31q33 -86 70.5 -164t80.5 -147l-6 -21q0 -12 13.5 -32.5t17.5 -34.5q0 -14 -17 -25q-57 61 -120.5 208.5t-96.5 192.5q-14 0 -16 -14q12 -25 12 -39 q18 -55 55 -129l74 -139l-8 -23q0 -12 8 -28l21 -35q0 -10 -39 -10q-29 33 -91.5 182t-162.5 174l-623 12l-192 -289l45 89q23 45 28 84q-16 -16 -54 -86t-77 -103q0 57 59.5 147.5t70 114t48.5 23.5q35 0 35 43l-39 2l-32 6q-37 0 -37 -41q-18 -70 -47 -109l-115 -174 l-12 19l-33 -29l-53 -20q20 20 41 55l32 70q-23 -14 -66.5 -84t-84.5 -70l-33 6q0 70 6 107t47 57q0 29 45 99.5t45 101.5q-4 4 -24 4l-29 -4q-18 0 -18 26q-6 31 43 42.5t49 21.5q0 12 -29 39l-37 4q0 14 27 19t31 12l-8 18l2 22q-8 12 -15 13q27 35 84 41l92 8l365 698 l18 -18q12 8 15 41q0 37 12 49l45 70q18 27 57 20l-28 21q-6 6 -6 16l12 20l6 5l25 -31l24 39h8q-39 -127 -112 -271l-148 -295q-70 -143 -88 -217q-12 -66 -26.5 -85t-18.5 -35l6 -19q41 84 75 154.5t101 220.5l129 289q16 -8 35 20l29 62q0 55 22 94l62 92q41 -6 55 -71.5 t35 -84.5l6 37q0 18 -4 35.5t-6 30.5l-10 55l8 33l31 -35l10 22q8 21 22 21zM1122 1354q8 -61 20.5 -122t33 -144.5t61.5 -182.5l6 13l-2 32v25l-4 37q-35 41 -56.5 165t-58.5 177zM948 1300q-80 -86 -141 -239l-111 -285q18 41 45 86l62 105l12 -23l4 37q0 -14 -4 -18 q-8 18 6 51l31 55h18l-10 29q0 14 17 24l14 -18q6 49 31 117zM952 1251l-4 -16zM979 1210l-123 -272q-49 -115 -135 -287l80 -8l57 -2h115h45l63 -8l-4 -19q4 -6 21 -10l24 6l23 4l-80 310q-35 130 -86 286zM649 1130l33 64l-4 4zM1090 1122v-45l67 -256q25 -102 80 -180 l-80 285q-26 96 -67 196zM1376 1032l-26 37q70 -291 104.5 -392.5t93.5 -199.5zM588 1006l10 -5l12 50zM1245 864q0 -45 17 -84l43 -94l18 8q-2 35 -12 56q-6 20 -29 26q10 23 -11.5 48.5t-25.5 39.5zM473 793l4 -5l23 54l-6 4zM451 750l-50 -86q12 8 29 43zM1327 664 q-4 -4 -4 -21l12 -10q10 6 6 18q-4 13 -14 13zM1038 625v-15h13l6 11zM745 565l-24 23q2 -18 -16 -21q-23 0 -23 -14l123 -21q102 -16 184 -16q14 14 29 14q10 0 22 -14q12 6 39 0l41 -6l25 6q0 31 -6 41zM504 563h-10l6 -18zM1563 459q0 -45 39 -105l45 -69zM827 379l-16 4 l-8 -12zM989 371l33 -6l35 -7q16 0 33 13l-50 6zM1212 371l-36 4q-16 0 -27 -8l63 -15v19zM262 348q-33 -2 -37 -35.5t-37 -36.5l-94 -213q33 18 84 120t109 102q27 0 49 -9q-2 10 -35 29.5t-39 42.5zM303 215h-12l-23 -29zM1573 166l20 -27v15l-6 12h-14z" />
<glyph unicode="B" horiz-adv-x="1564" d="M973 1642q63 0 131 -20l201 -70q96 -68 128.5 -117t32.5 -98v-24q0 -98 -48 -140.5t-222 -152.5q16 -14 111 -51q92 -31 125 -64q-66 39 -129.5 62.5t-131.5 23.5l-14 -16q57 -14 102.5 -29.5t101.5 -42t128 -98.5q16 -25 27 -62l8 -69q0 -39 -2 -56.5t-15 -50.5 q-12 -49 -45 -100q-147 -180 -349 -292t-435 -142q-10 0 -25.5 19.5t-25.5 19.5q-16 -4 -21 -9l-18 -12q0 12 -19 12l-22 -8q4 -4 4 -16v-19l-102 -10h-50l-120 6q-59 6 -74 7.5t-49 9.5q-6 6 4 14l12 8q25 6 68 -12t61 -18q16 0 31 8q10 -12 22 -13q18 6 25 11l31 20h22 q18 0 29 -2l43 -6q27 0 43 16l-64 7l-59 6q-27 0 -43 -9l-27 37q-12 -12 -39 -22l-45 -6l-73 6l-66 8q-31 0 -41 -4q-20 0 -43 8l-43 19v18q10 6 70.5 18.5t72.5 53.5l-28 53q-10 18 -37 18l33 6q12 -6 16 -10l27 49q14 33 14 56q0 20 -10 39q23 0 29 31.5t12 37.5l12 -80 q20 8 29 52l8 61l-12 2h-17q-12 0 -20 16l18 150q6 66 21 111l28 -64l39 246q6 57 10.5 115.5t4.5 119.5l-15 -6l-53 -358l-6 35l-4 55v39t8 69l20 117l7 109q0 41 20 82l8 -21q6 -6 19 -6l4 33q0 25 4 35l-31 8l-41 -8l-47 -9q-27 0 -43 17l31 39l51 43q-6 6 -24.5 -1 t-28.5 -3q-10 31 20 30l23 19l-8 10l53 33l-19 8l-43 -16q-6 6 -6 18q90 41 197.5 56.5t222.5 15.5l188 -4zM76 63l16 -6l25 -2v-18l-27 6q-16 6 -14 20zM1171 1587q-47 0 -74.5 6t-47.5 9l-109 16q-31 0 -53 -8q100 -16 169.5 -31.5t148.5 -40.5t171 -111q10 -4 10 -26 q0 -18 17 -19v27q-31 61 -90.5 103t-141.5 75zM373 1587l39 -2q10 0 14 25q-39 -7 -53 -23zM655 1597l-8 -18l340 -47q190 -43 291 -164l-4 -4q31 0 45 -35l31 -63q12 6 12 30q0 27 4 31l10 12l8 -2l9 -30q0 -25 -17 -47l-22 -27l14 2l12 8l15 39l10 41q0 33 -37 33 q-4 -8 -16 -10l-17 4l-12 6q-18 72 -81.5 109.5t-178.5 78.5q-8 -2 -25 -2q-12 0 -34 6l-58 31l-57 -6h-39q-31 6 -58.5 10t-39 5t-39.5 9l-37 -8q-17 4 -21 8zM573 1569l23 4q16 0 22 12h-28q-11 0 -17 -16zM418 1567h-8l8 -11v11zM279 1530h28q10 6 17 22q-14 0 -23 -4z M942 1436l141 -82q59 -33 81 -87.5t22 -86.5q0 -43 -21 -70q35 31 35 98q0 27 -4 43l-8 41q-35 53 -92 82zM434 1405l-31 -330q0 -76 -11 -160t-21 -163l-47 -373h8q23 125 42 257t39.5 332.5t20.5 436.5zM614 1399q-6 -41 -11 -78t-11 -74t-23 -71v-37q0 -43 -12 -137.5 t-12 -139.5l2 -49l18 18l41 371zM698 1397q-20 -53 -33.5 -127t-13.5 -168q0 -92 -5 -158.5t-15 -112.5q16 -2 35.5 13.5t38.5 11.5l4 41l30 2l19 -6l10 53l39 2q20 0 31 -10q18 16 28 33l-28 20l18 15l35 -2h39q23 6 31 8l79 20q41 10 56 80l16 121l-14 -4 q-61 80 -137 107.5t-135.5 40t-127.5 20.5zM319 1233v37h-10zM440 897v104l-6 -108zM1294 862q6 -16 49 -57l52 -41q-8 37 -35 61.5t-66 36.5zM1350 856q55 -12 85.5 -68.5t30.5 -113.5l-34 -135l8 71l-6 82l-9 72zM434 844q-14 -14 -14 -58l2 -34l4 -25zM1044 817 q92 -25 173 -93.5t96 -158.5l4 51q0 14 -3 34t-21.5 53.5t-90.5 70.5q-68 31 -158 43zM551 805h-8l8 -14v14zM631 799l10 -17q23 0 27 4l-17 9q-6 4 -20 4zM750 786l-11 -10q39 0 78 -2t91.5 -8t117.5 -31l14 -24q6 -12 -4 -19q-33 14 -86 25.5t-119 11.5q-68 0 -106.5 5 t-77.5 16l-29 -17q-25 -78 -36 -174l-9 -203l136 -6l96 -4l100 6q43 6 86 27q-25 -39 -110 -57q-84 -14 -101 -25l43 -2q74 0 150 25.5t170 74.5l55 103l8 43q0 18 -25.5 94t-142 113.5t-288.5 37.5zM532 758l-36 -213q-20 -156 -37 -226h12l4 9l14 47q4 16 14.5 72.5 t14.5 82.5l29 228h-15zM264 719q-14 -29 -14 -70l2 -33v-41q14 37 14 76zM1501 684l-8 8l8 -18v10zM399 569l-14 -129l12 64q12 47 13 65h-11zM1466 557h9v12h-9v-12zM1251 436q10 6 19 27l22 45q-10 -6 -26 -31zM1403 455l22 49l-41 -64zM1350 387l4 19l-23 -33zM211 373 l-8 -27q14 6 18 10l-4 9zM1294 346h-8l-90 -72zM569 324v-17l41 -8l31 -2h53l27 4l-33 10l-43 2h-39q-19 1 -37 11zM301 270l4 -18l14 18h-18zM696 266l-10 -41h19l6 8l2 15q2 12 -6 14zM641 260q-6 -25 -41 -24l-49 4v-15l29 4l32 -2l31 -2q18 0 35 8l-6 13v14h-31z M897 119q61 18 120.5 50t125.5 83q-43 -14 -63.5 -23.5t-55.5 -29.5q-55 -27 -127 -80zM238 221l8 -10q31 -2 33 14q-8 10 -15 11q-12 -1 -26 -15zM336 143l8 -24l107 -15l110 -6l62 2l65 6l62 9q25 2 26 26l-69 -20l-74 -6q-55 0 -148 14zM739 1620l72 4h-29l-22 6 q-13 0 -21 -10zM1108 674q25 -25 38 -52.5t19 -48t6 -41.5l-6 -36l-82 -88q-18 -18 -65 -27l90 72q31 31 31 67q0 53 -6 88q-2 29 -25 66z" />
<glyph unicode="C" horiz-adv-x="1376" d="M1087 1575q47 -14 82 -31.5t86.5 -55.5t69.5 -110q-4 -8 -8 -39q0 -31 -4 -39q-18 -6 -31 -6l6 -18q0 -25 -20 -31l-23 12q6 16 10 23l-98 80q-63 55 -123 74q12 -20 102.5 -101.5t90.5 -146.5q-8 -8 -25 -4l-16 8q-12 -10 -17 -19l-63 41q-6 -18 12.5 -42.5t18.5 -39.5 l-213 177q-37 25 -82 36t-72 15t-59 4l-107 -8q-70 0 -121 -91.5t-116 -301.5q0 -221 24.5 -346.5t107.5 -192t149.5 -86t144.5 -19.5q154 0 270 68q39 35 72.5 59.5t54 38t61.5 33.5q0 -35 -14 -57l-51 -74l10 -16l-31 -33q18 -2 52 18l43 23l-9 -41q12 -6 27 2l27 22 q6 -4 10 -26l-6 -33l-4 -22q-86 -86 -146.5 -137.5t-142.5 -84.5l-19 29l86 53l-118 -35q-33 -8 -74 -36h35l30 6q20 0 29 -29q-141 -61 -315 -61q-102 0 -207 24.5t-193 73.5q-106 86 -171.5 187.5t-65.5 215.5l22 15q-31 129 -30 258q0 193 69.5 357.5t193.5 277 t232.5 155.5t177 57.5t144.5 14.5q130 0 245 -45zM446 1090l-22 -80q0 29 4 43zM416 952q0 -20 -4 -32v-35q0 -82 18.5 -157t61.5 -157q-94 117 -95 265q1 55 19 116zM1065 1548l209 -147l-92 86q-62 49 -117 61zM729 1436q76 0 149.5 -23.5t129.5 -64.5q-51 41 -109.5 68.5 t-114.5 27.5h-32zM479 1419q-29 -14 -44 -29.5t-25 -37.5q29 14 45 28t24 39zM1098 1284h18v14q-2 2 -12 2zM289 893q20 147 36.5 199.5t31 85t34.5 67.5q-68 -55 -81 -117.5t-17 -111.5t-4 -123zM770 1581q29 -12 61 -12l64 6l57 6l33 -6l-143 24q-35 0 -72 -18zM111 1065 l4 22zM252 956l-21 -106q0 -152 65.5 -279t190.5 -211v17q-235 241 -235 579zM276 1294q115 119 221.5 193t231.5 88q-190 -68 -352 -199t-205 -307l-33 -188l2 -37q0 178 18.5 274t116.5 176zM70 705q0 -92 25.5 -166t82.5 -170h17l-56 137zM1204 451l29 16l-6 4zM61 467 q8 -41 20.5 -82t35 -87t84.5 -95q-41 49 -77 119.5t-63 144.5zM1116 342q14 -2 29 6l24 21q-10 0 -28 -13zM522 350q8 -31 33 -39l43 -6v8l-41 29q-15 8 -35 8zM201 279l-41 57l-6 -4zM1233 332l-14 4zM1112 305l35 19l-4 4zM662 295l-19 4q-12 6 -16 -4q18 -18 32 -19l17 7 q0 12 -14 12zM1214 244l27 20zM797 203q125 0 184 59q-29 -6 -56.5 -12t-63 -15t-64.5 -32zM262 225l-26 19l40 -29zM219 188q45 -66 117 -94q70 -23 211 -49q-45 0 -84 10.5t-84 36.5zM438 188q41 -20 104.5 -37.5t114.5 -17.5q55 0 86 10q-4 4 -26 4l-27 -4q-16 0 -22 23 l-74 -6q-84 -1 -156 28zM358 166l-28 8l41 -27zM1094 143l4 -4l8 15zM492 113l-76 22v-10zM707 37l43 4l55 -2q49 0 78 29l-88 -13q-55 0 -88 -18zM627 41l14 -8l27 8h-41z" />
<glyph unicode="D" horiz-adv-x="1662" d="M442 1587q27 20 47 21q23 0 43 -21q135 23 254 23q205 0 377 -62.5t303 -199.5q154 -201 154 -443l-6 -98q-74 -309 -333 -540.5t-491.5 -264.5t-363.5 -33q-186 0 -363 33q-31 18 -30 33l8 14q20 0 52 11.5t44 11.5l-37 18q-31 18 -37 41l84 -4q6 16 -16 37 q-16 20 -20 33q4 14 8 18q14 0 18 -2l23 -14q10 6 12 10q-2 10 -30.5 22.5t-22.5 34.5h63q-12 8 -15 12.5t-3 8.5l14 16q12 12 15 29l110 936q-6 8 -35 10h-47q-6 35 45 46t51 50h-22q-14 0 -25 -2l-34 -4q-18 0 -35 12q6 23 47 23q45 0 55 10q-2 6 -4 11.5t-13.5 19.5 t-29.5 14q0 14 45 21q39 0 39 41q-8 6 -33 10l-41 -8l-41 -6l-24 6q12 18 80.5 29.5t87.5 54.5q6 -18 16 -19l16 8l23 11q14 -11 18 -19zM803 1583l45 12h-33q-12 0 -12 -12zM909 1583l-28 12l-13 -12h41zM543 1561h24q12 0 23 8q-4 4 -21 4zM1020 1561v8l-29 4zM844 1532 q121 -12 207 -45t135 -57.5t117 -67.5q12 -35 59 -84l59 -70q12 12 -2 29l-16 18q53 -80 74.5 -119.5t27.5 -88.5l-14 -33q23 0 35 -35l12 -43l-31 -191q-12 -72 -73 -114q27 39 46 97t19 114q0 100 -28.5 171.5t-47 112.5t-50.5 89.5t-68 78.5l-45 39l-15 -10 q-23 29 -104.5 71t-98.5 54l19 14l-57 23l-46 14l39 -37l-65 21q-53 12 -62 39zM432 1528v-21q2 -10 23 -8l4 8v15q-8 6 -13 6h-14zM385 1522v-23v23zM1311 1436l-19 8zM436 1364h15l8 25q-6 12 -23 0q-12 -13 0 -25zM729 1362v-14q147 -43 269 -134.5t206 -218.5 q-49 141 -180 232.5t-295 134.5zM432 1300l-55 -479q-18 -59 -33.5 -205.5t-48.5 -205.5q12 -8 14 -23l-4 -20q2 -4 4 -9.5t8 -9.5q31 139 72 397l66 449l4 45l8 41q0 26 -35 20zM582 1296q-12 -12 -13 -47q0 -25 6 -41l17 60q0 18 -10 28zM1073 1296l43 -51l66 -53 q39 -39 30 -76q31 0 38 -23.5t58.5 -125t51.5 -170.5q0 -35 -3 -52.5t-20 -52.5q16 16 25.5 42t9.5 48q0 29 -10 72l-10 76q0 35 14 61l-37 13q-6 43 -61 108l-60 72q-8 2 -13 26.5t-17 24.5q-6 8 -47.5 26.5t-57.5 34.5zM344 1290l6 -16l2 16h-8zM401 1290l-6 -24l-6 -27 q0 -10 12 -16v67zM637 1290l-29 -61q-6 -16 -6 -29q0 -12 2 -18l-35 -283q-20 -152 -53 -258l-2 27v22q0 35 18 162l21 176q-39 -201 -66 -438l29 12v-24q0 -33 -2 -51.5t-12 -69.5t-14.5 -79t-4.5 -52q20 76 60 323l47 281zM713 1278l-51 -352l-68 -604q10 -10 29 -13 l41 -2h18q80 0 143.5 10.5t161.5 48t213 136.5l41 133q23 74 23 131v31q-16 8 -24.5 28.5t-8.5 55.5q-55 162 -197.5 267t-320.5 130zM1212 1241v-18l29 4q-2 12 -29 14zM385 1110h10v29h-10v-29zM311 1055q0 -55 -3 -82t-13 -86l-25 -187zM352 881l6 55zM340 793 q-23 -25 -10 -48q0 18 4 29zM303 590h8l19 143zM575 451l7 36zM455 440v-8l4 47zM1051 348q76 20 102 88l-86 -63zM561 334l10 55zM1296 377l-198 -168q-41 0 -92.5 -50t-73.5 -59q104 39 203.5 111t160.5 166zM432 340l4 22zM594 215v-22q137 0 229 17t168 73 q-59 -20 -184 -41zM926 168l-277 -92q47 0 85 5t98.5 16.5t93.5 70.5zM350 57h-49q-33 0 -49 4h-16l-15 -4q45 -23 111 -22l106 6l82 8v8h-170z" />
<glyph unicode="E" horiz-adv-x="1286" d="M160 1602l237 18l283 6l346 -4l213 -2l25 -27q12 -10 8 -32l-88 -25q-18 0 -33 14q-45 6 -103.5 11.5t-86.5 5.5l-205 4h-133q-12 -16 -17 -35q4 -12 8 -16l603 -23l10 -33q0 -16 -37 -32q-37 -12 -37 -35l4 -19l-61 -10q18 -4 30 -27l25 -43l-283 7l-264 8l-20 -154 l-6 -164l163 6l156 7l127 -7q39 -4 59.5 -8t67.5 -20q6 -23 -18 -35l-41 -6q-20 6 -46 10t-40 6l-99 4h-53.5t-65.5 -4h-54t-50 -4q86 -18 190 -18l84 6l56 -8q51 -6 69 -25l-73 -6l-119 8l-121 8q-33 0 -62.5 -3t-70.5 -19l178 -13q133 0 168 -10l57 -6q25 0 37 -12 l-10 -37l6 -29q-20 0 -44.5 4t-71 22.5t-80.5 22.5l-29 -2l-160 -2q-74 0 -158 -18l7 -25q8 -6 22 -10q66 0 137.5 -1t151.5 -3q49 0 91 -5t112 -20q0 -31 -45 -30l-33 -2l-47 8l-58 2l-118 -8l-113 -6h-37l-55 8q-23 -49 -43.5 -183.5t-24.5 -142.5l8 -8q90 0 225.5 -5 t151.5 -5q80 0 146.5 -10.5t171.5 -34.5l8 -23q6 -8 8 -14t4 -10q-4 -10 -8 -13q-129 59 -293 74q-20 0 -164.5 7t-230.5 7l-33 -24q-12 -12 -12 -33l37 -2h47l51 2h29q84 -10 185 -16.5t206 -6.5l14 19q27 -18 82 -43q59 -23 74 -35q-14 -6 -37 -47q-27 -39 -45 -39 q-10 0 -29.5 9t-28.5 9l-2 -6l35 -26l-20 -35q-6 -12 -29 -6l-59 8v-47q-20 6 -56 16t-113 25.5t-149 15.5h-73l-72 2q-127 0 -235.5 -11t-198.5 -48q-31 10 -31 41l4 28l4 29q27 143 51 316l47 413l50 410l-78 26q-6 37 29.5 55.5t39.5 43.5l-4 22q-2 12 -18 19.5t-10 25.5 q18 2 37.5 19.5t31.5 42.5q0 16 -18 22l-33 13l23 18l-19 8l-18 2v13zM307 35l84 10l80 6q-12 -33 -65 -33l-44 2l-26 3h-19l-10 -5v17zM174 23q12 18 41 18l29 -2q20 0 30 -4q-14 -16 -43 -21zM637 45l113 -14q37 0 67.5 -5.5t63.5 -15.5l-4 -10l-250 23zM748 1452 q-10 -12 -31 -12l-45 4q-29 0 -39 -31l141 -8l94 -2h31h31h24h76l78 2h20q-16 -4 -47 10l-43 17q-14 0 -24 -9q-29 8 -65 13.5t-83 5.5q-33 0 -66.5 2t-51.5 8zM541 1432q-20 6 -23 -19h23v19zM1042 1372l-428 14l-10 -8zM485 1272l-18 -285q31 90 44 149.5t13 112.5l-2 37 v19q-12 4 -24 -15zM348 1294q0 -117 -12 -241.5t-41 -274.5l-102 -555l83 371q16 86 29.5 164t26 171t18.5 186t6 179h-8zM242 1290h-15l-18 -303zM301 1223l6 67zM403 1268l-10 18l10 -29v11zM301 1180l-4 22l4 -37v15zM449 903l-5 -45h15l-2 29q0 10 -8 16zM193 850l4 31z M438 795h-8l8 -15v15zM416 707l-27 -117q-12 -59 -12 -96l4 -35l22 106l15 99zM582 201q115 -18 239 -19l125 6l-6 11q-78 16 -180 16q-104 0 -178 -14zM186 211l-41 -41q10 -18 25 -18l25 12l26 14q16 -4 21 -8q-6 -6 -9.5 -7t-7.5 -3q-6 -12 2 -31l15 -25q4 6 9 8.5l9 4.5 q18 -6 27 -11l22 -8l15 6q0 18 -24 24.5t-30 18.5q6 37 -18 39l-43 -4q-21 0 -23 29zM522 199l-78 2q-16 0 -22 -25q0 -18 -6 -29l112 9l-24 10zM553 156l29 -23l8 10q8 8 6 17q-10 4 -20.5 -2t-22.5 -2zM678 156l-35 4zM995 119v8l-100 10l-6 -4zM518 1571q-12 -6 -18 -25 q-4 -14 4 -26h18q14 2 18.5 5t4.5 17q4 12 -3.5 21.5t-23.5 7.5zM352 1509q27 -6 29 13l-6 34q8 10 14 11q-25 0 -31 -19zM324 1526l-2 8l2 -18v10z" />
<glyph unicode="F" horiz-adv-x="1400" d="M535 1659q72 0 204.5 -6t196.5 -6q98 0 163.5 -8.5t198.5 -30.5l31 -35q8 -12 -2 -29l-43 -6q-31 0 -61 8l-64 17l-164 18q-23 0 -28 -8l227 -41l-68 -6q18 -12 54 -19l65 -4v15q8 -14 40 -24.5t42 -25.5l-10 -14q-66 18 -151 35.5t-207.5 36t-288.5 18.5l-19 -18l58 -27 l258 -26q100 0 182 -15.5t149 -40.5l7 -4q-12 -12 -37 -12l-49 4l-29 -6l45 -45l-18 -4l-31 4l-29 4q-23 0 -22 -31q-43 12 -104.5 21.5t-121.5 9.5l-247 14l-13 -10l96 -14q53 0 86 -9l-79 4l-56 5l-45 -2q-23 -61 -33 -162l-10 -185l74 -10l82 -2l94 2l92 2h45.5t51.5 -4 q39 0 88 -16l-170 -6q-131 0 -181 -7v-10q29 -6 58.5 -10t46.5 -6l110 -4h72l74 2h18q0 -43 -16.5 -59.5t-46.5 -16.5q-20 0 -46 6t-39.5 9t-53 10.5t-48.5 7.5q-29 0 -47 -8l-26 -5l-27 -8q25 -18 70 -18l57 2q29 0 43 4q35 0 43 -4q12 0 33 -14l2 -15l-55 -6q-14 0 -42 2 t-69 8l-104 13l-41 -7l-56 5l-39 4q-41 0 -69 -19q16 -16 59 -22l80 -2l283 -13v-18q-4 -8 -23 -10l-24 6l-23 10l-111 4l-86 4h-47l-59 -8q23 -4 58.5 -9t60.5 -5l143 -4l184 -23q6 -6 11 -20l-2 -31l-35 4l-37 2l-74 -6l72 -14q20 -4 45 -17q-12 -12 -43 -16l-53 8l-47 8 l-97 23l-102 8l-53 -2l-99 -8l-22 -52l-17 -92l7 -28q0 12 -7 18q-6 -6 -10 -24l6 -31l8 -27l-4 -18q0 -61 -32.5 -182t-32.5 -164q-6 -25 -25.5 -34t-52.5 -13l-33 2l-28 4l98 622l-47 -43l-92 -579q-12 0 -25 12l-16 33q6 4 10 18v19l-19 18l-18 -37q-4 -12 -4 -49h-27 q-10 6 -8 16l66 365l-9 14q-57 -184 -98 -405q0 -10 -18 -10l-25 2l-18 26q53 203 74.5 384t38 338t16.5 290q0 141 13 284.5t17 184.5q41 23 93 33l120 20q6 18 -6 25.5t-34 3.5l-80 -12q-51 0 -88 -11q41 29 147 47zM897 1618l-188 22v-14zM598 1632l12 -14l6 14h-18z M897 1577l-166 14l-51 -10zM616 1585q-27 0 -28 -8h28v8zM586 1522q12 -12 24 4l-2 10q-16 6 -24 -2q-6 -10 2 -12zM260 1481l6 -13l27 5q29 0 26 26q-36 0 -59 -18zM580 1372l-19 -33q0 -57 -12 -174l-12 -133l2 -43l28 201q13 104 13 182zM293 1358l-35 -481 q16 39 30.5 171t22.5 150v78v22q0 12 -4 29q0 19 -14 31zM504 1358l-19 4zM260 1280l6 59zM506 1329l-21 6q-16 -59 -32 -166q-8 -90 -9.5 -126.5t-1.5 -57.5h33zM252 1122l6 27zM649 944l-2 -10l15 -2q14 0 18 4q-8 6 -14 6zM453 926h-19l8 -31l11 2v29zM717 866l-27 4z M854 684l-47 14v-8zM487 621l-57 -279l49 287zM434 279l-10 14q0 -35 -21 -105l-20 -94l6 -43z" />
<glyph unicode="G" horiz-adv-x="1540" d="M1186 1585l12 -6l10 6l-22 27q92 -35 170 -102.5t86 -153.5l-17 -6q-10 -2 -10 -15q-47 0 -93 75t-96 109.5t-125 65.5t-151 31l-37 -2q143 -14 273.5 -109.5t173.5 -226.5q-25 -6 -45 18l-33 56q-72 70 -147.5 115.5t-167.5 70.5l-19 21l-26 -27q59 -23 118.5 -52.5 t132 -77.5t113.5 -151q-18 0 -55 31q-29 31 -57 21l12 -29q-14 6 -72 61q-49 53 -86 68l-41 12q-25 14 -39 6l119 -92q68 -59 90 -117l-14 -2h-8q-27 0 -77 54.5t-83 64.5q-63 37 -139 61.5t-150 24.5q-59 0 -104 -13t-93 -50q-129 -195 -129 -434l25 104q0 -31 -4 -47v-33 q0 -178 74.5 -328.5t228.5 -248.5q90 -68 217 -68q68 0 127 20q6 33 11 64t18 133l20 166l-16 16h-363q25 14 74 15h43l53 2q18 4 37 18q-31 10 -65 10l-43 -2l-43 -2h-33l-23 8l17 31l90 6l69 -2l72 -2l101 6q43 6 79 31l-47 4l-57 21q-6 -12 -14 -15l-33 15q-8 -8 -8 -17 l-35 2l-27 2h-71h-33l-39 9q6 25 22 32l39 9l51 -3l27 5q0 12 -23.5 25.5t-41.5 8.5h88l90 2q94 0 164 -14q16 20 65 21q49 0 64 22q-287 27 -480 27l21 20q133 0 277.5 13.5t361.5 44.5q2 -4 5 -12.5t3 -14.5l-22 -14q-4 -10 -5 -17q23 -16 23 -47q0 -18 -14 -59l-15 -49 q-53 -139 -73 -377l-21 -254q-10 -8 -16 -10t-11 -5l-18 95q0 66 -33 106l4 203q-27 -94 -26 -209l6 -102q4 -37 6 -53.5t10 -43.5q-35 -23 -47 -61q-18 0 -29 55q-6 53 -40 45l-9 -45l-8 -71l-29 12q-16 8 -32 2q-12 -6 -13 -19l4 -16v-14q-12 2 -19 33.5t-24 39.5l-73 -34 l24 -17q-12 -14 -67 -30q-53 -12 -58 -17l84 -6q-51 -16 -98 -24.5t-106 -8.5q-125 0 -247 44t-242 149.5t-173 289t-53 408.5q12 76 38.5 154t69.5 157q16 10 52 58.5t52.5 67t92.5 87t243 146.5t328 78q25 0 55.5 -1t78 -12.5t75 -21t66.5 -29.5zM580 1532l79 29 q41 14 66 45q-39 -6 -82 -25.5t-63 -48.5zM350 1376l6 -4l172 127q-39 0 -96 -47zM201 936q-6 -35 -10.5 -67.5t-4.5 -71.5q0 -168 76 -310.5t157 -200t126 -84t97 -51t124 -24.5q66 0 127 37l-33 2l-43 -2l-43 -2h-24q-150 16 -284 119.5t-183 242.5l8 -4 q-39 61 -54.5 118.5t-21.5 102.5t-6 84q0 70 8 126.5t40 156.5t99 201q-84 -53 -117.5 -210t-37.5 -163zM369 1188q-27 -57 -47 -148q-6 -41 -10.5 -80.5t-4.5 -82.5zM86 1010l-16 -43l-9 -43q2 -14 5 -19zM109 961q-10 -39 -16.5 -84.5t-6.5 -92.5l6 -82l2 140 q0 35 2.5 54.5t12.5 64.5zM995 885q16 -6 43 -6q18 0 19 10l-37 6q-19 0 -25 -10zM1087 885q10 -6 23 -6l29 4l26 6h-39q-29 0 -39 -4zM1208 702q-18 -53 -26 -125.5t-8 -183.5l10 6q16 131 21 174t20 129h-17zM1184 696h-25l-37 -137q-8 -45 -9 -71.5t-1 -43.5 q0 -53 10 -79l13 16zM334 694l-6 -24q0 -18 10 -52l12 -51q20 -20 54 -80.5t77 -66.5q-47 53 -78.5 113.5t-68.5 160.5zM92 657q0 -86 32 -165.5t93 -153.5q-55 90 -85 162.5t-40 156.5zM512 385l43 -41v10l-20 17q-9 12 -23 14zM1159 330l6 -15l13 -4q12 23 8 43 q-12 6 -19 -4zM248 338q33 -61 94 -111.5t129 -74.5l-80 59zM1130 311h-8l-10 -28h14zM1184 279h-10v-15zM866 82q23 0 31 14zM633 53l69 -10l68 -4q47 0 76 10l-60 4h-51h-102z" />
<glyph unicode="H" horiz-adv-x="1794" d="M1556 1620q10 -10 25 -14q6 2 12 6t19.5 19.5t27.5 19.5l21 -13q0 -74 -9.5 -130t-43.5 -230l-70 -395l-35 -11l31 -49l-41 -372q0 -51 -6 -164t-6 -178l16 28q0 145 12.5 282.5t69.5 432.5q0 -29 -10 -160t-10 -237q0 -90 -7.5 -185.5t-13.5 -195.5q-6 -12 -22 -15 q-6 2 -11.5 3t-21.5 12l-35 14q-10 0 -23 -22l-16 -19q-8 -12 -23 -10l-12 76l-4 86q0 76 14 207l15 206l22 127l9 86l-7 66q-12 -2 -22 -31q-4 -27 -10 -31l8 -8l-25 -33q0 -45 -11 -135t-18.5 -154.5t-13.5 -153.5t-6 -144q0 -98 8 -164l-12 -4l-12 2q-6 23 -24.5 44 t-24.5 40q-4 -4 -15 -51q-6 -43 -35 -52h-36l-41 -4q-20 0 -29 4l2 27v20v56l6 88q6 37 35 65l-21 41l50 418l-19 12l-43 2l-49 3q-115 0 -256 -25l-227 -41q-41 -74 -62 -201l-35 -221q-6 -41 -10 -74.5t-12 -58.5q-6 -37 -31 -80l-51 23l-29 -52l-35 29q0 72 43 243 t43 234l-6 70q-41 -47 -41 -154q0 -109 -22 -151l-37 -160q-12 -66 -43 -113q-4 6 -21 11l-30 -4q-4 2 -9.5 4t-11.5 8q0 45 15 139l14 135l-6 62l-23 -33q-12 -80 -23.5 -151.5t-29.5 -168.5h-18q-6 10 -7 23l9 27q-8 12 -17 16q-10 0 -15 -26.5t-15 -26.5l-19 6l-4 37 l37 35l-25 32q43 186 88 451l84 532q20 -10 21 -45l-2 -35q0 -20 -4 -32q0 -133 -49.5 -347t-65.5 -310.5t-16 -155.5q41 127 79 323l62 301q2 16 12 74.5t10 99.5q0 70 35 111q-6 29 -10 58.5t-4 64.5l8 137l8 137l-2 43q-16 -51 -28 -164l-23 -219l-31 -4l31 301l4 135 q18 25 57 25l43 -2l19 -14l18 16q10 16 31 10l12 -51l4 -55l-2 -64v-24q0 -12 -4 -41q0 -43 9 -74l12 53l8 54h33q0 -80 -26.5 -248t-26.5 -209q20 8 26 65q0 25 4 45.5t8 28.5l64 520q10 8 15 8t9 -10l13 -31l4 -32l-2 -43l-4 -41q0 -29 10 -47q12 23 18 80q0 55 23 90 l22 -23l3 27l28 -27l-78 -565l29 -27q63 18 311 41l254 21l23 30q6 66 14 149t21.5 165t34 151.5t42.5 71.5v-90q10 4 21.5 54t50.5 44q0 -98 -41 -315l-39 -232l8 -14q2 8 21.5 21.5t19.5 25.5q-2 6 -3 11t-11 14l45 288q18 115 68 211l14 -6q0 -92 -10 -155.5 t-28.5 -156.5t-51.5 -239l35 -28q27 12 39 36.5t12 57.5l-2 41q0 29 -4 45l41 237q14 6 16 21q0 37 -4 57q12 33 18 72zM469 1624q6 6 11 8t9 4q12 0 19 -18l6 -43l-8 -131q-18 6 -31 24l-8 50l2 53l2 31zM1702 1620l16 -23q0 -131 -41 -313l-90 -412h-12q25 227 51 353z M442 1270l7 30zM430 1149l2 53zM999 1010q12 4 29 -2q18 -6 21 4l-19 6l-18 8q-13 -8 -13 -16zM1444 1018l-21 6q-10 -8 -10 -14l4 -29q0 -16 -12 -20q4 -8 20 -17q10 0 21 19l8 28zM1071 985q-86 0 -159.5 -8t-135.5 -27l37 -4l74 8l71 9l31 -2l45 -3l45 -2q47 0 74 21 l-31 12l-26 15q-13 -1 -25 -19zM727 999l-61 -14q-43 0 -58 -24l41 -3h58q23 6 49 10.5t104 30.5h-133zM1180 973q-6 -4 -11 -21q6 -12 11 -16l18 14q-8 8 -8 13q0 10 -10 10zM442 936v-41q6 4 11 18q-2 10 -4 13l2 10h-9zM424 852l25 12q-4 8 -17 2zM1169 864 q-240 0 -365.5 -20.5t-221.5 -59.5l32 -4q31 0 91 15l81 16q29 0 37 -4q12 0 33 -14q80 0 173 11t147 17l-15 8l23 23zM424 762v-19h18l7 13zM1235 502l2 24zM1225 469l-31 -139l-25 -154q18 -10 23 -45v-25q0 -25 6 -36z" />
<glyph unicode="I" horiz-adv-x="696" d="M520 1599l17 9q12 10 24 6l6 -55l-8 -76l-6 -68v-33l8 -24q27 33 27 125q0 90 37 127q12 -10 17 -19.5t20 -9.5q0 -201 -31 -465l-58 -502q0 -164 -12 -294t-49 -250h-18l34 256q6 59 10.5 117.5t4.5 117.5l-23 -33l-55 -487l-31 -31q-12 6 -12 31q0 20 -10 29 q-16 0 -20.5 -27t-18.5 -33q0 35 12 121t19.5 142.5t7.5 78.5q-33 -57 -50 -159l-18 -146l-8 -6q0 76 8 162t27 180l73 385q37 197 37 342q0 43 4 83t22.5 151.5t18.5 177.5zM332 1606l37 4q29 0 39 -31l36 31l21 -31l18 18q-16 -193 -36.5 -368.5t-53.5 -399.5l-110 -809 l-21 -28q-8 -6 -20 0l22 170l8 168h-18l-33 -162q-18 -115 -39 -176l-22 -4q-10 -6 -23 0q0 117 28 353.5t28 309.5l-11 -10q-37 -244 -53 -355.5t-49 -305.5q-18 -6 -27 10q-6 12 0 30q43 213 68 418l63 570q39 379 70 571l25 16q8 4 16 2l-10 -94q0 -39 -17 -63l2 -33 l2 -37q0 -27 -2 -66.5t-8 -93.5l-8 -110l22 37zM354 1587q0 -23 -12 -69l-10 -60q0 -18 12 -41l12 62l15 61q-1 29 -17 47zM643 1362l-10 55l-12 -217zM399 1286l-14 4q-14 -49 -30.5 -190.5t-32.5 -206.5l22 18zM303 1219l-33 -230l-6 -119zM539 1219l-2 -27l-5 -31 q0 -12 11 -20l4 47q0 23 -8 31zM596 1042l-4 19l4 -29v10zM580 920q0 -41 -15 -111l-14 -113l2 -37l20 109l9 109zM250 799l4 28z" />
<glyph unicode="J" horiz-adv-x="1140" d="M995 1599l33 -18q8 -29 14 -104l9 -88q8 8 20 57l16 53q0 -164 -22 -291q-10 -82 -24.5 -160.5t-41.5 -209.5l-75 -435q-27 -199 -184.5 -445.5t-405.5 -428.5q27 37 176 177t174 233q119 180 185.5 397t103.5 481l67 502q-29 -117 -91 -450.5t-115.5 -521t-157.5 -367.5 l-82 -109l-29 14q-8 -10 -8 -14v-18q-8 14 -35 14q-14 0 -20 4q-4 -4 -2 -29q6 -16 30 -16l31 4q-12 -10 -87 -108.5t-140 -98.5q-47 -51 -103.5 -87t-134.5 -73q4 16 59.5 48t49.5 67q-49 -43 -88 -62.5t-60.5 -26.5t-58.5 -15q16 25 78 63l69 45l-16 8q-14 -6 -20 -10 l-23 -10l47 39q16 12 41 14l19 -4q10 0 14 12t-2 21q115 94 183.5 223t84.5 270l21 -4l8 31q0 12 -8 23l59 303q8 -20 27 -15l49 242q10 49 14 75.5t14 121.5h-41q10 94 27 174l33 178q-10 16 -39 29l-57 8l-54 -2l-49 -2h-24l-27 2h-20q-33 0 -72 -6.5t-118 -29t-136 -22.5 l-29 2l-24 2q41 37 95 46.5t90 13.5t79 4l82 12l96 4h115h39h41l24 4l-20 21h-152h-113t-129 -8q-41 0 -76.5 -5.5t-125.5 -27.5q61 49 178 67l334 31q20 0 30 -4h37h25q16 0 35.5 5t42.5 20q-96 12 -189 12q-92 0 -128 -3t-124 -15.5t-227 -47.5q6 14 14.5 22.5t-0.5 14.5 l15 13q2 2 4 14l-29 14q6 10 38 17.5t34 21.5l-6 17h-74q121 49 275.5 73.5t322.5 24.5q119 0 168 -3.5t147 -13.5zM606 864h10l-12 -188q0 -37 -9 -69t-30 -68q0 59 11.5 144t14.5 106.5t15 74.5zM319 -408l5 -6l-50 -49zM547 1540l225 -10l-57 10l-58 2l-55 -2h-55z M825 1540v-18l99 -4l-52 12zM360 1530q0 -12 11 -12l41 8zM287 1513l51 -14q0 16 -35 23zM1006 1503h-11v-26h11v26zM858 1430h-16l16 -13v13zM836 1366l47 -10q0 12 -21 12zM821 1335l15 -16v10zM836 1239l-62 -334l-65 -397q-18 -109 -31.5 -181.5t-34.5 -158.5l90 326 q4 12 21.5 96t27 135t15.5 115.5t6 132.5q2 8 9 52t13 79zM713 1219l-43 -123q-6 -29 -10.5 -56.5t-4.5 -58.5l2 -43zM961 1092l-11 -27l8 2l7 6zM969 1559v8l-86 8zM639 584l-6 -35l-4 -27l6 -18zM553 365l4 65l-10 -70zM539 256h8v20h-8v-20zM526 199v-13l4 29zM553 178 l-59 -198l38 112q6 16 12.5 42t8.5 44zM580 -106q86 96 120 225q-20 -27 -32.5 -47.5t-20.5 -34.5zM360 -281l5 21zM1018 1559h-23l29 -5z" />
<glyph unicode="K" horiz-adv-x="1564" d="M614 1604l-116 -785l14 -20q152 125 283 315l221 318l51 102q25 41 68 41v-25q0 -76 -86 -202l-93 -142l-323 -411q0 -37 18 -37l107 119q102 111 110 149l19 57q8 18 31 2v33q102 96 176 238l120 229q12 -6 15 -22l-6 -27q-18 -12 -21 -35l6 -18l-82 -156q41 41 103 146 l76 124h24q6 -12 -4 -31.5t-10 -33.5q14 0 36.5 37t47.5 43l-15 -66q-98 -119 -194 -293l4 -10q45 53 80 99.5t75 106.5t74 155l-12 -7q12 6 19 7q10 0 14 12h14q-12 -49 -57 -133l-53 -101q31 35 69 97l82 141q18 0 21 -27l-2 -16l-5 -16l-86 -138q-41 -63 -98 -108l-10 28 q-68 -63 -213 -243t-223 -254q96 -182 254.5 -349t347.5 -268q2 -6 5 -10t19.5 -18.5t12.5 -36.5q-23 -25 -45 -25q-16 0 -66 43q-41 41 -63 47q-8 -20 18 -49q31 -25 31 -39l-6 -18q-166 96 -317.5 264t-274.5 371q0 -61 24.5 -103.5t173.5 -226.5l406 -422l-12 -12 q-137 68 -267 201l-209 217q12 -45 50 -93l106 -118l64 -47q25 -18 26 -52q20 -20 94 -59q72 -31 93 -72l-21 -6q-18 0 -59 21l-49 20q-14 0 -17 -20l6 -33l-59 31q0 -14 29.5 -34t23.5 -44q-117 41 -233 164l-226 241l-254 375q-45 -266 -62 -364.5t-52 -280.5l-19 -16 l-8 86q0 39 2 61.5t12.5 84.5t14.5 99t4 70l-2 43q-8 -27 -26.5 -111t-33.5 -147l-40 -205l-21 -6q-10 0 -27 12l-14 31q55 258 55 518q-8 -31 -26.5 -123t-32.5 -162l-43 -235l-12 -16l-8 79q0 16 2 45t8 70l12 107l-6 55l-51 -201l-33 -166q-45 10 -45 58l8 55q8 37 4 59 q-10 -12 -23.5 -79.5t-37.5 -86.5q12 61 43.5 261t34.5 217l86 571q43 291 65.5 402.5t26.5 115.5q8 0 10 -2l-59 -309l-66 -465q-20 -154 -41.5 -299t-36.5 -213l10 -8q43 125 86 455.5t89 451.5q0 104 10 173t20 113t29 105q23 -27 22 -67q0 -29 -4 -41l-6 -37l-90 -588 l6 -16q0 -10 13 -17q39 88 69.5 365.5t73.5 386.5q10 -12 16 -35l6 -43q0 -39 -10 -96l-8 -74l-111 -766l47 60l146 968l10 8l14 -55l5 -61q0 -53 -15 -154l-14 -143h10l74 428q0 -94 -32 -324.5t-32 -298.5l111 637zM1303 1294q10 -33 -35 -77l-54 -58q6 37 37 74z M1165 1118l-67 -74l63 80zM1208 100l-18 9zM899 1184l8 22q-10 -6 -12 -10q-6 -10 4 -12zM475 928h10v57h-10v-57zM573 707h13q10 4 18 14q6 12 0 18q-31 1 -31 -32zM754 651l2 6l-29 29l-2 -6zM195 514l16 156l-21 -160zM604 643q117 -184 220.5 -312t228.5 -212l-193 229 q-96 123 -162 230q-8 25 -24.5 38t-40.5 13l22 28q-4 6 -10 8.5t-8 4.5q-16 -4 -21 -8zM848 1126l-88 -96q-31 -37 -41 -82l86 103q37 42 43 75z" />
<glyph unicode="L" horiz-adv-x="1277" d="M694 1640l29 -92q4 6 6 15.5t4 17.5q0 31 21 33q10 -10 10 -51l-29 -4l39 -43l-76 -580q-37 -301 -36 -539l18 -18l205 12l188 15h49l68 -9l14 -22q-6 -12 -20 -13l-35 7q-12 0 -23 -17q6 -6 52 -16q43 -6 43 -27q0 -14 -11 -30l-16 -15l-154 12l-176 3h-49l64 -15l71 -4 h68q66 0 101.5 -7t74.5 -40q0 -31 -37 -37t-31 -37l-200 -20q16 -16 94 -17q80 0 80 -45l-6 -24q-16 -27 -58 -27l-26 2l-29 2q-18 10 -55 21l-60 6l-63 -2q-41 0 -64 -4l-63 6q-25 6 -51 26l-52 -22l-49 -6q-45 0 -80 28l-22 -28l-156 -19l-155 -8l-45 2h-25q-6 35 14 47 l39 9l37 -3q25 0 39 -4q29 0 47 25l10 -10q4 23 -32 22q-35 0 -48 21l29 30l-20 9h-27q-12 0 -18 10q-6 39 45 46t53 36l-2 22q-12 12 -24.5 17.5t-6.5 25.5l29 11q20 6 22 22l49 342q20 129 31.5 210t24 190.5t18.5 207t6 179.5l-2 26l-2 37q0 37 23 53q16 0 24 -20l13 -29 l41 51q25 -43 24 -104q0 -35 -12 -110.5t-12 -114.5q-25 -131 -54 -463l-30 -383l20 18l47 348l49 422l43 398q6 18 23 20q12 -6 12 -10l21 -21l12 21l18 -21l11 33q16 -12 33.5 4t35.5 10zM584 1530v37v-37zM639 1520l4 28zM596 1464h10l6 70zM635 1487q-14 -18 -14 -57 l2 -23l2 -16zM614 1362q-25 -121 -39 -258t-14 -266zM532 1241l-10 -18q16 -27 39 -17l-8 21q-1 16 -21 14zM668 1100q0 -10 -2 -34t-9 -56l-10 -82v-25zM342 1042l4 41zM334 973l4 28zM643 844l4 45zM635 805l-72 -408l21 -18q0 31 6 77t26.5 161.5t20.5 150.5zM532 621 l9 129l-19 -175zM477 643l4 23zM453 459l24 162zM500 444l6 -4l8 111l-6 4zM283 481l4 56zM977 195l47 -23l41 -8q18 0 29 10q-23 14 -60 14zM291 158v-23q6 -12 10 -16q61 0 100 47l-47 4q-28 0 -63 -12zM346 100q10 6 37 11l35 -7l35 -6q25 0 43 19q-16 10 -52 14l-47 -6z M514 125l-6 -8l29 2q-17 0 -23 6zM680 119l6 6l-51 4zM893 119l-51 10z" />
<glyph unicode="M" horiz-adv-x="2269" d="M612 1602l43 -68l-4 53q0 18 11 29q16 -6 31.5 -40t21.5 -38l-4 59l4 -6l41 6l102 -391l105 -364q53 -172 127 -355l18 -22l12 12q-16 59 -35.5 129t-42.5 133q-25 84 -61 150l-92 350q-35 135 -80 272q23 -51 49.5 -127.5t52.5 -162.5l105 -347q49 -168 110 -301 q-8 -31 19 -45q78 100 162 230l139 225l172 307q27 59 50.5 100.5t39.5 69.5l76 137l24 5h21q12 -12 12 -37l-4 -56q0 -20 10 -32q20 14 21 55l-2 37v33q23 6 40 -3.5t36 -31.5q10 0 16 12l14 31q27 -10 27 -54q0 -37 14 -55q0 -47 -6 -143t-6 -141l-10 -256q-16 -6 -36 1 t-22 29l2 15l7 51l2 98l-7 141l-22 -24v-410v-411q0 -68 2 -203t2 -203l-12 -20q-16 12 -33 12q-23 0 -37 -23q-16 80 -33 236l-20 225l-15 2l-12 484l-14 14q-39 -45 -144 -215l-118 -191l32 15q-90 -172 -171.5 -291t-188.5 -215q-6 4 -10 20l8 25l8 24q-8 12 -12 17 q-27 -37 -45.5 -55.5t-33.5 -29.5t-30 -20l-20 37q-10 31 -29 37v-90q-14 0 -28.5 29.5t-32.5 36.5l-10 -64q-23 -2 -41 21l-27 49l-143 417l-132 402q-35 -111 -96 -398.5t-106 -431.5q-12 6 -17 25l6 43q0 14 -4 23l-41 -91q-16 -6 -41 19q-18 25 -28 27q-6 -2 -11.5 -6.5 t-13.5 -16.5l6 -25l23 -28q10 0 14 4q6 8 17 -4q-2 -23 -27 -35l-45 -12q-4 6 -1 19t-5 22q-4 -4 -8 -9.5t-11.5 -26t-23.5 -24.5l-17 6q31 100 54.5 195.5t62.5 280t84 454.5q-37 -117 -70.5 -263t-49 -212t-46 -199t-74.5 -274q-20 -6 -31.5 -14.5t-27.5 -4.5l-2 35 q0 51 30.5 139.5t53.5 220.5t127 572l117 508l18 -12l17 96q8 47 49 66q14 -8 20 -17.5t21 -9.5l14 27l41 -15q0 27 31 27q12 0 28 -12zM2050 1602q14 0 18 -31q0 -27 27 -29l14 55l19 -49q6 -25 6 -65l-2 -58l-2 -57l-21 -29l-4 -378l-4 -275q0 -94 3 -188.5t5 -149.5 q0 -72 6.5 -115t32.5 -182l-18 -18q-16 8 -27 49q0 33 -8 45q-12 -12 -12 -51t-10 -51q-14 23 -27 88q-8 61 -25 92l-8 -41l4 -51l6 -43q0 -43 -41 -52l-22 56q-10 98 -14 148t-4 118l-5 301v285h41q23 0 31 -15q0 125 21 369zM2148 1354l-2 -250l-2 -248q0 -78 6.5 -215 t6.5 -197q0 -84 13 -164.5t42 -193.5q2 -8 -5 -19.5t-22 -11.5q-25 119 -41 287q0 59 -5 176t-5 150l6 374zM1769 434l7 -14zM1769 371l37 -353q-31 4 -30 54q0 49 -7 61v238zM305 68l4 -17h-14zM553 1368l-6 -33q0 -37 16 -45q0 25 12 49l-8 19q0 10 -14 10zM1769 1354 q-29 -29 -73.5 -140.5t-65.5 -138.5l-65 -98q-37 -61 -37 -107l69 127l95 166l77 137l11 31q-1 13 -11 23zM498 1556l-9 -79q0 -25 5 -37l18 -29l2 43q0 29 4 45q0 37 -20 57zM616 1346l-10 -25q29 0 31 10zM457 1313l-6 -64q0 -25 16 -35l8 9l2 49q0 29 -20 41zM643 1231 q16 -92 36.5 -166t57.5 -139q-4 33 -28.5 104.5t-24.5 114.5l4 37q0 18 -20 32zM444 1206q-27 -178 -41 -239.5t-22 -106.5l-76 -358l86 364q0 57 33 178t33 162h-13zM1847 1190q-16 -12 -20 -31q0 -18 20 -26l-2 -240l-2 -248q0 -66 2 -164t2 -129q0 -45 7.5 -105.5 t19.5 -137.5q0 49 -4 217t-4 290l-6 408l22 27q-23 12 -22 57l2 43q-1 31 -15 39zM1530 754l117 164q66 100 96 188zM612 1083q51 -268 113.5 -480t157.5 -372l-109 328l-100 297l-53 227h-9zM508 1079h-10q-4 -4 -2 -28l12 -17v45zM481 979l-108 -545l63 285q29 135 45 260 zM2001 862v-207h12v45l2 50l-2 63q0 24 -12 49zM1243 453l8 -7l90 140l99 164l49 65q14 23 10 43q-43 -59 -109.5 -172t-96.5 -159.5t-50 -73.5zM1427 844l-4 10l4 -18v8zM1366 745l2 -6l23 47zM1522 735l-41 -49q-16 -23 -8 -41zM913 641q4 -18 49.5 -124.5t45.5 -145.5 l-54 121zM1288 618h-10l-61 -104zM2019 559l-10 14l4 -59zM1481 565l-35 -49q-10 -16 -14 -39l30 47q13 21 19 41zM1202 477l4 29l-30 -68zM1792 1556l-143 -311l-191 -350l166 285q59 100 104.5 194t71.5 174zM891 424l41 -82q20 -39 14 -76q-23 18 -33 76.5t-22 81.5z M1378 420l-47 -72q-41 -57 -53 -90q33 29 55 72zM580 1542l4 -90l10 -12l6 43q0 36 -20 59zM377 297l-10 -29q-8 -16 0 -28zM696 1421q12 -111 58 -264l96 -350q12 -16 18 -66q0 -45 23 -63l-76 326q-58 259 -119 417z" />
<glyph unicode="N" horiz-adv-x="1794" d="M369 1638q31 6 72.5 -31.5t64.5 -41.5l20 6q0 12 -20 24q-14 12 -19 25l25 2q27 0 52.5 -14.5t51.5 -40.5l27 -54l231 -200q127 -119 185 -232l250 -313q18 35 26 109l19 135v-31l-8 -107l-9 -106l2 -31q20 43 35 111q10 68 10 143q0 47 13 150l12 114l-2 29l-2 27 q-16 -39 -29 -121l-14 -137q0 45 4 133t4 129q0 70 5 105.5t17.5 91t24.5 67.5q10 6 29 10q4 -18 8 -51t4 -72q0 -90 10 -123q27 23 27 68l-2 19l2 34l-2 49l2 43q4 14 16 33q12 4 24.5 -18.5t31.5 -22.5l8 33q6 31 31 31l2 -25q0 -25 -3 -39t-12.5 -51t-13.5 -57.5 t-4 -40.5l-19 -133q-6 -51 -30 -95l6 -30l2 -29l-8 -72l-6 -79l2 -37h12q4 6 14.5 112.5t67.5 130.5q0 -162 -23 -336l-45 -385q-23 -207 -22 -325q14 25 23.5 64.5t9.5 90.5q0 96 16 216l35 301l53 413l41 350q-6 12 -29 7l-57 -377q-8 12 -2 18q-6 6 -19 2l-22 -18v-12 l80 436q12 -18 31 -19q33 0 53 4l16 -65q-33 -166 -65 -447l-52 -497q-12 -117 -26.5 -232.5t-32.5 -224.5q0 -35 -18 -57l-62 -49h-8l2 63l2 35l-6 100q0 23 -7 45.5t-14 38.5l-8 -10l-14 -264q0 -16 -23 -23q-25 0 -39 -4l-45 43q0 -27 -20 -35q-18 -6 -37 0 q-16 88 -93 217t-93 172q-25 0 -25 -20t14 -37l37 -65q16 -25 23 -62q-123 242 -252 430.5t-307 374.5l-23 -43q-31 -238 -58.5 -452t-68.5 -496q-12 -6 -33 12q47 201 82 449l70 563l-23 -45q-29 -119 -51 -303l-39 -349q-18 -180 -41 -239l-24 -68h-15l-12 31 q-4 -4 -7 -11t-5 -18q0 -25 -25 -28l17 147l-13 -6l-10 -2q-14 0 -24 16l-13 45l-4 4q-12 -6 -18 -41q-2 -29 -25 -34q-6 -10 -6 -23l8 -37l8 -35q0 -18 -28 -20l-37 -35l-8 12q0 72 31.5 270.5t31.5 262.5q-29 -39 -28 -121q0 -82 -17 -115l-45 -239q-23 6 -45 26l-31 31 q74 266 117 526.5t43 511.5l10 41l2 39l-4 70l-2 49l-102 66q-29 23 -41 55l143 -80l8 21l-4 16q-2 6 -3 11t-13 16.5t-43 28t-43 36.5l53 -14l53 -8q12 18 -7 35.5t-19 29.5l18 -8q12 14 18.5 33.5t28.5 15.5q6 -14 33 -27l39 -14v37q6 -6 16 0q11 6 11 18zM301 125 l-12 -100h-23l-6 24l6 35q6 20 23 41h12zM35 53l18 -4l-6 -29l-12 -20l-8 31q0 14 8 22zM80 53l10 -4h16q10 0 11 -16q2 -25 -15 -27q-18 -8 -26 19zM311 1495l-10 10l10 -18v8zM633 1487l57 -57q16 -12 25.5 -18.5t38.5 -22.5l-76 86q-12 12 -45 12zM1411 1483l6 -27 l-8 -39l-6 -37l2 -18v55zM506 1430l-4 -39q0 -18 8 -21l2 39zM301 1399v-19v19zM426 1399l-10 -6q0 -10 2 -13h8v19zM670 1358q0 -20 16 -37l37 -29q-6 39 -53 66zM502 1327v-27l8 11zM293 1323l-27 -315l4 -9l23 134l6 114zM395 1305l-24 -9q-4 -10 -2 -18l12 14l27 -28 q12 6 12 30q-11 17 -25 11zM829 1305l54 -54q-6 16 -20 34t-34 20zM1468 1292q-12 -16 -12 -39q0 -18 12 -28v67zM621 1274l-9 -49l154 -158q53 -57 113 -131h16l8 18q-2 2 -6 11.5t-14 19.5l-23 31q-43 12 -66.5 41.5t-38 50t-36.5 59.5q14 -10 22.5 -21t22.5 -9zM860 1141 l-88 110l-4 -4l88 -110zM399 1225l-61 -457l2 -43q0 -47 -8 -92t-15 -72l-20 -139q37 111 49 196l41 312q25 227 35 227l18 -12q4 -4 9.5 -5t11.5 -3q0 -70 -14.5 -189t-59.5 -366.5t-45 -350.5q8 53 23.5 131t40.5 177l67 317q10 57 16.5 126t6.5 132l-43 62q-23 -8 -35 18 q-7 31 -19 31zM993 1122l-30 37l30 -45v8zM1460 1106v39l-14 -39h14zM807 829l-221 252l-4 -12q66 -59 168 -195l129 -159l-31 67q-18 41 -23 70zM1020 1081l127 -233q33 -55 65.5 -107.5t73.5 -105.5l10 49l-133 211q-67 110 -143 186zM901 928l301 -488l8 31 q0 16 -24.5 52t-24.5 59l-153 247q-49 86 -60 86l-24 -4q-10 8 -11 17h-12zM256 852l6 22zM909 721l-8 -27q0 -43 31 -49q12 10 12 23q0 14 -8.5 25.5t-26.5 27.5zM967 639l4 6l-13 21l-6 -4zM270 627h-8l4 -19zM1313 627l-4 -41q0 -27 18 -31v27q0 31 -14 45zM1298 459 l11 -37l4 4v20q-5 13 -15 13zM1389 426v-49l4 10q0 14 -1 23.5t-3 15.5zM1241 414h-12l-6 -19l6 -26l18 -23zM1378 342q-14 -39 -14 -70q0 -29 8 -70.5t15.5 -81.5t7.5 -50l-2 -37h12l-10 57l-2 64v73l-2 64q-1 22 -13 51zM369 1620l43 -35q37 -25 37 -53zM373 102l-4 4 l4 -12v8zM289 1571q2 -8 17.5 -20.5t35.5 -18.5q0 12 -27 24zM1415 1495l4 23z" />
<glyph unicode="O" horiz-adv-x="1687" d="M766 1612q111 29 215 28q168 0 308.5 -68.5t205 -165.5t91 -174t26.5 -153l-2 -49q12 -53 12 -104q0 -84 -23.5 -167t-70.5 -175l8 -25q0 -20 -14 -43l-23 -43l-207 -254q-133 -143 -270 -168q152 92 288 229.5t224 299.5l-16 4q35 113 50 189.5t21 132t6 110.5 q0 33 -2 66.5t-10 84t-33 105.5l-51 55v-39q-10 0 -16 -8q0 -12 14 -14l29 -2q41 -139 41 -285q0 -229 -99.5 -431t-285.5 -349q-123 -78 -210 -122t-190 -61q-6 18 -18 19l-19 -12q-10 -10 -20 -9l-172 21l35 -35q-168 0 -301 132t-190.5 263t-57.5 240l8 147l8 146l54 174 q27 88 94 143q-37 -88 -65.5 -161.5t-40 -114.5t-17.5 -84t-6 -86q0 -125 20.5 -225.5t90 -243t257.5 -234.5q-168 129 -252 316.5t-84 402.5v51q0 12 2.5 38t27 154t215 316.5t415.5 237.5zM1118 1585l-78 2q-39 0 -55 4q-51 0 -88 -14l80 6q125 0 227.5 -46t200.5 -138 q-37 74 -106.5 111.5t-180.5 74.5zM580 1507q6 -25 -31 -43q-37 -12 -37 -43l137 82q29 16 43.5 26.5t59.5 47.5l-95 -27q-42 -12 -77 -43zM766 1432q-166 0 -272 -205l-88 -197q-27 -121 -27 -217q0 -143 48 -261t153 -192q12 -18 36 -18q18 0 19 18q-72 51 -133 138 q-51 80 -84 180q-12 74 -12 147q0 115 30.5 214.5t100.5 185.5q-39 -92 -67 -205t-28 -205q0 -98 25 -183t131.5 -204t316.5 -119h25q86 0 150.5 64.5t143.5 199t79 326.5q0 201 -111 365l-33 24q-20 23 -43 12l-45 31q-14 10 -16 35l-18 -6q-12 0 -42 30.5t-47 30.5l-8 -22 q-27 0 -40 3t-58 17.5t-61 14.5zM1276 1370l-2 -20q0 -31 41 -86.5t43 -73.5l-8 -27q0 -18 20 -20q31 -84 31 -197q0 -88 -11.5 -149.5t-18.5 -89t-25 -76.5q39 68 57 160t18 198l2 43q0 66 -47 167t-53 155q-12 -8 -29 2zM418 1366q-102 -94 -162.5 -230.5t-60.5 -275.5 q0 -115 43 -229q-8 37 -14.5 84t-6.5 90q0 150 52.5 284t148.5 277zM266 956q-6 -33 -10 -65.5t-4 -69.5q0 -92 24.5 -184t75.5 -180q-90 193 -90 413v54zM1413 649l-184 -246q-6 -10 -37 -23t-25 -40q84 37 139.5 113.5t106.5 195.5zM1300 575l7 -4l16 25l-4 6zM305 424 q31 -92 114 -158.5t187 -85.5v8l-61 29q-31 16 -36 32.5t-20 12.5l-12 -4q-43 23 -86 72zM434 360l-20 27zM731 317l-18 7zM498 301l47 -35q0 14 -17 23zM860 160l19 -8l16 6q12 6 29 2l73 24q37 18 56 49l-105 -36zM657 172q0 -23 31 -27q29 0 51 15zM551 39l-31 16v-16h31 zM868 1358q90 0 163 -29t108 -100q43 -31 67 -99l51 -124l9 -111q0 -154 -56.5 -288t-169.5 -232q66 41 105 137l76 188q6 37 10 75t4 83q0 117 -37 222.5t-113 183.5q-18 12 -45.5 25.5t-64.5 27.5z" />
<glyph unicode="P" horiz-adv-x="1433" d="M233 1599q98 16 194.5 25.5t139.5 10.5t70 1q233 0 412.5 -67.5t245 -166.5t75.5 -147l8 -92q-8 0 -12 4q-10 -10 -8 -22q33 -10 33 -53l-9 -56l-8 -47q-37 -172 -235 -264l-344 -141l-54 -9l76 25h-82q-37 -6 -85 -10t-95 -21q33 -14 53 -14q23 0 60 10l65 10l-80 -24 l-61 -4l-33 2q-12 -6 -12 -21l2 -20q6 -6 29 -8q6 23 34 28l54 7l43 -7q33 0 94 25l80 31l121 51l131 51q-45 -49 -105 -78l-205 -78l-278 -67q-12 -47 -26.5 -198.5t-28.5 -211.5l-13 8q0 63 15 195l16 195q-12 -35 -23.5 -128.5t-17.5 -111.5l-8 -51l-2 -29v-29 q0 -49 -10 -75q-12 18 -37 18l-47 -6q-20 0 -33 22l-45 -26l-11 63q-18 -6 -22 -39.5t-21 -46.5l-22 23l78 450q37 221 55 376t24.5 262.5t6.5 209.5h-17l-180 -1265q-4 -12 -28 -25q-25 -8 -29 -16l24 114q-20 -6 -28 -53q0 -20 -4 -36.5t-9 -24.5q-12 25 -12 49 q0 18 6 42.5t11 41.5q0 119 3 162t11 108.5t22.5 164.5t27.5 177t30.5 204t21.5 165q23 -2 29 18l10 55l12 78q0 20 -8 37q-12 -20 -18 -49l-12 -86h-11v57l6 39l-6 31q-6 6 -16 0q-6 -6 -14 2q-12 20 17.5 39.5t23.5 38.5l-54 2q-4 25 27 37t33 26l-60 4q6 4 16.5 12.5 t29 18.5t30.5 33q-14 6 -25.5 -1t-18.5 -9t-13 -4q57 41 168 57l209 22q-29 23 -82 23l-23 -2l-18 -2l-224 -27v8zM309 18v-18h-26q0 10 5 14t21 4zM791 1516l-58 4zM340 1507l31 4zM907 1493l166 -74q98 -51 146 -116q-33 78 -106 114.5t-206 75.5zM430 1489q-6 -16 16 -16 q12 0 19 8zM666 1413l-9 -22l183 -39q98 -35 171.5 -104.5t86.5 -164.5l2 17v12q0 37 -4 49l-6 43q-59 111 -157.5 147.5t-266.5 61.5zM268 1403l8 -21l11 19zM1014 1352q98 -55 129 -163t31 -253q20 57 20 123q0 70 -20 117q-20 63 -58.5 110.5t-101.5 65.5zM500 1337 l-21 -153l-6 -117l6 -78l43 322l-6 18q-8 8 -16 8zM420 1305l4 28zM643 1333l-53 -336q-12 -96 -12 -231h84h26q84 0 162 10t149 47l27 111q6 35 8 51t2 53q0 20 -2 45t-21.5 91.5t-84 90t-285.5 68.5zM416 1223l4 57zM412 1212l-17 -73l-6 -80v-33l4 -27l25 164zM1268 1174 l-8 20l8 -35v15zM1112 932l8 98l-41 -160zM469 846l4 106l-16 -114zM457 788h8v27h-8v-27zM362 743l5 60l-9 -64zM215 739h10v19h-10v-19zM563 655l8 -18q94 0 201 27l111 32q-51 -16 -146 -26zM207 649l8 47zM344 598l6 27zM420 254q-29 -82 -29 -156l2 -30l15 36l8 68v45 q0 25 4 37zM336 1534q25 -6 57 12q-10 6 -22 6q-29 0 -35 -18z" />
<glyph unicode="Q" horiz-adv-x="1843" d="M209 1249q125 195 328.5 304.5t429.5 109.5q139 0 280 -49v28q168 0 302 -148t204 -341q25 -98 25 -199q0 -319 -228 -544l-20 18l-27 -33q-23 -27 -14 -53l274 -356v-37q-14 10 -23 19t-26 14q-12 -18 6.5 -47t10.5 -44l-56 17l6 -17q6 -16 0 -24q-25 14 -57.5 71.5 t-64.5 71.5q0 -35 55 -98.5t55 -112.5q-18 -10 -51 23q-27 31 -51 24q-4 -23 16 -57l23 -47q0 -14 -9 -25l-38 25q0 -25 -17 -25l-57 15q-53 55 -127 157l-154 220l-188 -99q-76 -35 -156 -55q-236 0 -421 78t-289 260q-41 98 -68 217t-27 244q0 74 8.5 141.5t36 160.5 t109.5 193zM915 1569l60 -10q23 -2 29 -27q0 12 16 12l22 -2q12 0 15 8q-20 4 -30.5 7.5t-27.5 9.5l-43 8zM1339 1577q141 -100 256 -236q53 -78 82 -183t29 -214q0 -117 -29.5 -237.5t-85.5 -214.5q74 106 107 242t33 304q-25 176 -129.5 329t-262.5 210zM633 1559l14 -19 l17 16q6 6 6 17zM547 1540q-195 -141 -313.5 -322.5t-118.5 -386.5l6 -20q0 63 12 125.5t54 164t133.5 212t150.5 155.5q56 37 76 72zM823 1509q129 -23 231.5 -69.5t192.5 -136.5q86 -68 131 -194t45 -263q0 -143 -39 -262q33 66 44.5 165t11.5 207l28 35l-32 6 q0 35 -5.5 59.5t-18.5 58.5t-25.5 60.5t-28.5 59.5q-84 127 -227.5 200.5t-307.5 73.5zM1102 1497l-27 16zM1262 1409l-68 33l104 -74zM276 858q0 -176 83 -328.5t241 -224.5l-145 160l6 -25q-6 -10 -10 -12q-25 33 -52 102l-59 154q-16 47 -24.5 91t-8.5 102 q0 135 55.5 264t107.5 187t84 71.5t34 36.5q-141 -72 -228.5 -210.5t-87.5 -305.5l2 -35zM920 1421q-51 20 -93 21q-86 0 -127 -30t-70.5 -54.5t-64.5 -54.5q-61 -63 -93 -164t-32 -213q0 -104 24.5 -210t67.5 -196q61 -100 157.5 -156.5t221.5 -80.5l82 34q23 12 45 43 l-114 166q-39 59 -66 136q2 12 4 14q6 6 17 0q31 -25 81 -109t84 -112q4 29 -25.5 61.5t-35.5 48.5l-31 53q-25 41 -24 64q0 20 14 37q47 -41 120 -142.5t101 -134.5q-12 45 -51 103l-74 98q4 16 -8 37l-22 49q0 14 16 25q20 -14 39 -43l35 -49q29 -14 78 -76l55 -66 l-86 131q-47 82 -47 144q16 0 30 -17l25 -20v16q23 -18 38 -35.5t38 -48.5l59 -76q45 94 45 197q0 104 -41 206.5t-87 158t-64.5 72t-54 41t-201.5 110.5q70 0 109.5 -21.5t68.5 -40t86 -61.5q86 -80 142.5 -192.5t74.5 -231.5l6 20l2 21q0 29 -16 63l-15 62l7 35 q-37 49 -62 110l8 15l11 14q-8 10 -15 12l-6 -18q-153 172 -366 235zM451 1432l4 -19l24 2q10 0 17 6l-21 6q-16 1 -24 5zM1425 1372q10 -39 52.5 -106.5t52.5 -112.5q-10 78 -35 131q-21 55 -70 88zM1468 1108l-16 33l-4 -33h20zM250 1122l-27 -28l41 -9l-4 27 q-6 10 -10 10zM1550 1044q0 -158 -31.5 -293t-107.5 -249q53 25 74.5 109.5t36.5 105.5q16 12 25 87t57 75q-41 6 -41 79q0 33 -4.5 56.5t-8.5 29.5zM1272 602l-105 127l105 -149v22zM219 672q0 -86 64 -180l127 -177q25 0 43 -31.5t28 -35.5q41 -37 86 -62l203 -77l-31 -3 q-37 0 -89 25t-74.5 32t-43.5 7q-141 80 -227 215t-86 287zM1325 573l4 -4l10 25h-10zM1292 528h11l6 7l4 4q-19 5 -21 -11zM168 498v34v-34zM1540 506q-4 -14 -34.5 -48t-24.5 -57l37 45q28 35 22 60zM1257 485l-10 -20h15zM1184 420l6 -33h14q0 14 4 23q-16 4 -24 10z M1649 68l-187 262l-10 -19zM774 260l-18 4zM1407 260q8 -23 33 -53q25 -25 41 -33zM328 223l86 -86l121 -67q29 -16 59.5 -22.5t60.5 -6.5q-82 12 -166 70zM584 219q63 -57 153 -57l37 4q-35 0 -110 27zM1407 201q10 -33 42 -74t64 -68l-57 80q-20 35 -49 62zM1157 174 l-469 -115q66 -20 123 -20q37 0 66.5 4t72.5 16.5t95.5 35t111.5 57.5v22zM858 152l-10 -11q10 2 12 4zM1276 100l131 -178h25l-7 -18q8 -10 18.5 -15.5t14.5 -17.5l-6 -16l29 -41q18 -33 41 -31q-35 109 -95.5 191.5t-150.5 125.5zM1481 27l-13 24l-6 -4zM725 1380 q4 4 16 4h25h-23z" />
<glyph unicode="R" horiz-adv-x="1466" d="M1067 1583q90 -39 147 -84q61 -43 115.5 -128t54.5 -212l-34 -18l20 -25q18 -20 33 -6l6 -43q0 -37 -25 -61l-34 -19q12 -43 -31 -82l-68 -63h-12l43 45q16 16 14 35q-78 -76 -153.5 -126.5t-177.5 -103.5q39 -90 139 -190l113 -115h18q-6 31 -68.5 81t-81.5 87l121 -119 q109 -106 187 -137v-18q-16 6 -26.5 12t-25.5 2q-12 -18 13 -53q27 -29 20 -52l-69 41q-2 -20 42 -39.5t37 -50.5l-49 13q-35 35 -201.5 177t-246.5 269l-19 -18q-6 27 -39 71l-41 62l-8 -8q53 -117 148 -230q92 -102 182 -182l256 -195q0 -16 -26.5 -20t-16.5 -33 q-63 12 -154 88l-196 164l-62 74q-23 31 -53 49q0 -31 21 -66l73 -86q27 -27 57.5 -54.5t103.5 -85.5t175 -130v-18q-139 35 -254.5 121.5t-188.5 165.5t-113 132.5t-70 106.5l-115 201q-8 -31 -26.5 -137.5t-30 -193.5t-24.5 -167t-26 -127h-8l4 33v37v20q-12 -12 -30 -65 l-19 -58q-6 25 -41 25q-23 0 -35 -25q0 23 1 33t10 43l14 78l-2 24l-82 -194l-5 15t-3 18q0 27 -6 36l-48 -30q-39 -23 -40 -54h-37l-39 -18l-6 21q0 16 14 32l35 39q-12 14 -21 21l56 356l34 297q8 84 12.5 161t4.5 165h30l3 22q0 10 -11 17h-18l4 36l2 37q0 37 -18 56 l-21 -9h-20l9 13.5t27.5 26t24.5 28.5q0 12 -45 18q-6 12 0 21l27 20l6 4l-27 23l43 23q16 10 6 30l-18 6l-68 -14q0 23 49 35q49 6 39 43h-51q145 78 303 78l49 -2q45 6 90.5 10t94.5 4h67.5t96.5 -8q35 0 83 -8.5t107 -20.5zM252 1526q8 -2 29 -2q6 0 30.5 5t44.5 23 l-26 -4q-23 0 -35 4q-35 1 -43 -26zM489 1503l7 -20q6 -6 18 0q16 2 10 26q0 12 -14 15q-23 -1 -21 -21zM973 1518q94 0 170 -58.5t141 -163.5q18 -55 19 -116l-7 -72l-8 -6l6 55q0 106 -75.5 179t-231.5 175zM410 1509h-19l6 -36l13 4v32zM463 1503l-6 6l6 -18v12z M834 1509l196 -84q-35 31 -87 57.5t-109 26.5zM369 1485l-9 18l7 -30zM987 1397q-63 45 -135 69.5t-135 24.5q-39 0 -64 -8q100 -12 185.5 -35t167.5 -72zM299 1491l12 -6zM410 1427l14 -8l10 -4l10 10zM635 1395h-14l14 -11v11zM498 1384l4 -14l10 14h-14zM678 1384l22 -16 q-10 -6 -49 -6q-35 0 -53 -12l-43 -389l-4 -78l-2 -52q0 -41 8 -66.5t33 -45.5l-19 69q2 6 6.5 8.5t6.5 4.5l20 -13q12 -12 23 -12l88 -174q49 -90 114 -143q-111 150 -186 329l10 11l21 -23l-10 66l6 22q18 -6 51 -59t41 -60l-6 33l-21 37q-12 16 0 25q8 6 33 10 q6 20 16 24l19 9l33 -13l36 -10q16 0 35 19q59 35 104.5 91t45.5 122l-6 51q-2 29 -82 96l-82 74l88 -43q43 -20 74 -62q31 -25 43 -57.5t12 -71.5q0 -47 -11.5 -82.5t-33.5 -74.5l-80 -99l92 68q25 16 37 45t12 63l-8 72l-6 76q-49 115 -167 176t-261 61zM391 1376v-26 q25 6 19 20q-13 6 -19 6zM1018 1370l61 -59q53 -47 66 -76q0 33 -20.5 55.5t-106.5 79.5zM498 1339q0 -174 -13.5 -308t-22.5 -212t-19.5 -146.5t-29 -172t-44.5 -240.5q66 287 104.5 550t38.5 529h-14zM449 1327q0 -156 -48.5 -493.5t-48.5 -446.5q111 442 111 940h-14z M406 1300l-15 19l-4 -252zM264 1108l8 -86q6 10 11 39l-7 47h-12zM1315 1094l8 -11l8 7zM1163 907l23 41l-41 -57zM211 573q-10 -119 -47 -305l-37 -217q27 55 44 111.5t28 116.5l26 329q0 102 10.5 182t28.5 154zM872 823l11 -12q12 0 24.5 8t18.5 23zM195 797l2 26z M784 811l17 -27v13q-1 12 -17 14zM965 731l26 19l-39 -19h13zM711 477l-58 109l-6 -4zM834 506l4 4l-19 18l-4 -4zM340 326l2 18zM1202 158l45 -27q37 -20 49 -35q-20 0 -49 27q-25 29 -45 35z" />
<glyph unicode="S" horiz-adv-x="1335" d="M889 1634q117 0 218 -50t169 -136v-18q-20 0 -53 32q-29 35 -52 37q12 -70 68 -129l-2 -61l-27 26l2 -61q-25 0 -46 32.5t-40 36.5l-20 -6q8 -14 27.5 -29.5t21.5 -29.5l-6 -14q-10 0 -32.5 28.5t-51.5 28.5q-37 43 -65.5 62.5t-67.5 19.5q18 -23 103 -81t85 -118l-6 -35 q-12 12 -16 14.5t-6 4.5v-49q-43 88 -124 142t-210 105l-47 -6l-52 -2h-61q-39 -12 -60.5 -27.5t-27.5 -52.5q0 -102 68 -155q63 -45 225 -133q-14 16 -112.5 76.5t-119.5 121.5q63 -84 232.5 -179t237 -144t92.5 -125l20 -80l-8 -45l-6 -47l6 -31l31 74l12 -21q6 -12 6 -37 l-2 -30l-4 -29q0 -178 -136.5 -306t-322.5 -198q-33 -6 -69.5 -10t-75.5 -4q-313 0 -512 235q0 20 -14.5 50t-12.5 49q18 -10 31 14l16 27q-45 51 -45 114l2 25l23 33q8 -14 22 -58q2 -14 8.5 -39.5t18.5 -61.5t86 -111.5t160 -106.5l10 4q-80 33 -117 79t-145 208v30h14 q47 -117 147 -208q100 -84 230 -125l59 -11l62 -4q131 0 217 66q-43 -8 -93.5 -14.5t-88.5 -6.5q-117 0 -220.5 37t-144.5 78l-86 102q-43 55 -47 93l4 24q0 23 -16 55l-15 50q0 16 21 34q6 -43 18 -69.5t78 -134.5q0 27 -8 53q-6 33 -23 55l47 -47l6 4l35 -35q2 20 -12 64 l-14 61l96 -176q41 -74 111 -110q33 -23 78.5 -34.5t82.5 -11.5h43q25 6 53.5 10.5t44 10.5t25.5 8l47 35q12 10 13 39q0 23 -9 24l-51 -59l31 90l8 66q0 37 -38 112.5t-244.5 179t-233.5 126.5q27 -29 218.5 -147t228 -184.5t36.5 -113.5l-6 -33q-18 152 -172 250l-274 144 q-150 94 -168 253q25 4 24 29l-6 19q-23 27 -22 63q0 25 2 37t14 45l33 90l39 51q0 -16 -15.5 -58t-19.5 -71q0 -20 8 -37l88 144l-18 18q8 23 24 27q4 -2 9.5 -4t18.5 -11.5t30 -13.5q14 6 18 10l-22 23q6 10 44 31.5t44 46.5q-12 6 -38 -12.5t-44 -18.5q90 72 216 105.5 t257 33.5zM1165 752q10 0 23 -13q4 -8 4 -30q-6 -6 -10 -7l-11 -2zM545 1542l4 -4l31 18l-5 5zM889 1534h-10l10 -8v8zM1006 1495l108 -76q49 -37 88 -82q-63 86 -101 116t-95 42zM672 1464q6 -8 24 -12h35v12l-41 9q-14 -5 -18 -9zM776 1456q6 -8 27 -14l39 -4h20l-39 14 l-28 6zM416 1364q-16 -8 -33 -37l-21 -45l39 45q19 19 15 37zM354 1223l4 24zM401 1161l-12 74l12 -84v10zM258 1217l-8 -21l-2 -35q0 -63 19.5 -110t68.5 -82q-47 47 -58.5 90t-15.5 77t-4 81zM358 1178l-4 -27q37 -123 162 -205l246 -133q131 -68 190 -164q-6 27 -26 53 l-47 60q-156 88 -203 116.5t-148.5 94.5t-169.5 205zM940 852l10 -4l-35 22zM1010 774q57 -82 57 -176l-2 -23l-2 -18h8l6 59q1 97 -67 158zM731 1575q109 0 204 -18.5t187 -61.5q-55 43 -131 68.5t-153 25.5q-58 0 -107 -14zM958 578l-6 -37q6 -8 11 -11q6 10 6 29 q-1 19 -11 19zM1139 530l-47 -143q18 18 28 51zM731 254l-2 -14l25 -2l45 6q25 8 53 22q109 76 155 118t46 120q-29 -96 -109 -150.5t-213 -99.5zM1079 371l-63 -90q-49 -74 -101 -93l-10 9l58 120l-78 -73l-11 -29l-8 -29q0 -10 19 -20q-39 -20 -84 -41t-86 -37 q-84 -27 -170 -27l-51 -6q-96 0 -166 42t-197 134q86 -102 199.5 -146t253.5 -44q162 0 301 92.5t194 237.5zM432 143l-47 23z" />
<glyph unicode="T" horiz-adv-x="1294" d="M145 1571q336 72 672 71l195 -6q51 0 67.5 -1t134.5 -19q0 -14 16.5 -37t16.5 -41l-41 -2q-14 0 -42.5 2t-69.5 8l-107 10l-29 -8l-38 2q-35 0 -35 -34l315 -29q-6 -18 8 -29l29 -14q-16 -10 -24.5 -27.5t-4.5 -36.5q-12 -4 -39 4l-39 5l76 -41q0 -18 -20 -25l-35 -8 l-281 22l-28 -41q0 -193 -25 -411l-51 -443q-25 -221 -25 -401q-12 -12 -34 -14q-27 0 -50 30l-10 -32q-6 -23 -31 -17l-12 82l-4 98q0 78 2 118t17.5 195.5t15.5 223.5l82 586q0 14 -37 14l-68 -528l-34 -355q0 -72 -8.5 -211t-8.5 -206q-8 -14 -22 -15l-17 4l-8 43 q0 16 -18 27q-18 -31 -39 -51.5t-56 -18.5l-22 9l-14 10q-10 -10 -15 -19q-16 0 -24.5 14.5t-12.5 41.5q0 139 10.5 273t36.5 312l93 637l-19 19q-70 -6 -92.5 -12.5t-40.5 -8.5l-133 -26l-64 16q-8 4 -10 23l6 16l-22 6q0 10 32.5 20.5t30.5 43.5l-41 28l13 19l424 73 q-6 14 -15 23q-63 0 -121.5 -2t-134.5 -10.5t-162 -42.5q-12 16 7.5 29.5t21.5 21.5q-8 6 -10 9t-2 5q8 10 16 14.5t8 14.5zM848 1542l-10 -18q6 -8 10 -8l4 4q0 12 -2 20q-2 0 -2 2zM662 1516q20 -6 22 22q-10 6 -22 -4q-8 -8 0 -18zM717 1538v-22h24v16q-16 6 -24 6z M881 1458q25 -10 59 -10l47 6l-43 12l-29 4q-16 0 -34 -12zM463 1464q-16 -6 -29.5 -8t-40.5 -2l-43 2l-45 2q-43 0 -65 -10q-25 -6 -43 -39l139 6q45 4 67.5 9.5t63.5 19.5v14zM823 1421l17 -12l2 12h-19zM874 1417v-14l80 -6l66 -4l47 6zM383 1376l70 13q-8 6 -35 0z M346 1376l-24 2q-27 0 -37 -4q-16 0 -68 -22l111 8zM184 1311h21q12 4 12 14q-4 6 -22 4q-11 -6 -11 -18zM485 1292q-18 -106 -43 -299l-30 -258q29 125 45 241t22 185.5t6 130.5zM596 1227l-8 59l-10 -88zM573 1139l5 47zM561 1055l2 -6l6 57l-6 4zM745 842l-32 -267 q-6 -68 -8.5 -107.5t-2.5 -123.5zM479 401l10 101zM700 317v-38l2 6zM700 197v36h-10zM684 113l6 51zM463 135l-6 4l6 -22v18z" />
<glyph unicode="U" horiz-adv-x="1523" d="M492 1632l14 -24q6 -6 20 2q6 -12 11 -41l-5 -35l-2 -23q0 -20 9 -36q12 0 12 32q0 29 14 41l8 -75q0 -29 -3 -63t-19 -99l-25 -129l-8 73l-51 -331q-27 -186 -27 -301v-66l9 -86q12 4 12 23v30q29 -109 69.5 -179.5t122.5 -92.5q84 0 124 11t69 61q86 115 129 246.5 t61 254.5l45 365q0 133 9 213q0 76 40 164q12 -10 23 -37l6 -47l-2 -41v-29l4 -39l17 35l6 -8q20 27 20 88q0 63 19 86q12 0 18 -14l10 -29q0 -29 -10 -70l-10 -73q0 -27 8 -50l21 97l10 98l-2 37q12 -6 25.5 7t25.5 7q0 -104 -3 -146t-13 -145q0 -68 -5.5 -116t-17.5 -138 l14 9l15 18q0 92 22.5 250t22.5 235l2 -28v-47l6 -41l12 67q0 25 6 41.5t19 30.5l8 -53q12 10 16 22t0 31q25 0 31 -37l12 -43q0 -139 -8 -268t-32.5 -302t-131 -383t-305.5 -349v-9q18 0 56 27t55 33q-115 -121 -286 -178.5t-353 -57.5v12h24l54 -2q37 0 53 3.5t39 21.5 q-18 12 -53 16l-46 -4l-51 -4l-32 2q-18 10 -69.5 18.5t-72.5 32.5q10 12 25 19l33 6l73 -12l74 -11q31 0 59 15q-63 6 -112 25.5t-101 58.5q-61 61 -85.5 148t-24.5 198q0 31 2 80t8 119l10 178l74 551l-8 43q0 33 14 60.5t43 53.5h8v-28q0 -12 9 -23l20 31q16 25 33 29 q13 -1 31 -13zM145 1544q12 35 58 35v-25q0 -16 4 -22q12 0 19 25.5t20 25.5l18 -8v-25q0 -35 -12 -108l-12 -78l2 -31h12l49 242l8 -4q0 -82 -6 -169t-20 -190l-56 -391q-27 -213 -26 -354q6 -47 26 -98l39 -99q-2 10 -4 13q0 -23 25 -66l28 -57l-84 -13q-86 80 -122.5 196 t-36.5 249v63q0 14 2 46t8 77l43 389q18 197 18 377zM514 1085l6 -36q0 -23 -12 -74t-12 -82h-9v43q6 27 9 39zM479 739l-6 -6l6 84v-78zM465 686l4 -104zM123 225l129 -143l-72 47q-57 39 -57 96zM281 74l45 -19l43 -20l-56 10q-24 2 -32 29zM238 1313l-11 -8q4 -10 -2 -35 l-4 -25q0 -10 21 -16l8 45q0 23 -12 39zM522 1260l4 53zM422 1307h-27l4 -17zM1227 1239q-6 -12 -10 -49l6 -43q-4 14 2 41l8 33zM215 1182l10 -19l8 13q-6 6 -18 6zM422 1174q-4 -4 -4 -19l24 -18v18l-6 14q-10 5 -14 5zM207 1110l-4 -27q0 -10 8 -16l6 33q-6 10 -10 10z M412 1401l4 26zM199 963v38l-11 -47zM1257 836l19 135l-27 -166zM172 844q0 -55 -6 -90t-8 -62l-13 -151v-42.5t3.5 -34.5t6.5 -27.5t17 -43.5v365v35l4 34q0 13 -4 17zM530 1364h9l6 49zM1235 743v48l-12 -86zM1079 739l2 19zM1118 758q0 -18 -24 -35q-23 -10 -25 -23 q12 -16 12 -30l-12 -43l-16 -45q-10 -12 -33 -80q-14 -59 -47 -78l4 -21q0 -25 -43 -60.5t-43 -72.5q92 84 135 192t92 296zM1358 1348l4 4l-4 45v-49zM780 240q-2 -10 -25.5 -14.5t-19.5 -20.5zM1184 1360l-27 4l-4 -43l16 18l2 -43v-49l7 -35zM696 201h-18l-2 -15z M938 152h12l11 10l4 4q-10 0 -15 -2zM864 104l39 23l-4 4zM801 82q31 0 41 18q-10 6 -28.5 -1t-12.5 -17zM723 55l27 4l30 19l-30 -6zM1235 1278l4 43z" />
<glyph unicode="V" horiz-adv-x="1622" d="M369 1630q25 -6 31 -45t14 -49l155 -668q0 66 -36.5 234t-36.5 239q-25 12 -31 58q0 37 -19 59l-14 137l41 -69q35 -246 86 -474.5t127 -467.5q-14 -6 -16 -29l8 -66l18 -18q119 147 214.5 320.5t193.5 377.5l180 385h14q-18 -78 -30.5 -115.5t-34.5 -92.5 q-37 -104 -92 -228l39 45q35 43 61 37l12 12q6 6 13 0q-12 -82 -44 -155.5t-81 -147.5l12 -10q16 14 52 89t79 81q0 18 -12 18h-10l223 449l24 25q16 18 27 18l25 -12l10 -27q-31 -98 -94.5 -226t-182.5 -317q0 -18 13 -24l32 -8l-211 -379q-57 -100 -114.5 -178 t-126.5 -148q16 35 61 99.5t63.5 94t32.5 60.5q-70 -57 -143 -156l-115 -159v-37q0 -23 -4 -37t-24 -31q-16 18 -37 19q-31 0 -43 -33l8 -49q-8 12 -20 16q-4 -2 -9.5 -4t-17.5 -12.5t-29 -5.5l-28 55l-27 -25q-18 -18 -35 -20l-18 4q6 27 -20.5 62.5t-30.5 54.5l4 20 l-27 33q-14 23 -31 27l82 -238q-18 -12 -30 0t-60.5 132t-112 355.5t-117 512t-93.5 528.5q6 14 14 16l31 -10q14 8 18 16l31 -53l96 -395q18 -86 45 -195.5t52.5 -206t48 -172t59.5 -174.5l12 8l-102 371l-92 369q-12 51 -34 161.5t-38 204.5l33 2q16 0 16 17l-23 14 q-16 10 -18 27v55l23 -33q0 18 17 29.5t24 30.5q33 -195 57 -330t40.5 -227.5t71 -300t130.5 -408.5q12 12 12 25q-2 6 -5 13t-14.5 24.5t-15.5 37.5l-123 514q10 10 14 25l-14 29q-12 20 -8 37l-82 542zM1358 1563q18 12 35 12q23 0 55 -16q-25 -63 -49.5 -107.5 t-40.5 -75.5l-74 -145l-53 -4q6 55 65 188zM1403 1118l-21 -51q-12 -43 -34 -57q2 14 7 28.5t15 28.5zM188 1100l-18 33l80 -400l33 -82zM1217 1186l-5 -41q12 25 23 33q-4 4 -10 5t-8 3zM1184 1092l-219 -383q-111 -197 -238 -342l6 -7q123 143 235 329t216 403zM1081 1006 h-14l-45 -107zM1276 905h8v19h-8v-19zM510 692l-8 33l8 -47v14zM373 338l6 4l-19 55l-10 -4zM840 352l-9 -22h9q10 8 14 12zM774 252q10 0 23 29q6 23 26 34q-20 -2 -34.5 -21t-14.5 -42zM659 143l3 -14q8 -4 12 -4l16 25q4 8 2 16q-13 0 -33 -23z" />
<glyph unicode="W" horiz-adv-x="2285" d="M2218 1624q6 -12 10 -39q0 -20 -14 -63l-14 -62l-17 6l-18 4l-19 -6q-8 -8 -8 -14q4 -12 8 -16l45 -11q-86 -285 -170 -505t-199.5 -448t-189 -330.5t-90 -112t-10.5 -27.5h-19v23h-34q-6 23 6 55l14 47q0 14 -8 25q-18 -8 -44 -62.5t-50 -54.5q-20 0 -37 16l-10 -26 l-25 6l-20 10q-12 -12 -13 -21q-53 115 -114 279l-91 281l-94 354l-262 -565q41 59 87 136t95 171q-18 -49 -40.5 -95.5t-61.5 -113.5l-129 -234q0 27 16.5 51.5t18.5 39.5q-37 -33 -65.5 -77t-39 -68.5t-20.5 -59.5q-25 16 -47.5 -24t-30.5 -42q-4 2 -10 6t-12 15 q31 0 30 10l-12 29q-12 25 -6 39q-31 -6 -60.5 -69t-78.5 -63l-41 5l-129 518q-63 258 -94 443t-41.5 302t-10.5 234q0 37 8 55l41 -39q0 -133 22.5 -257t63.5 -235l9 9q-37 236 -64 489l18 -2q14 0 15 19q0 16 4 24l82 -475h10l-35 266q-16 152 -16 240l12 4l51 -414 q37 -305 74 -498.5t111 -371.5q18 25 18 57q0 20 -22 72q-16 47 -21 78l2 24l-102 447q-6 45 -10.5 96t-4.5 113q-12 45 -28 204l-13 162l23 -22l27 63l24 -33l51 -434q12 -94 28.5 -186t29 -163t34 -166t46.5 -185q14 29 14 61q0 33 -21 113l-20 110q-8 59 -17.5 123 t-27.5 156l-55 319l-39 281l35 -37q80 -567 103 -684t87 -311q16 12 39 55l29 53q-4 -18 -7 -36q-8 -14 -12 -30t-18 -38l8 -4q29 41 44 74.5t18 57.5t3 36l-18 -10l184 485q0 82 33 182l68 197l8 -49q0 -25 -2 -39.5t-10.5 -41t-13.5 -61t-7 -47.5l2 -24l27 98 q16 76 45 104q0 27 4 41.5t14 28.5q8 -18 37 -22q27 0 39 -15q2 2 10 6t29.5 19.5t38.5 15.5l8 -57q0 -35 -4 -49q0 -27 -4 -43l39 -426q14 -137 49 -298t96 -313l-22 109l73 -172l9 8q-45 129 -81 260t-75 324.5t-39 466.5l23 157q23 -27 36 -72.5t13 -109.5q0 -63 6 -105 t16 -69l25 -94q0 -12 -8 -23q29 -59 49 -180t41 -186l39 -135q18 -63 55 -119q37 53 98 203l70 163q6 72 45 193l45 160l22 -19q20 39 46 133l30 111l-12 10l-64 -194q6 57 43 200l41 166h17l-17 -92q18 0 25.5 28.5t15.5 30.5l5 -12v-16l6 -21q12 0 18 13l8 28 q-20 -113 -73 -276l-95 -307l60 -15q-47 -143 -142 -334l-174 -358q0 -10 4 -14l15 -11h16q4 14 17.5 37t52.5 81.5t39 107.5l10 -11q57 121 112.5 249t133.5 334t178 529q14 0 33.5 17.5t33.5 21.5q4 -2 9.5 -4t13.5 -10zM2075 1614q0 -45 -31 -129t-37 -111l8 17l4 22 q0 12 -12 25q-6 -10 -15.5 -28.5t-19.5 -45.5q-12 -45 -18 -90q18 0 24 20l15 35q-23 -82 -56 -164q-25 -76 -65 -139h-29q12 76 70 238l63 200q2 18 5.5 35t12.5 46.5t44 41.5q-4 -4 -4 -22v-19q12 0 24 33zM971 778l-23 -37l27 97zM1028 1438l2 -37v-25q0 -51 14 -73 l15 83l-6 29q-5 11 -25 23zM997 1315h-8v-41zM1016 1262q-63 -168 -109.5 -286t-103.5 -261h-12q4 35 19 73.5t26.5 67.5t25.5 62l105 337q-43 -131 -61.5 -179t-54.5 -143t-79 -190l-96 -219l-29 -55l-8 -41q0 -31 25 -49l65 125q23 41 47 65q33 100 101 240l100 223 q33 74 51 170zM1151 1231q0 -133 18.5 -250t67.5 -231l-72 462zM1765 1102l11 -21l8 19zM1016 985q18 -152 61 -314.5t101 -305.5l114 -293q-80 209 -159 503l-107 410h-10zM207 944l-2 -24q0 -29 14 -52l2 25q0 22 -14 51zM1079 1505l-8 -63q0 -31 16 -45q12 18 13 37 q0 14 -10 41zM1915 731l6 47l-82 -200zM350 592v41v-41zM1423 498l-22 45l12 -56zM1233 475l-16 35l16 -57v22zM1765 453l-16 -35q-6 -12 4 -21zM1237 424l25 -70l26 -57zM600 371q-16 -16 -16 -52q0 -31 16 -47l18 17q12 16 13 35q0 31 -31 47zM1370 348l19 -41l-5 10v15 q0 14 -14 16zM1686 289h8l14 41l-4 4zM1307 254l-11 8l11 -22v14zM1667 256h-14l-27 -57zM1462 180q0 -14 -15 -32.5t-9 -30.5q2 8 6 14t15 20.5t3 28.5zM455 154l-47 -4q-35 0 -52 -19v-22l9 -15q29 0 49 10l47 31zM784 688l7 19h8l-8 -25zM776 666l-49 -129q0 23 2 32 t14 33z" />
<glyph unicode="X" horiz-adv-x="1409" d="M471 1595q51 -49 94 -173t64 -158l41 -109q23 -55 49 -86q10 12 0 31l-8 22l22 -26q39 39 117 162.5t115 160.5l57 94q25 39 65 70l-335 -541l12 -12q84 104 168 230l170 274l6 -27l6 -34q0 -16 -37 -66q-37 -43 -136 -211t-150 -231q6 -12 18 -19l137 195l172 252 q31 47 49.5 78.5t65.5 119.5q0 -18 -29 -59q-31 -37 -24 -68q18 6 43.5 45t48.5 56l12 -31l-59 -74q-55 -61 -56 -106l142 157l2 13v14q0 12 12 18q10 4 31 -18l-27 -61h29l-41 -66l-14 27l-254 -342h-23q0 -18 -43 -88t-43 -109l-37 -39l-12 19l-10 -5l-4 -6q6 -4 10 -18 l-19 -29q18 -63 97 -197.5t100 -193.5q-23 27 -51.5 67t-46.5 72l-111 211h-14q37 -158 157 -307l203 -252q47 -39 66.5 -66.5t34.5 -64.5q-10 10 -25 14l-13.5 -9t-16.5 -22.5t-23 -19.5l-15 -20q-25 12 -63.5 63t-59.5 68q-6 -31 32 -74t42 -65q0 -18 -20 -41 q-141 117 -258 263t-197 314q-10 6 -18 -8q63 -129 154 -257t200 -259l-139 139l67 -104l86 -115q-23 -2 -65 37l-41 39v-15q-82 80 -172 205l-170 242l-342 -375q0 25 26 60l62 73q-18 -6 -41 -20.5t-80 -63.5t-98 -49q-18 0 -31.5 -24.5t-28.5 -24.5l4 18q0 27 -13 44.5 t-36 33.5l13 101q135 133 237 247.5t197 264.5l-164 383q-78 197 -113 370l19 41q6 16 30 12l113 -319q0 47 -29.5 166t-29.5 162q43 -51 79 -160l82 -231l127 -287l9 12l-224 670l15 8h20l31 -55l6 -23q0 -12 -14 -26q18 -2 45 -33l28 -29q0 23 -19 72t-19 67q-1 29 22 45z M571 1511q14 -27 43 -133t58 -141zM1251 1329l-26 -53zM1169 1210l-16 -18l43 63zM1118 1141l-14 -8l41 51zM1096 403l112 -118q43 -45 72 -101q-57 35 -90 77t-51 69.5t-43 72.5zM225 84v-16h-26l8 14q6 6 18 2zM326 1106v20l-9 -4zM406 1114h-15l15 -27v27zM733 1034 l12 -30l7 6q-1 24 -19 24zM784 946l-2 -26l9 6q0 12 -2.5 15t-4.5 5zM602 860h-8q-4 -4 -4 -16l12 -15v31zM555 815l8 -20q0 14 4 20h-12zM471 692l-373 -444q70 45 154 143l143 174l72 88l10 21zM719 598l-8 -14q55 -121 122.5 -213t119 -153.5t112.5 -133.5 q-92 115 -173 235.5t-173 278.5zM434 567q-53 -74 -184 -213l-178 -190v-23q-6 -20 6 -30.5t28 -10.5t37 15l47 35q23 16 29 45q-20 -20 -46 -31.5t-48 -11.5l-27 6q43 49 172 177t179 232h-15zM309 1145l4 4l-10 22l-2 -6zM1014 264q-4 -16 8 -38.5t31 -26.5q0 18 -11 30z M418 1145q10 -43 15 -58.5t28.5 -75t79.5 -159.5q-14 68 -47 143.5t-76 149.5z" />
<glyph unicode="Y" horiz-adv-x="1343" d="M1028 1628q16 16 37 21q31 0 31 -56l-2 -18l14 29q10 23 25 28q0 -66 -45.5 -167t-51.5 -154q10 0 26.5 33.5t31.5 39.5q12 25 30 113q14 84 74 127l51 -49l8 8q18 -6 27 -22q8 -10 4 -33l-12 4l-12 -21q-8 -12 -7 -22l31 16q-31 -143 -79 -254.5t-76.5 -172 t-111.5 -224.5t-124 -262q-31 -51 -84 -150.5t-80 -150.5l-121 -236q-12 -29 -47 -28q-31 0 -41 -9q0 14 2 21q6 12 -2 20l-55 -41q-2 31 23.5 78t29.5 76l-6 31l-45 -64q-37 -47 -37 -71q0 -16 8 -31q-10 18 -24 18q-4 -2 -14.5 -7t-34 -21.5t-35.5 -16.5l94 148 q82 121 100 196l-8 15q-23 -23 -110.5 -164.5t-141.5 -186.5q25 84 108 219.5t101 174.5l-4 39q-104 133 -184 315l-125 305l-105 406q20 2 23 22l-6 37q4 14 8 18l223 -639l-37 134l-37 135h31q49 -162 122 -316.5t173 -287.5l8 30q-61 106 -118 226l-105 233l-123 307 q-6 -31 11.5 -72.5t21.5 -57t6 -36.5h-27l-73 215q-10 35 -16.5 74t-6.5 80q16 0 24.5 -20.5t20.5 -26.5q6 6 0 24q-6 14 2 23h27l4 12l57 -67q0 20 11 30l24 25l27 -47q12 8 14 39q0 35 12 47h13q31 -195 71.5 -333t75.5 -228t74 -178l61 -76l68 94l96 231l113 263z M1210 1554l-32 -71q-31 -66 -31 -99q18 27 37.5 79t25.5 91zM295 1462l-10 27l10 -39v12zM215 1393l-4 10l4 -27v17zM760 868q0 29 4 35l-31 -61l31 12q0 -16 -17.5 -41t-17.5 -35q4 -16 8 -20q18 4 30.5 38.5t35.5 45.5l4 -23q0 -20 -21.5 -57t-17.5 -64l152 303 q39 84 69 201l-100 -209q-39 -82 -82 -151q-6 8 -6 14l2 14q43 84 94 211l104 281zM338 1346l22 -117q12 -55 43 -96q0 47 -13 87t-22.5 62.5t-29.5 63.5zM1108 1284l-33 -55q-12 -27 -8 -49l27 59q10 22 14 45zM1182 1280l-97 -188l-69 -172q33 55 86 184t80 176zM203 1124 l-21 68l-6 -2zM451 1018q6 -45 22 -77t43 -62q-8 31 -12 42t-17 35q-11 37 -36 62zM281 915l-17 17l17 -29v12zM535 823q6 -35 26 -61l49 -55l11 12l-31 65q-24 35 -55 39zM946 776l19 21q4 4 4 18q-12 0 -23 -16q-6 -15 0 -23zM702 719l13 -12q-2 6 -6.5 8t-6.5 4zM907 690 l4 17l-16 -27zM498 502l-56 78l56 -95v17zM768 451l16 38l-28 -57zM559 420h-12l-4 -43h12zM737 403l4 17zM707 369l-140 -201l-28 -66q4 -14 8 -18z" />
<glyph unicode="Z" horiz-adv-x="1548" d="M604 1593l254 6l203 9q152 0 270 -23q0 -25 15 -41q14 8 22 17l21 14q10 -8 14 -16l35 18l45 16l6 -34q0 -20 -10 -43l-13 -37h-14l-4 -47q-135 -248 -318.5 -506t-390.5 -498l27 -27q150 0 252 -16t160.5 -27.5t160.5 -35.5l21 -23q8 -4 4 -25q-129 49 -309 74l-342 43 q-27 -6 -29 -26q6 -12 10 -17l670 -108q0 -10 -14 -17l-27 -2l-78 17q-33 6 -57 20l-10 -8q20 -29 67 -51l90 -31q-16 -45 -49 -45q-14 0 -56 18.5t-63 18.5l-24 -6q18 -25 61 -43l74 -25q-18 -18 -66 -25q-43 0 -61 -14q-133 37 -295 67.5t-295 30.5q-61 0 -118.5 -6 t-116.5 -20l41 -19q66 0 133 -2t135 -8q61 0 132 -7t153 -22q8 8 14 9q12 0 24 -19l21 -6l31 2q12 0 26 -14l25 4q27 0 55 -14l62 -27q6 -8 -2 -14l-25 -11q-94 20 -215 41t-229.5 36t-253.5 15q-57 0 -106.5 -2t-90.5 -8q-51 0 -109 -12q-51 -14 -77 -21q-6 18 14 31l41 27 l121 147l-13 11q-25 -14 -72.5 -66.5t-84.5 -69.5l-10 19q111 115 208 217t205.5 220t238.5 280.5t240 357.5h11q-61 -133 -149.5 -264t-151 -209t-145.5 -178.5t-117 -141.5h28q172 141 326 369l293 438q6 27 -15 41l-24 -10q-14 -4 -25 -16l-31 30l-229 -6l-385 -39l53 23 q-8 16 -43 20l-53 -8l-43 -8q-25 0 -25 25q0 12 13 47l24 14q18 6 25 18q0 10 -11.5 32t-11.5 40q49 12 162 25q49 0 85 6t82 16t119 17.5t159 7.5q90 0 146 3t83 9l-82 12l-98 2l-191 -8l-176 -6l-239 -27q-25 0 -48 17l-38 37q66 31 169 51t199 20zM1249 1495l-20 -2 l-37 4l-35 4q-31 0 -33 -33q12 -6 43 -10l35 2h39zM1214 1290l-14 13l-57 -80l-13 -41l-12 -27l6 -18q10 16 38 52t95.5 123t100.5 179q-29 -29 -72 -90zM1018 1442l-29 4zM717 1438l-105 -19h-75q-35 -6 -76 -10t-80 -20q70 0 100.5 3t104.5 13l184 27h-35zM731 1397 l-377 -45q57 0 172 6t164 6l271 12l167 -6l-4 19l-118 8l-78 2l-99 -2h-98zM989 1284l-65 6l-62 2l-63 -2q-20 0 -49 -14l32 2l78 -4l64 -4l63 6zM1036 1298q-4 -4 -2 -22q6 -10 19 -4q14 -6 22 0q6 6 0 12l-16 8zM563 1262l29 -5q45 0 80 19l-60 6q-31 0 -49 -20z M1071 1083l-6 -24q0 -12 10 -12l8 20q-8 12 -12 16zM999 985l-18 -33l14 -14q23 16 23 29q-1 18 -19 18zM1038 872q-63 -84 -211 -243l-186 -207q137 123 231.5 222t171.5 222zM367 360l-5 -22l11 10l-2 6zM543 236l-6 -5l507 -77q-156 45 -260 64.5t-180 19.5zM1053 104 l-252 58q-129 25 -234 24q-113 0 -200 -26q217 0 372 -15q82 0 144.5 -11t177.5 -42v8z" />
<glyph unicode="[" horiz-adv-x="802" d="M731 1632l12 -16q-23 -16 -65 -25l-62 -10l17 -8l26 -2l48 2v-23l-9 -6q18 -16 19 -39q0 -20 -10 -39l-9 -6l15 -8l-33 -37l-178 -6l-25 -45q-25 -137 -32 -196.5t-7 -127.5q0 -92 -11 -203.5t-17 -174.5q0 -92 -9.5 -150.5t-33.5 -173.5l-7 -45l-4 -35q0 -25 19 -37 l35 -2l69 6l62 8q39 0 65 -16q6 -10 -12 -22l-23 -13q16 -6 21 -30q0 -29 14 -35l-22 -11q-6 -10 -6 -14q14 -6 16 -20l-8 -31l-8 -31l-25 2l-41 2q-12 4 -25 21q-25 -25 -55 -25q-20 0 -53 10l-43 13q-31 0 -51 -27l-66 -6l-63 -2h-29q-12 0 -35.5 5t-46.5 20v12l80 6 q0 10 -19 20l-30 15l24 28q-10 4 -18 5h-23q-10 0 -14 18q0 23 24.5 35t51.5 12q37 186 91 671.5t64 543.5q-23 14 -22 55q4 4 31 8q41 0 39 23q10 0 14 1t6 3l-6 12l-10 10l-41 -24q-18 4 -25 8q-6 10 -6 22q0 20 20 27q0 12 -20 12l-29 -2q-23 0 -16 29q18 12 50 21.5 t71 9.5q80 0 117 16q31 -12 61 -12l92 12l92 14zM485 1583v8h-24v-8h24zM313 1575l60 -8q23 0 33 8h-93zM391 1534v-8l19 -8l30 8l29 10l-14 2h-9q-37 0 -55 -4zM358 1436q-6 -12 9 -41l53 18q16 6 29 27l-31 6q-23 0 -35 -4zM563 1452h-47l-29 -12zM301 1208l21 162h-9z M375 1198l4 152l-21 -201zM276 375l76 512q0 -12 -2 -15.5t-4 -3.5l-6 80l2 80l16 98q-39 -178 -54 -314t-21.5 -241.5t-6.5 -195.5zM395 1114l11 -31l14 4l2 13l-12 8zM264 989h8v21h-8v-21zM233 809l-2 20l2 -28v8zM352 510l-20 -129l4 -35zM186 387l4 31zM207 119 q-8 -12 -8 -15q0 -12 18 -24l41 16q31 10 31 31l-43 2q-23 0 -39 -10zM242 74l45 -2l57 2l62 14l-37 -2l-56 2q-25 0 -37 -4q-16 0 -34 -10zM555 88l-68 8z" />
<glyph unicode="\" horiz-adv-x="1474" d="M1319 -25l-397 482q-313 385 -505 611t-394 448l-3 34l52 -22l6 53q16 0 45 -18l33 -21l-15 27l-8 24q0 16 21 19q76 -106 325.5 -401.5t300.5 -368.5l172 -215l285 -332l180 -209v-31l-4 4l-37 -32q-37 27 -104.5 106.5t-114.5 106.5q23 -43 78 -109l106 -117l7 -30 q-11 -15 -29 -9zM1374 82q6 10 -6 24l-27 19q-6 -8 7 -23zM1253 248l-26 24l35 -53zM1157 246q-25 41 -52.5 76.5t-74.5 83.5l-112 118v-18zM899 532q0 20 -18.5 45t-46.5 44q6 -20 24 -48zM768 682q-14 43 -53 82t-52.5 53t-27.5 35q10 -20 21.5 -36.5t33.5 -47.5z M502 1100q0 14 -8 24q-6 14 -29 33q-6 -16 4 -31zM408 1116l-74 90q19 -59 74 -90zM174 1516l84 -134q43 -70 102 -118zM166 1409l-27 43q-14 29 -35 41l29 -55q8 -13 33 -29z" />
<glyph unicode="]" horiz-adv-x="802" d="M741 1612l-6 -23q0 -16 -20 -24l-37 -17q-18 -6 -12 -26l26 -4q10 0 17 -17q-14 -113 -22.5 -179.5t-29.5 -182.5l-57 -363l8 -6l6 6v10l-22 -233q-18 -182 -19 -272q0 -20 -29.5 -30.5t-35.5 -31.5q6 -6 31 -10l34 2q2 -8 2 -21q0 -16 -12 -31.5t-55 -35.5l24 -8 q23 0 25 -17q-20 0 -22 -22q0 -29 -21 -35q-20 16 -43 16q-18 0 -59 -16l-62 -14q-27 0 -67.5 -2t-96.5 -9l-125 -8l-8 21l19 24q18 18 12 39q12 12 45 14q33 0 45 7q6 -25 25 -25l28 6l27 6l22 13q18 6 19 26q-6 12 -19 13q-16 -6 -24 -11l-27 -10l-143 -8l-6 18l14 27h25 h35q31 0 55 12q-27 4 -46.5 7t-58.5 16q-6 10 13 22l98 4q78 0 125 25q25 150 48.5 308.5t39.5 306t24.5 274.5t8.5 270l-62 4l-61 2h-123q-12 20 12.5 33.5t26.5 24.5l-8 18l6 12l16 15q-10 8 -10 14l2 16l25 2q12 0 18 7l-31 32q6 14 13.5 22.5t27.5 14.5l43 4h47 q31 0 41 4q16 -18 39 -18q18 0 45 10l37 10q27 0 47 -26q12 -6 26.5 9t27.5 15l30 2l27 7q22 0 22 -35zM664 1577h49q-29 -12 -70 -12l-43 2l-51 2q18 -6 45 4l41 12q13 0 29 -8zM479 1565l-59 4l-60 -4h119zM264 1470l96 5l-63 4q-25 -1 -33 -9zM440 1479h-28q-16 0 -23 -9 zM526 1331l-12 12l-47 -364zM627 1315l-19 -185zM584 1292l-45 -254l10 -8l20 135zM539 950q-14 -43 -27 -131q0 -47 -2 -63.5t-8 -34.5q0 -61 -21 -191l-20 -176l6 -73l57 411q6 57 10.5 120.5t4.5 137.5zM457 815l6 78zM451 721l6 29zM561 569h-22l30 -28zM385 418l4 22z M217 74q12 -6 27 4q14 8 28 0q-6 -8 -26 -6q-17 6 -29 2z" />
<glyph unicode="^" horiz-adv-x="1073" d="M377 1128l-19 27q-12 -4 -12 -8v-10q-14 0 -20 14q-2 14 -23 16l31 185q12 59 43 110l57 94q23 41 82 66l-4 -27l31 9l32 2l-14 -21q0 -10 45 -29q43 -12 53 -22l5 6l-37 23q-16 12 -21 24l33 -6l207 -164q125 -100 125 -217l-6 -49q-6 -6 -23 -4l-18 6l-15 -18 q-6 0 -9 2t-5 4l4 16q-8 8 -12 8l-19 -16h-10l8 27l-2 36q0 12 8 27q-53 106 -114 174q-55 66 -174 121h-19q145 -96 198.5 -165t53.5 -128q0 -33 -18 -76q-12 18 -29.5 82t-46.5 86l20 -63l5 -35q0 -29 -15 -55l-12 -4l2 36q0 20 -14 33l-11 -31q0 -20 -4 -24l4 39 q0 76 -47 143.5t-133 140.5l-10 -4q-53 -70 -82 -178zM233 1208q-10 -2 -16 -18q0 -10 -8 -16l2 34q0 16 -8 31l-10 -4q6 -18 -6.5 -44t-12.5 -42q-12 0 -16 18q0 16 -8 23l-35 -35q-6 23 -11 59q0 35 12.5 74t33 81t32.5 69l54 86q16 29 63 71q4 8 8 9l17 -5l32 27l27 6 q12 0 31.5 -13t36.5 -13q-84 -90 -126 -203t-63 -256q-18 6 -22 37zM831 1167v50q0 27 11 43l2 -27l2 -29l-6 -37h-9zM360 1165q4 8 9 37q0 27 4 33q-18 -16 -19 -45zM326 1208l-7 27l3 -59zM156 1200q8 10 14 49q0 35 29 99l69 184q-89 -146 -112 -332zM244 1284l28 90 l31 74l10 2q-6 -27 -37 -88zM354 1391l-8 -48l16 48h-8zM702 1366h9l-2 10zM524 1522q6 -14 15 -21l28 -14q-8 14 -16 18zM682 1499l-117 72l-12 -4l61 -35zM563 1513q0 6 -4 11l-20 16q6 -12 10 -16zM346 1522l60 73q-18 -8 -37 -30zM293 1556l2 11l-23 -27z" />
<glyph unicode="_" horiz-adv-x="2260" d="M68 -176q-6 27 18 41l51 20q-4 10 -42 15.5t-40 27.5q98 0 354.5 -4t307.5 -4l790 -20q197 0 327 -3t304 -10q12 0 21 -16l10 -23l-397 7l-420 10l-351 4q27 -8 76 -16l92 -7l117 4l92 5q98 0 166 -23l608 -18l33 -19q12 -6 13 -18l-9 -17l-24 -6l-27 2q-16 0 -31 -16 q6 -14 54 -21q45 0 57 -22q-80 0 -163 6t-136 10l-297 15h-68l-92 -9q-18 12 -53 13q-23 0 -33 -1t-51 -11.5t-63 -10.5l-37 6q-80 0 -176.5 1t-208.5 3l-389 7l-322 2l-18 16l-9 20l7 17l86 8l67 -2q45 0 70 -4l45 2q29 0 67 16l-57 19l-70 4l-96 -4l-69 -4h-46 q-26 6 -38 8zM467 -109l-102 -6l251 2zM618 -209l48 -8q37 0 34 22z" />
<glyph unicode="`" horiz-adv-x="745" d="M90 1593q20 -20 47 -20q16 0 33 8l43 -295q16 6 16 43v37q0 29 5.5 41t21.5 20l25 -284l-19 35l-18 34l-19 -6q0 -39 49.5 -108.5t49.5 -106.5q31 -2 49 -47t49 -45q4 8 4 14l2 17q29 -20 41 -88q8 -61 33 -90q-20 0 -48 31.5t-42 31.5q-12 0 -27 -8q-150 160 -234.5 343 t-84.5 394zM293 1452l37 31l10 -111q0 -39 7 -79t20 -68q10 72 26.5 136t40.5 114q12 -8 15 -35v-27q0 -25 4 -32t30 -17q-6 -33 -10 -65.5t-4 -69.5q0 -109 39 -201q-31 -6 -49 -43q8 -18 14 -23.5t10 -7.5l56 13l147 -289l-6 -6q-123 86 -217 248q-100 199 -146 274 l-18 252l-14 4l-17 2h-24l12 68zM551 1397q12 -16 16 -47l-12 -56q-4 -10 -7 -28.5t-3 -34.5h-31v26q0 41 8 68q6 33 29 72zM520 1188q29 -18 37 -101q0 -35 3 -56t9 -40q-18 12 -30.5 70.5t-18.5 126.5zM207 1120q18 -57 51 -113.5t72 -95.5q-14 43 -27.5 77t-26.5 56 q-20 49 -69 76z" />
<glyph unicode="a" horiz-adv-x="1253" d="M385 922q41 29 86 53t98 49q100 41 195 41q106 0 192 -53l39 20q0 -25 4 -37q4 25 29 25l27 -4h20v-15l27 33q10 16 33 17l-11 -54l6 -24l15 51q10 27 29 37l-44 -215q-37 -188 -36 -318q0 -98 20.5 -180t73.5 -155l-14 -13q-43 45 -78 94.5t-45 104.5q-8 -4 -11 -23 q0 -16 19 -59l33 -70l18 -51v-8q-6 -6 -27 0l-20 8q-10 -4 -12 -8q-4 -16 13 -28.5t11 -35.5l-22 -6q-16 0 -33 13l-29 36l-4 -34l-29 32q-8 14 -16 43l31 -36l-76 233l-2 -66q0 -37 23 -53l6 -61l-29 71l-23 89q-14 -6 -16 -23l4 -27l6 -20q6 -53 25.5 -90t75.5 -113 l-11 -10q-51 37 -86 94q-29 53 -45 119l-6 -19q0 -14 15 -43l14 -40l29 -60l45 -70q-4 -6 -19 -10l-18 10l-29 29q-16 16 -42 72.5t-38 81t-16 35.5h-19l13 16q10 10 -6 22q-16 -12 -61.5 -39.5t-61.5 -37.5l-99 -62q0 -12 17 -20l22 -6q49 55 127 88l-49 -49 q-29 -25 -57 -31q-20 -37 -74 -62l-92 -37l-80 -4l-51 -2h-45q-27 6 -47.5 11.5t-55.5 33.5q-55 37 -73.5 99.5t-18.5 148.5v62l2 65q37 115 109.5 220.5t179.5 176.5q20 -8 26.5 17t18.5 31zM664 1026l26 -2q14 0 19 12l-23 -4q-16 0 -22 -6zM672 1001q-39 0 -74 -9 t-76 -27q-66 -25 -123 -82h13q2 12 18 16l31 -2q68 61 166 74l12 -29l-8 16q2 4 7 9.5t15 11.5l31 12zM1012 901l24 78l-4 4zM852 938l10 -20l4 4v12q-4 0 -8 1t-6 3zM907 922l-10 -13q8 -10 12 -14l15 -12q6 12 -5.5 19.5t-11.5 19.5zM1051 922l-17 -56q-6 -23 2 -32z M834 852q-20 12 -39 21.5t-60 27t-86 17.5q-43 0 -78 -21l179 -8q16 -2 45.5 -32t52.5 -23zM403 838q6 4 12.5 8t29 12t22.5 25l-41 -23q-15 -6 -23 -22zM1100 874l-43 -157q0 -23 8 -45l10 98q0 20 15 49l16 37zM340 848l4 -4l12 14l-2 6zM803 788q-29 31 -82 51.5 t-107 20.5q-41 0 -77 -12q76 0 145.5 -19.5t126.5 -64.5zM911 825l-10 -16q-25 -76 -37 -143.5t-12 -145.5v-43q0 -8 2 -28.5t8 -49.5q0 59 24.5 215t24.5 211zM461 799q-63 -45 -101 -125q-29 -70 -41 -176q0 -113 52 -156l65 -43l25 -4q25 0 59 16l92 43q53 27 120 129.5 t67 221.5l-2 36l-29 -6l-117 60q-20 8 -50 14t-58 6q-49 0 -82 -16zM983 788l-29 -104l-8 -74zM266 719l4 -4l25 26l-4 7zM303 698l-49 -88q-10 -18 -17.5 -36.5t-11.5 -36.5l6 14l11 24q2 10 22 3v-84q0 57 9.5 98t14.5 59t15 47zM1020 635l-2 -45v-45l2 -58q4 -20 16 -38 l-8 43l-2 53v24zM104 573q0 -18 -2 -28t-15 -53t-11 -72v26q0 31 5 60.5t23 66.5zM942 573l-6 -110q0 -33 2 -61.5t11 -67.5t38 -70l-22 62q4 16 8 20q-12 25 -12 64l2 45l2 45q0 27 -3.5 42t-19.5 31zM809 494l-2 -29v-25v-45l2 -41v140zM750 463l-35 -49q-8 -25 -49 -56 l-80 -57q53 0 100 49q41 47 64 113zM117 395l10 58zM211 440l-4 -34q0 -49 29.5 -91.5t82.5 -85.5q61 -20 111 -20q66 0 107 37q-47 -14 -109 -15l-66 7q-57 20 -94 74t-57 128zM315 385q-6 -33 18.5 -58.5t65.5 -39.5zM137 326l-2 -21q0 -10 10 -10v14zM117 264 q10 -45 27.5 -75.5t52.5 -36.5zM221 197l21 -25l4 4q-8 10 -13 12zM313 147q12 -8 29 -6l27 13l-21 8l-18 6q-11 -1 -17 -21zM291 162l-17 6l17 -16v10z" />
<glyph unicode="b" horiz-adv-x="1232" d="M315 1649q18 -6 25 -43l6 -37q12 0 18.5 25.5t26.5 23.5q-6 -8 -10 -31l6 -37l6 -34q0 -23 -18 -41l8 -35q0 -51 -8 -135t-34 -263.5t-26 -244.5l27 37q0 53 5 88.5t28 175.5l28 211l27 6q18 0 23 18q-6 6 -21 6q-12 0 -18 7v81q6 41 8 62l20 156l11 -13l6 4v9h14 q0 -20 -2 -59.5t-8 -92.5l-10 -143l24 104l10 -14q0 -84 -30.5 -273.5t-30.5 -263.5l8 -6q74 41 105.5 65.5t50 43t45.5 51.5l125 51q70 29 123 29t92 -23l45 8q37 0 69.5 -22.5t63.5 -69.5q37 -78 37 -184l-6 -72q-4 -25 -6 -37t-11 -35l-10 29q-33 -174 -151.5 -332.5 t-286.5 -240.5q14 -6 29 6l26 26l8 -6q-57 -70 -92 -93t-74 -23q10 12 48 36.5t51 38.5q-41 -14 -146.5 -64t-179.5 -50h-41l-29 8q-84 0 -154.5 61.5t-115.5 151.5q-12 96 -12 186q0 125 27.5 381t27.5 340q16 51 40 252t28 215h10q6 -23 16 -22l9 8l22 -23l4 6l4 -49 q0 -20 -2 -55t-8 -82l-8 -102l-62 -517q-31 -268 -30 -477q0 -18 11 -41.5t24 -31.5l34 145q0 25 -12 49q-16 -18 -23.5 -45t-7.5 -68q0 51 4.5 139.5t4.5 125.5q0 66 12 150.5t16 123.5l39 299l8 -10q0 -102 -14 -222t-21 -175q0 -61 -9 -122t-40 -169l15 -8q35 92 55 290 l25 232q20 6 22 22l-12 35q0 82 36.5 271.5t36.5 254.5l-6 76zM270 1645l-8 -201q0 -88 -26 -182l-11 2l33 211q12 86 12 170zM496 1630q12 -12 12 -39l-6 -43l-6 -43q-10 14 -15 33l8 35l9 39zM225 1184h-8l14 59zM342 1454l14 98zM430 1204l-27 -174l-10 -166l43 273z M682 1053l41 14l51 33q-27 0 -53.5 -13.5t-38.5 -33.5zM1028 1069q25 0 27 10q-6 10 -23 8q-10 -6 -4 -18zM1073 1057l-10 -8q49 -29 72 -123q4 -35 7 -58.5t15 -76.5v36q0 43 -3 79t-19 71q-19 49 -62 80zM809 1004l22 -17l29 -14q53 -25 78 -78q20 -55 20 -125l-6 -108 l-4 -72l23 90l10 96q0 66 -20 115l-43 72q-37 66 -66 65q-18 1 -43 -24zM442 821q-6 -16 -43 -49t-30 -70l129 162q6 12 60 48t54 79q-45 -18 -90 -71zM743 979q-117 -86 -202.5 -177t-126.5 -195.5t-41 -192.5q0 -51 12 -90t49 -74l37 -6q27 0 74 14t71 10q68 37 113 127 l51 133l21 41q8 14 18 9l21 106l8 90q0 55 -15.5 94t-58.5 72l14 2q55 -37 80 -89t33 -84t8 -71q0 -43 -8 -73q29 45 29 102q0 37 -8 64q-6 33 -9.5 42t-19.5 58q-52 88 -150 88zM1022 973q-2 -25 12 -64l23 -51q0 -203 -74 -399q43 92 72.5 178t29.5 160q0 16 -1 37.5 t-15 56.5q-12 45 -47 82zM301 635v-57l14 38q4 10 -2 19h-12zM369 573l-13 -30l-4 -33l4 -25l9 37l10 33zM864 498v37l-4 -41zM299 512q-6 -23 -6 -53q0 -25 8 -33l2 27l4 28q0 17 -8 31zM901 391l41 103l-72 -142zM188 287q-10 -14 -16 -51l-4 -37q18 -35 52 -48.5 t54.5 -17.5t51.5 -4q-6 10 -29 18l-43 19l-45 39q-25 25 -25 57zM453 172q-10 0 -23 -25l57 -18l66 27q23 12 39 37l-60 -13q-37 -12 -55 -12zM557 129l-104 -49q35 0 63.5 11t40.5 38zM264 92q0 -14 33 -16l18 2q0 12 -28 14h-23zM352 78h17q4 -8 18 -6l6 8q-4 4 -18 4z M731 918q25 0 38 -13.5t58 -91.5q6 -23 7 -72l2 -71q0 80 -21.5 138t-77.5 95l-22 4q-12 0 -27 -8l-31 -27q27 30 74 46z" />
<glyph unicode="c" horiz-adv-x="987" d="M578 1030q53 29 116 29q74 0 135 -43q-12 6 -34 6q-20 0 -21 -21l-24 5q-12 -20 20 -33q31 -6 37 -19l20 -26q12 -16 17 -29l-8 -16q31 -12 30 -54q0 -39 19 -55q0 -27 -4 -33l-31 25q-12 0 -19 -18l-6 -31q0 72 -30.5 140.5t-79.5 103.5q18 -4 30 -17l29 -24l10 8 q-6 27 -49 45q-35 18 -45 43l-20 4h-19q-23 0 -35 -10q0 -14 25 -25q25 -6 86 -61.5t61 -216.5q-29 0 -40 55q-6 55 -25 74l-37 41q-27 25 -53 18q80 -84 80 -205v-24l-4 -25q-33 -6 -41 39q0 39 -15 53q0 41 -43 84l-78 78q-82 -72 -136 -176.5t-54 -208.5q0 -76 27 -141 q66 -88 182 -88q88 12 186 63l195 94l-31 -86q-12 -37 -51 -37q-41 -12 -102.5 -47t-96.5 -52t-59 -26q162 39 334 129q0 -72 -58.5 -102.5t-97.5 -50t-106.5 -50t-128 -46t-103.5 -21.5t-78 -6q-102 0 -192 49q-72 31 -103 94q-25 61 -24 160l2 88v41t5 64t25.5 91 t59.5 107q2 -14 -12 -41l-15 -34h19q43 113 130 208t197 140q-63 -49 -119.5 -107.5t-105.5 -136.5h15q92 109 157.5 164t151.5 55l33 21q10 12 0 24zM856 1001q-12 12 -26.5 0t-24.5 -12q-6 0 -17 6q27 -12 43 -39l70 -102q6 -16 10 -20q8 -8 21 0q0 51 -29 94zM127 418 l55 -178q18 -43 94 -62q-41 47 -71 103q-25 55 -31 92l-4 67q0 115 49 214.5t143 176.5v-24l84 117q-137 -96 -228 -227.5t-91 -278.5zM565 913l2 -14l11 10q-11 2 -13 4zM242 446l-4 -45q0 -104 75 -182l49 -18l46 -8q18 0 36 12l-59 20q-61 25 -92 80t-51 141zM870 360 h-10l-4 -12zM131 274q0 -33 23 -67q25 -31 57 -49zM795 219q12 0 28 8l29 17l-31 -8q-12 -1 -26 -17zM227 98l4 4l-8 7zM313 82l25 -6l24 4l27 4l-24 4l-27 -2q-17 0 -25 -4z" />
<glyph unicode="d" horiz-adv-x="1423" d="M1008 1663q14 -10 20 -20.5t10 -13.5t9 -3q12 6 16 10l6 -16l-102 -569l12 -33q6 -14 29 -12l12 10q10 29 20.5 120t38.5 126l-16 18l16 242q12 16 23.5 60t27.5 60q6 -20 23 -22l21 4l26 18q10 -18 31 -22q20 6 29 10l28 10q16 0 35 -26l-63 -264q-25 -111 -37 -197 q-12 0 -15 -10l9 -19q8 -10 2 -26q0 -18 -5.5 -105.5t-5.5 -124.5l-8 -172q0 -133 24.5 -235.5t98.5 -192.5l23 -32l-46 -23q8 -10 19.5 -15t11.5 -16l-37 -12q12 -8 17 -20q-10 -14 -23.5 -23.5t-13.5 -22.5l6 -16q-92 23 -169 66t-118 125q-43 61 -61 139q-6 41 -10 87 t-4 99v115l-11 12l-22 -20q0 -244 39 -387.5t139 -186.5l129 -55l61 -27q-6 -10 -24 -10t-47 10l-33 13q-12 0 -12 -15l8 -35l-53 21l-86 51q-57 37 -85 90t-73 182q-16 -2 -41 -30l-49 -53l47 16q-39 -49 -97.5 -90t-119.5 -70q-37 -33 -77 -46t-62.5 -17t-57.5 -4 q-43 0 -62.5 3t-52.5 13q-117 49 -161 158q-12 72 -13 141q0 184 83 341t237 247q41 66 94 87t94 32.5t119 29.5q0 -12 7 -19t22 -7q14 0 19 1t7 3l-14 22l35 -4v-14q18 -10 39 -15q27 0 39 34t24.5 144.5t32 206t68.5 191.5zM1020 1532l-6 8l6 -18v10zM932 1077h10l72 426 q-23 -70 -43 -180zM1149 1305l8 -5q10 -6 23 -6q12 0 12 11q6 25 -10 24q-16 -4 -23.5 -9t-9.5 -15zM1143 1169l2 27zM674 1081q-14 0 -26.5 -7t-6.5 -19zM780 1071l138 -92l8 27q-14 4 -31.5 13t-51.5 27.5t-63 24.5zM549 1022q-4 -2 -9 -5t-33 -25.5t-46 -12.5 q-96 -115 -153.5 -229.5t-57.5 -239.5q0 -59 18 -131l56 -74q25 -23 57 -26q0 12 -14 26l-37 33q-20 23 -37 65q-6 25 -10 45.5t-4 49.5q0 57 8 92l30 94q12 92 115 202.5t117 135.5zM1114 1022q-18 -92 -18 -180q0 -68 10 -99zM700 1012v-13l64 -30q55 -27 84 -23 q-49 68 -125 68zM987 950q-18 -31 -18 -65l6 -29l8 47zM758 940l59 -45q25 -18 51 -18l31 6l8 -70h11v86l-17 -2h-12h-31l-31 -6q-6 14 -30 27zM692 874q-29 31 -61 35q-31 0 -59.5 -28.5t-73.5 -112.5q-23 -53 -37.5 -111.5t-14.5 -121.5v-58q6 -23 9.5 -33t10.5 -28.5 t23 -42.5q6 -25 27 -37q16 -6 53 -10l41 4l35 8q-18 -23 -41 -41l-61 -29q59 0 143 62l100 71q18 6 19 19l-4 31q4 14 8 18l20 -27l9 17q-6 12 -11 16l-8 19l8 16l-63 -70l-68 -61l109 174q31 55 31 135v25q-6 47 -58 92zM752 899l77 -76q-8 29 -28 51.5t-49 24.5zM498 823 q-55 -92 -92 -196l-9 -68l-2 -53q0 -55 13.5 -92t52.5 -58q-41 70 -41 166q0 41 4 76t20.5 97t53.5 128zM967 743h8v66h-8v-66zM1098 700v-76.5t9 -101t38 -131.5l-37 182q-8 59 -9 85t-1 42zM965 688v-86q0 -158 63.5 -289t198.5 -176q-141 55 -187 187.5t-75 363.5z M178 279q23 -39 74 -72q53 -27 98 -27l25 2l-119 43q-39 37 -50 79t-15.5 70.5t-4.5 67.5v62l4 78q-37 -68 -36 -162q-1 -73 24 -141zM1214 418l-22 53l22 -68v15zM406 113q29 4 52 9t52 15t68 37q-39 -6 -89 -24zM367 113h-21l10 -9z" />
<glyph unicode="e" horiz-adv-x="972" d="M782 1067q27 -8 39.5 -15.5t45 -30t59.5 -56.5l8 -76q0 -111 -62.5 -210t-162.5 -165h-9l5 16q-33 -6 -115 -55t-131 -49q92 29 184 100.5t129 163.5q-14 -8 -55 -59t-76 -51q-29 -23 -70 -47.5t-74.5 -41t-69.5 -27.5t-87 -22l-2 -30q0 -35 14.5 -65t48.5 -52 q6 6 8.5 12t2.5 17l116 -68l-20 4q-8 -6 -10 -10q0 -25 24 -25l47 -2q59 10 95 29.5t186 126.5q-4 -20 -28.5 -60t-24.5 -69l2 -21q-86 -78 -169 -110.5t-140.5 -45t-114.5 -12.5q-68 0 -142 19q-45 14 -96 49q-45 35 -73.5 109.5t-28.5 183.5q0 139 58.5 262t162.5 211 q18 37 42 53.5t46.5 26.5t44.5 10q25 35 53.5 45t57 16.5t61.5 10.5l8 -17q20 18 54 27l69 8l37 -2zM616 266l17 8q-1 -10 -17 -8zM743 999l66 -57q31 -43 31 -102q0 -18 -1 -39t-11.5 -49.5t-22.5 -53t-29 -47.5h8q35 31 54 88q6 29 10 58.5t4 62.5l-2 41v43l-47 41 q-18 18 -41 19zM532 969q-2 -27 -48 -46.5t-48 -48.5q20 6 55 37t66 37l35 4q12 6 16 11zM680 963q0 -23 -27 -21v-16l33 -21l35 -28l12 -31l4 -41l-6 -60q33 20 33 70l-2 19q0 14 -10 30l-11 25q6 12 11 16q-2 16 -34 33t-38 25zM616 905l-32 6q-55 0 -109 -51l-84 -82 q-33 -51 -50 -107.5t-17 -107.5l6 -55q8 0 20 1t41 7l78 19l-41 -23q-33 -16 -43 -29q51 0 90 29l86 74q84 84 84 190q0 49 -20 90l12 8q10 -12 14 -20t14.5 -32.5t10.5 -57.5q0 -37 -4 -55.5t-17 -44.5q25 18 31 41l19 81q0 39 -29 68zM154 539v-78q0 -129 25.5 -204 t121.5 -122q25 0 57 -10l52 -8q25 0 47 18q-37 -4 -82 17l-62 24q-55 35 -85.5 88t-43.5 127q4 14 -8 31l-10 24q0 10 18 23q16 109 51 194t95 171q-63 -53 -107 -127t-69 -168zM369 803l10 26l-25 -30zM324 770q0 -14 -9.5 -33.5t-20.5 -38t-16.5 -31t-17.5 -40.5l-24 -86 q0 -25 20 -43zM338 469l14 2q8 8 8 12l-14 -6zM225 416q0 -43 8.5 -73t32.5 -48l-14 57q-9 48 -27 64zM76 410q0 -94 21.5 -163t80.5 -112q-39 47 -55.5 98.5t-25.5 87.5t-21 89zM129 328v55v-55zM709 1022l-31 2l-29 4q-16 0 -20 -18l80 -6v18zM545 135q63 6 118.5 30.5 t88.5 78.5q-12 -4 -49 -20.5t-58 -26.5z" />
<glyph unicode="f" horiz-adv-x="927" d="M670 1706l8 6q49 0 94 -31.5t90 -83.5q-20 0 -20 -30q0 -16 -4 -23l-52 33q-6 -12 15 -31l20 -24q-10 -14 -18 -19l-103 76q-86 68 -145 80l-10 -6l104 -82q94 -74 121 -109q-10 -10 -29 -2l-26 23l14 -41l-2 -47q-18 0 -59 34.5t-68 32.5q2 -20 32 -38.5t36 -34.5 q-33 4 -62 26l-51 47q-16 -35 -25 -108q0 -39 -3 -60.5t-13 -46.5q8 -20 33 -22l28 2h27l-78 -8v-11l31 -4l31 2l30 2q31 0 52 -14q4 6 26 10l51 -6q25 0 25 29q23 12 32 -10.5t15 -24.5q0 -25 -29 -33q18 -10 23 -31l-8 -30l-8 -35l-117 22l-88 7h-38t-46 -9l18 -24 l-10 -21q18 -6 58 -10t61 -6q84 0 133 -33q-6 -35 -39 -47l-225 27q-25 -106 -36 -181t-11 -178l-21 -393q-31 37 -31 96l7 82l8 72l-4 43h-8l-39 -350q-10 16 -15 51l2 39l4 41l-2 24l2 109v52.5t4 60.5l-20 -25l-31 -440l-12 -9q-12 0 -18.5 19.5t-16.5 21.5l-14 -6l-2 68 h10v-27q0 -12 10 -18q4 6 8.5 15t8.5 24.5t14 23.5l-4 19v30q0 14 -8 25q-10 -4 -14.5 -29.5t-14.5 -35.5l6 231q0 51 53 508l-22 24l-25 -28l-43 -479l6 -52q0 -12 -2 -35.5t-8 -58.5l-10 -88v-25l6 -47q-4 -14 -8 -18q0 61 4 199.5t4 142.5q0 76 7 167t22 220q-4 18 4 39 l10 25q0 12 -14 24l-21 -47q0 -70 -4 -136.5t-22.5 -250.5t-18.5 -287q0 -92 13 -190l-11 -6h-22q-12 14 -15 41l13 55l14 45q0 12 -10 19.5t-45 11.5l20 41l-20 6v24l37 379q10 119 10 262q-4 8 -29 11l-33 -2q-20 0 -32 -5q-25 0 -25 17l6 20q33 33 50.5 57.5t11.5 55.5 q35 12 53 71.5t72 59.5l-17 20l47 259h35q12 6 17 10q-6 16 -35 14v25l12 34q4 -6 18 -10l27 2q14 0 18 -18q23 8 27 37q-4 6 -4 18q0 8 6 14l35 27l-33 27q4 6 41 14t41 33l133 14h25zM690 1227h19h-19zM555 1063l27 2h22q94 0 172 -29l-2 -20l-229 43zM115 102v-20l-9 20 h9zM436 1247q47 121 70 271q-20 -41 -41 -125zM358 1509q-10 -23 -22 -59.5t-22.5 -79.5t-14.5 -80t-4 -76q4 10 12 43t23 93q6 39 12 75.5t16 83.5zM524 1462l-2 27l-8 -39zM502 1343l-10 -49l-5 -55zM715 1638l30 -34q-12 30 -30 34zM569 1585q10 -20 51.5 -49t69.5 -33 l-53 39q-45 37 -68 43zM127 1030l18 -2q10 0 17 10l-19 -2q-10 0 -13 -2t-3 -4zM106 989l9 -6l20 4q25 0 27 17l-29 -9zM455 942l-9 -41l-2 -35l7 -24zM367 641v-31q2 10 1 19.5t-1 11.5zM410 1567q-35 -51 -60 -203l-20 -145h12l41 198z" />
<glyph unicode="g" horiz-adv-x="1495" d="M1354 1165l45 -10q23 -8 26 -37q-43 -119 -77 -309l-60 -360q-27 -178 -74 -314l-14 31l37 176q8 41 12 75t4 70l-22 -24q-43 -266 -65.5 -370.5t-86 -241t-180.5 -238.5l-20 6q-12 0 -31 -30.5t-41 -30.5q-68 -43 -125 -56.5t-103.5 -19.5t-89.5 -6q-96 0 -185 19.5 t-185 55.5l-56 64q-20 31 -20 57q0 23 23 43q-4 8 -5 13l2 12q31 12 64 -25t53 -39l-86 105q18 -6 31.5 6t17.5 33q16 -4 31.5 -9.5t37 -17.5t95.5 -78q59 -35 137 -56t150 -21q66 0 115 16q53 12 98 51l-125 -27q-53 -8 -75.5 -9t-37.5 -1q-63 0 -120.5 17.5t-102.5 58.5 q29 0 35 14q-12 14 -21 21l-28 10q-18 0 -21 -16l-49 32q-43 31 -57 54l61 -27l-4 41l135 -78l-6 -4q4 -10 25 -22l33 -11q4 0 7 3t5 6q104 -39 194 -39q88 0 152 34q39 -35 88 -34q6 23 39 28q29 0 41 6l-8 21q4 6 8 11t23.5 19.5t21.5 24.5q-2 6 -6 12.5t-15 16.5l-18 -8 l-27 14q-14 12 -26 8q86 311 86 623q-35 -29 -46.5 -135.5t-17.5 -122.5q0 -31 -2 -62.5t-9 -74.5t-54 -228q-23 0 -41 -16l-23 -27l13 58l18 -5q10 6 12 11l-24 39l49 340l-19 16l-94 -82q-84 -68 -84 -117l-108 -53q-90 -45 -142 -45q-39 0 -61 10l-72 2q-14 2 -30.5 6.5 t-57.5 24.5t-79 51t-56 88q-18 43 -31 90q-10 55 -10 99q0 96 38 201.5t95 191.5l182 184q111 104 218 135l98 -18q31 0 49 25l266 45q76 0 133 -39q16 0 31 16l31 31l-29 -148l-61 13l-31 -136q16 0 35 52q12 51 35 51q14 0 36 -14q27 14 27 90t25 75q14 0 37 -14l14 31 q6 10 20 8q-12 -49 -23 -105.5t-18 -89.5l-28 -270zM836 203l-91 -72l89 82zM1200 61q0 -55 -18.5 -105t-63.5 -118q12 63 30.5 116.5t51.5 106.5zM852 -233h-16l16 24v-24zM827 961l43 -46l15 13l-29 16zM635 922q-78 0 -119 -52.5t-106 -183.5l-27 -90q-6 -33 -8 -47 t-2 -47q0 -66 17.5 -115t47 -77.5t43 -39t41 -29t62.5 -18.5q-72 25 -127 99q-49 72 -58 133l-6 75q0 98 46 181.5t130 167.5l-90 -154q-14 -29 -24.5 -60.5t-16.5 -68.5q0 -109 23.5 -183.5t87.5 -127.5l51 -9l33 -2h26q16 0 54 11q115 70 175 186.5t83 267.5l-137 117 q-90 68 -168 68zM1118 922l-49 -258l-33 -269q14 121 45 297zM1061 831q-14 -47 -27 -143l-12 -131l29 156zM344 731l2 -8l35 68l-4 8zM266 731h-8q-61 -94 -88 -214t-27 -259q-27 -6 -45 18l-22 29l-2 -26q0 -55 37 -80l4 26q31 0 92 -73.5t108 -73.5q-78 55 -109.5 136 t-31.5 189v54l4 30q10 2 23 -12zM334 711l-41 -95q-18 -47 -19 -88l2 -24q0 47 19 102zM1147 481l20 109h-10zM1124 442q-35 -160 -57.5 -258t-56.5 -243l26 20l54 232q12 53 23 116.5t24 132.5h-13zM281 385q-4 -12 -5 -23q0 -14 10.5 -32.5t24.5 -16.5zM860 373l-47 -60 h14l23 31q6 11 10 29zM209 285l31 -103q33 -45 81 -78.5t101 -27.5q-72 18 -115 69zM1124 258l-8 -45l-10 -31q4 -12 8 -16zM985 1102l62 -37q53 -25 67 -57l10 14q-12 39 -53 55q-37 19 -86 25zM635 78l24 12q6 2 11 19q-31 -13 -35 -31zM979 1061q-25 0 -57 10l-48 12 q-12 0 -22 -8q41 0 94 -33l86 -61l4 14zM813 993l70 -35q41 -25 55 -57l-10 -8l47 -45l10 45q-25 39 -72 69.5t-100 30.5zM461 -285l20 -16l25 25l-19 4q-16 -1 -26 -13zM205 -328l26 -43q14 0 91 -33.5t108 -33.5zM584 -442l6 -13q6 -6 22 -6q12 0 19 12h-25z" />
<glyph unicode="h" horiz-adv-x="1243" d="M518 1632l39 -28q14 -12 8 -37q0 -106 -49 -387l-47 -283q0 47 8 132t35 261t27 289q-16 -109 -31 -215q-18 -92 -27 -137l-47 -301l-31 -246q27 6 39 72l13 73l2 -18l-2 -35q0 -18 10 -27q37 25 147.5 134.5t192.5 148.5l67 39q-131 -92 -242.5 -212t-209.5 -271 q6 -12 -1 -28.5t-3 -27.5l37 23l-29 -47q-25 -39 -27 -66l6 -24l187 321l-10 4q39 49 77.5 91t92.5 88l168 149q14 -6 26 2t19.5 10t11.5 4q14 -8 20 -14q0 12 17 21q16 6 30 0l7 -25q0 -14 -11 -41l-10 -29h-8l4 25l8 27q-6 16 -10 20q-43 -25 -60.5 -40t-31.5 -48l-8 -84 l2 -23l2 -16l-33 -233q-12 -117 -12 -213q0 -117 13 -216.5t52 -205.5l10 -17l11 -22q-55 -6 -78 41l-39 96l-39 131l-6 -43q0 -31 12 -78l25 -82l-23 2q-6 -6 0 -18q6 -14 17 -18l16 16l8 -21l-35 -20q-18 25 -26 92.5t-25 91.5l-14 97l-4 100q0 68 12 193.5t19.5 202.5 t7.5 128q-55 -33 -107 -88l-123 -139q-104 -168 -151 -262.5t-76 -223.5q-18 -6 -28.5 -37.5t-35.5 -33.5l-8 63q-18 -6 -26 -39q-4 -31 -9 -39l-8 66q-14 2 -28 -27q-8 -25 -29 -22q0 113 40 359.5t40 332.5l-60 -328q-12 -70 -23 -152.5t-22 -166.5l-47 -25q-6 8 -10 31 l6 29l8 41l-4 18q-16 -8 -22 -76q0 -61 -35 -73q4 63 10 129q10 51 14.5 84.5t12.5 81t20 92.5l6 -19l4 -33l-6 -77l-2 -58l47 252l-4 43l-26 -55l-13 6q0 147 31 336l59 354q12 -20 17 -53l-6 -27q-12 -6 -15 -22l15 -62q31 96 30 213l-30 7l2 143q0 39 20 106h13 q0 16 22 25l64 20l12 -34l-72 -615l6 -8q25 102 55.5 365.5t43.5 316.5l20 -33q0 -178 -18 -319l-68 -426q-47 -289 -61 -428l34 47l82 573q37 272 64 563l18 -34l11 20l6 14l6 -30l-6 -45l-6 -47l6 -35q8 14 14 40.5t6 71.5q0 78 43 121zM1079 1069l19 -2 q0 -37 -16.5 -102.5t-14.5 -94.5q12 8 17.5 20.5t17.5 2.5q-27 -156 -27 -320q0 -121 12.5 -233.5t36.5 -226.5l-6 -37q-37 49 -53 108l-23 174l7 205q0 84 6 142.5t22 105.5l-10 23q-23 -94 -33 -170t-14 -122t-4 -96q0 -43 2 -85t8 -80l18 -113q6 -33 33 -74l-10 -8 l-47 53q-6 -18 6 -55l14 -53q0 -16 -8 -31l-33 8q-16 0 -24 -16q-37 41 -47 131l-10 170q0 68 2 99.5t12 121.5t14 146.5t4 101.5l2 -39l-6 -78l-6 -80l6 -51l27 197q8 74 20.5 143.5t26.5 122.5h8v-25q8 -8 12 -10zM1112 1024q14 -6 16 -39q0 -23 -10 -43t-26 -16zM967 911 l2 56zM952 825v52h9v-52h-9zM975 -84l-4 -10l-10 -10h-15zM926 -135l-4 -35h-17l-4 35h25zM428 1315q-6 -6 -2 -19q6 -10 27 -8v8zM770 897l4 -4l23 20q16 16 22 33q-31 -18 -49 -49zM901 946l-49 -313q-8 -59 -12 -118.5t-4 -133.5l6 -135q0 84 2 154.5t8 127.5zM256 788 l10 109l-18 -115zM246 1444v45v-45zM166 780v-10l6 51zM158 731l-13 -33l-4 -39q0 -39 4 -51zM307 494l4 34zM371 418l8 67l-17 -77zM942 395l-6 -102v-42.5t5 -47t20 -51.5zM362 348l9 21zM231 233l-18 -38q-6 -18 4 -23q10 10 16 29q4 20 -2 32zM860 113l-4 26l4 -41v15z M236 1325l4 25zM197 1022q-14 -43 -15 -76q0 -14 4 -20z" />
<glyph unicode="i" horiz-adv-x="616" d="M422 1724l166 -247q-6 -18 -19 -31q-57 33 -88 74l-112 172zM336 1710l203 -291l-7 -8l-8 -4l-22 6l-19 10l2 -34q0 -25 -20 -27l-16 2l-46 20q-12 39 -73.5 122t-73.5 147q8 -6 25 -11q12 0 28 29q13 31 27 39zM256 1530l6 45q18 -18 45 -88t49.5 -83t26.5 -22.5 t19.5 -22.5t19.5 -30l-27 -4q-35 0 -59 27l-51 75l-56 97q-27 53 -26 92zM162 1589l174 -301q-37 8 -70 41t-61.5 92.5t-33.5 71.5t-16.5 28.5t-15.5 37.5q0 18 23 30zM502 1145q18 18 37 22q10 0 16 -16t6 -43t-6 -54.5t-10 -43.5l-56 -320l-63 -373q-10 -68 -21.5 -121 t-35.5 -130l-21 -13l-8 13l25 184l43 215l-11 8q-29 -68 -57 -182l-51 -211l-8 -4q-4 18 4 53l8 47q0 25 -12 37l-33 -86q-18 -70 -45 -92l59 303l-8 14l-29 -26l-22 -121q-18 -113 -41 -158l-12 14l81 373l72 357q12 68 24.5 162t20.5 192q18 -10 19 -49q0 -39 10 -49 q16 6 20 24l-6 43l6 21l19 -13q14 -10 28 -2l-104 -710q49 141 80 346l55 393q10 -8 10 -16l-2 -33h15l2 22zM199 1106l6 -31l-4 -37l-4 -37q0 -20 10 -36q8 8 13 19t5 34l8 67l23 -12l25 33q14 -51 14 -107q0 -23 -2 -50t-7 -56t-14.5 -65.5t-27.5 -86.5 q-16 -127 -30.5 -216t-35.5 -173q-31 -158 -96 -299q-6 16 -23 4l-22 -22q-6 4 -10 18l6 33q0 12 -15 20l113 582q-6 14 -10 51q0 37 7 60.5t12 38t18 34.5v80q6 31 12 66t29 88zM336 401l-23 -63q-6 -23 -2 -43z" />
<glyph unicode="j" horiz-adv-x="681" d="M412 1573q63 -12 125 -88l100 -129l-2 -45q-25 10 -43 37l-35 51q-12 -10 -12 -25l12 -35q10 -23 4 -43h-16q-39 66 -82 123.5t-98 87.5q18 0 49 -24l43 -29l12 6l-63 92zM434 1384l43 -47q41 -41 41 -75l-16 16q-10 10 -23 10l4 -37q-8 16 -35.5 44t-48.5 38 q0 -14 21 -55l22 -47l-53 49q-2 -16 19 -59q23 -35 20 -60l-33 27q-23 23 -41 16l-4 -45q0 -20 -18 -24l-23 8q-6 12 -71 78q-63 70 -64 110l10 10l64 -53q55 -49 84 -57q-6 31 -35 59l-78 66q18 0 19 16q-12 23 -13 33q14 10 27 10q-2 10 2 15l8 12q18 18 49 22 q29 0 66 -28zM541 1073q12 -14 22 -45l6 -55l-2 -47v-37q0 -47 13 -78l-39 -231q-25 -172 -80 -275q-10 -76 -29.5 -145.5t-54.5 -147.5l-107 -243q8 8 19.5 22t23.5 31l52 84l38 -10l-120 -195q-76 -109 -168 -152l88 125q70 92 69 162l-92 -127l96 197q0 -14 1.5 -19.5 t3.5 -7.5q33 33 48 57.5t19 47t4 41.5q-12 -6 -24 -25l-29 -51q78 225 111.5 394t46 288t12.5 231v25v102l-8 64q14 -6 21 -40t18 -44q6 4 10 30l-2 39q0 33 33 35zM608 1071l33 -41q0 -332 -50 -597t-177 -501l-29 7q115 227 169 525t54 607zM377 915q0 25 4 48.5t11 46 t42 28.5l6 -37l-8 -57l-8 -55l4 -25q0 -168 -18.5 -321.5t-76 -386t-145.5 -367.5q-82 -139 -104 -184q-16 -39 -37 -60q0 12 17.5 40t17.5 48q-18 -2 -31.5 -31.5t-25.5 -39.5l-2 24q0 47 47 148l49 110l22 88q0 -12 10.5 -26.5t26.5 -18.5q14 6 19 11l8 12l-23 31 q-12 23 -30 16q29 104 47 207.5t18 204.5q0 82 7 268t7 264l2 10q12 -18 18.5 -42.5t6.5 -59.5v-59q0 -29 4 -43q18 18 19 65q0 41 8 66l6 -4q-6 6 0 38l10 52l-2 18l23 12l6 -159l8 -127v-56l-8 -57l6 -12l20 86l7 98l-7 139l-4 103l4 -19q1 -25 19 -35zM489 920l-8 -66 l-2 -55q0 -39 4 -54zM272 641l-10 55l8 -61zM248 -317h-15l-2 -19z" />
<glyph unicode="k" horiz-adv-x="1378" d="M549 1640q6 10 24 27q23 14 35 14q16 0 25 -14l-53 -303l-58 -350q-8 -70 -14 -149t-6 -136l10 -14l465 438l-129 -152q-4 4 -19 5q-12 -4 -12 -15q-6 -37 -47 -78l-74 -69q-49 -23 -98 -72l-96 -92q0 -25 18 -31l209 185q184 164 305 301h13q-23 -63 -112 -139 t-116 -113l39 8q66 39 115 88l162 170l-27 -41q-18 -27 -23 -49q29 16 85.5 82.5t111.5 72.5l-2 -45l2 -47l18 13q6 6 11.5 8t9.5 4q6 -10 6 -14q2 -10 4 -13l-227 -194q-6 10 -19 14l-20 -14q-14 -12 -31 -8q-23 -45 -101.5 -98.5t-107.5 -78.5q10 -72 66 -153l108 -162 q25 -10 62 -63.5t51 -61.5q-18 35 -114.5 167t-118.5 212q147 -227 214.5 -312t155.5 -163v-23l-32 -4v-10q-4 -4 -21 -2q-12 6 -20 22l-21 -43q-113 90 -209 242l-186 297q-27 -6 -29 -29l12 -32l17 -37l217 -305q74 -106 106.5 -131t44.5 -50q-66 31 -144.5 134.5 t-113.5 136.5q-37 45 -94 145t-86 133l-6 -14q16 -51 48 -106.5t79 -116.5l180 -230q4 -12 35 -38.5t35 -57.5q-109 84 -211 240l-188 297q0 -37 41.5 -123t41.5 -138l27 -47q23 -41 62 -41q12 -49 84 -122l83 -95l-6 -45q0 -18 -12 -18l-18 6q-111 123 -222 258l-219 287 l-10 43q-4 18 -14 24q-35 -78 -55.5 -265t-45.5 -261l-2 37q0 37 2 54.5t15 68.5l16 108v25l-4 24q12 29 23.5 92.5t23.5 90.5v26q6 18 -4 23q-43 -6 -43 -62q0 -55 -10 -67l-45 -250q-8 -49 -19.5 -93t-27.5 -87q-10 0 -13 4v20q-12 12 -25.5 18.5t-13.5 26.5 q35 143 68 379l53 359l-26 -27l-37 -233l-11 26l-16 -16l-39 -268l-47 -304q-10 0 -16 21q0 18 -6 24l-39 -49q-29 -41 -68 -34l80 456q31 197 63 471q18 6 21 29l-6 33l-6 37q0 18 4 24q0 43 8 111.5t35.5 207t27.5 201.5l27 -14l16 43q8 35 31 45q0 -119 -3 -163 t-16.5 -149.5t-54.5 -340.5l-51 -381q27 53 39 182l21 178l41 281q31 233 67 375l19 -15l-21 -112l-10 -113q0 -51 12 -100l-26 -6q18 -25 18 -64l-8 -61l-8 -60q0 -27 8 -43l63 309l-10 29q2 6 3 10t11 19l19 37l4 94l-12 -21l6 88q6 -6 20 2l17 11q10 -9 12 -13zM272 1620 v-37v-24q0 -80 -5 -121t-12 -64.5t-24 -56.5q0 -109 -12 -193l-31 -206q0 -45 -8 -120t-34.5 -226.5t-26.5 -221.5q-16 -174 -60 -315q-12 8 -14 39l2 30l2 27q25 80 49.5 273.5t38.5 236.5q0 158 19.5 319.5t44 295t43.5 239.5q20 84 28 125zM590 1626h10v21h-10v-21z M578 1542l-43 -276l-33 -252l18 4q0 47 6 111.5t29 213t23 199.5zM1137 1026q14 0 22 21q-14 -2 -17 -6.5t-3 -6.5t-2 -8zM1112 1006l-31 -27zM477 844l-26 -170q16 16 24 47l8 61zM244 477l6 68zM223 430v-39q12 6 13 39h-13zM1174 240l-39 51l-7 -2z" />
<glyph unicode="l" horiz-adv-x="581" d="M514 1686q12 4 25 -9l12 -24l-62 -455l-57 -477q-10 -98 -16 -204.5t-6 -199.5q0 -43 72.5 -79.5t72.5 -75.5l-6 -33l-109 43q-61 31 -75 66l-13 53l-2 45v61v25v16q-4 10 -4 15q-23 -39 -22 -97q0 -76 28 -145q27 -27 107 -72l86 -47l-23 -26q-135 43 -201.5 85 t-66.5 136l12 151l4 160q-14 -39 -24 -98l-6 -119v-76l2 -72q18 -55 46.5 -98t71.5 -59l-38 2q-16 0 -29 -12q25 -31 84 -31q63 0 78 -4q-20 -16 -41 -25l-47 -8q-29 0 -88 18l-78 27l-41 41l-15 -14l31 -35q-6 -12 -26 -12q-16 0 -47 37.5t-56 119.5q-8 37 -14 83t-6 91 q0 47 8 126t34.5 241t26.5 213l23 16l20 6l4 -30l-8 -47l-6 -50l4 -30q6 14 13.5 42.5t17.5 104.5t22 123l-12 14q-12 -4 -18 -22l-4 -35v-33q-2 -12 -21 -14l-18 4q14 6 16 14l-16 39q0 82 45 298t45 296l30 2l58 -2l28 2h15l-37 -278q-25 0 -25 -13l11 -18l10 -23l-8 -14 l8 -115q31 80 43 209l24 250l19 15l8 -13l-131 -1005l14 -23l15 21l51 393l49 391q16 121 51 270l21 -20q10 -4 16 -21l-72 -673h9l59 401zM203 1309v-9l10 50zM201 1260q-18 -29 -19 -50l6 -18zM176 713l-22 -238l-9 -196q20 -16 34 -74t48 -76l-16 59q-12 53 -37 72 q-12 66 -12 133v72q6 37 8 55l18 174zM113 680q-12 -6 -13 -25q0 -18 13 -24q6 6 6 26zM96 481l-6 -41l-4 -30q0 -18 10 -29v100zM133 102l-41 68l31 -72zM268 121l-12 -23l45 -6l-14 17z" />
<glyph unicode="m" horiz-adv-x="1906" d="M1745 1030q10 6 18 6q14 0 35 -16l41 -37l-49 -260q-25 -135 -25 -240v-51l9 -78l18 -112l31 -133l-33 -13l-43 -8q-23 0 -37 16l-16 -14q-12 -12 -25 -2q-29 100 -39 179t-14 133.5t-4 113.5q0 201 49 360l-8 15q-31 -35 -47 -111l-19 -133l-8 -133v-61.5t8 -85.5 l51 -308q-31 59 -53 170l-26 166l6 213q0 55 5 101.5t17 123.5l-35 5q-12 0 -22 -9l35 -24q-39 -168 -39 -332q0 -236 76 -426q-18 -18 -46 -18l-26 6l-47 147l-6 -37q0 -25 14 -69l16 -54q-61 14 -69 78q-23 109 -23 246v115q6 51 8 76l15 149l-23 -6 q-223 -233 -307 -334.5t-141 -259.5l-17 33l-10 -19l-20 37q0 -14 -13 -31l-20 -22l-25 16l-6 -14l-35 72q-6 -6 -6 -19v-31q-2 -8 -16 -14l-8 74q-8 -6 -21 -41q-6 -33 -27 -35q-18 4 -24 8l-6 31q0 90 30.5 293t30.5 274q-4 12 -24 13l-189 -230q-61 -80 -122.5 -188.5 t-94.5 -227.5h-49l2 29q0 14 -12 21l-15 -29q-6 -23 -28 -21l-9 19l9 27l8 24q0 10 -19 21q-12 -8 -18 -46t-29 -45l-8 50q-6 -4 -13 -9.5t-24 -21.5l-10 35l-10 -13q-2 -8 -15 -6l29 260q12 121 12 226v24v76q-6 49 -8 74q0 43 -7 73.5t-26 88.5l29 6l27 4q20 0 30 -10 l7 24q0 16 14 23q16 -2 22.5 -36t14.5 -42q12 6 12 35l2 32q12 -12 33.5 9.5t36.5 23.5q12 0 28 -22q0 41 43 41l29 -29l41 -324q211 180 284.5 236.5t128 84.5t126.5 50q-6 -12 -29 -27l-43 -20l-55 -37q-45 -27 -47 -59q-109 -90 -232 -244l-223 -287l-8 -43q0 -12 8 -20 q109 150 223.5 293t191 226t115.5 116l74 55q33 6 66 -12l-31 -150q-8 -39 -14.5 -83t-6.5 -70q20 37 39 122l35 160v62q18 6 31.5 -6.5t19.5 -34.5q0 -33 -6 -87.5t-26.5 -180.5t-20.5 -162l344 337q20 8 101 76t135 68q6 -14 20 -17q6 2 11.5 4.5t25 16.5t35.5 8z M1507 899q-14 -18 -52 -53t-100.5 -93.5t-84.5 -97.5l45 41q-27 -61 -114 -151t-116 -146q111 141 277 308l270 272q-31 -4 -78 -41zM367 956l16 -77l-4 34q0 12 8 23q14 -4 21 -10l-15 26q-3 8 -26 4zM209 883l-19 -4l13 -50q0 -37 22 -49q0 -23 -8 -28l8 -82l2 -58 q0 -66 -6 -127t-10 -100l-14 -209q51 135 51 275l2 100l2 98q0 27 -1 58.5t-6 64.5t-12.5 56.5t-23.5 54.5zM387 864q-6 -4 -4 -16l18 -14zM942 858l-49 -244l-31 -219q60 246 80 463zM1772 827l6 25zM1765 801l7 14zM680 811q-37 -23 -58.5 -42t-29.5 -27.5t-25 -32.5 l6 -13zM811 756l6 -17v13zM1479 702l4 13zM950 692l-35 -157q-12 -59 -12 -111v-25zM1466 584l13 84h-11zM455 567l41 43q20 20 28 47q-25 -6 -50 -35.5t-19 -54.5zM987 528l14 119l-22 -147zM281 635l4 -51q6 20 -4 51zM526 584l41 47q-16 0 -24 -17zM1135 506l32 43 l-45 -57zM1102 467l8 20l-14 -32zM1059 416l16 30l-22 -43zM281 444l4 -26l-6 -47l-7 -43zM883 311l6 54zM848 326q-10 -33 -14 -68l4 -25q16 29 16 64z" />
<glyph unicode="n" horiz-adv-x="1179" d="M1077 1036l25 -55l-33 -147h-14q0 -39 -8.5 -99.5t-35 -185.5t-26.5 -213q-4 -35 16.5 -66.5t40 -49t37.5 -17.5h33q18 -2 12 -29l-55 -24l10 -27q8 -20 6 -41q-59 -43 -141 -43l-72 6q-41 6 -104 33q-49 25 -67.5 68.5t-18.5 111.5l6 88l10 78l50 301q-41 -10 -70 -35 l-107 -104q-72 -78 -182 -232l-162 -229l-10 -33q-8 -10 -14 -14q-6 16 -23 16q-10 0 -26 -12l-2 33l-31 -58q-12 6 -15 21l5 22l6 21q0 12 -8 22q-10 -8 -29 -59q-12 -45 -47 -39l-15 -14v88t5 78l38 321q12 59 19.5 100t24 166t16.5 228q18 8 31.5 -6.5t19.5 -16.5t8 -4 q0 -51 -13 -149.5t-17.5 -136t-4.5 -70.5l29 26l-2 25q0 10 2 32.5t8 53.5l13 80l-5 37q16 18 19 49l2 47q10 -6 16 -4t9 10l6 43q18 6 30.5 -6t12.5 -37q0 -49 -24.5 -186t-24.5 -189l6 -69l8 2l76 465l14 16q10 -25 14 -61l-8 -56l-6 -65v-19l-47 -233l10 -23l16 29 l64 410l8 12l12 6q12 -47 13 -92q0 -39 -3 -58.5t-14 -66.5l-37 -166l17 -12q39 23 144.5 128t174.5 117l129 93q106 78 193 77h33zM969 1024q6 -18 16 -18zM1016 1008l43 -29l-8 20q-2 18 -15 21zM977 973l-14 12l-17 -12h31zM956 903q-47 -115 -73.5 -255t-44.5 -337 q0 -55 9 -85.5t46 -51.5l-23 76l-6 88q0 66 25 201l26 159q61 98 91 238q-10 0 -29 -12zM795 883q6 -31 -33 -52.5t-47 -42.5l96 64q37 31 31 74l-29 -15q-12 -5 -18 -28zM612 819l-135 -131l4 -4l62 51q51 43 69 84zM692 819l-55 -55q-18 -18 -25 -33q6 14 35 27.5t39 29.5 q10 8 10 15zM1010 741l18 60zM842 774q-29 -45 -29 -94l2 -25l16 58zM266 354l187 205l153 166l-190 -178q-99 -93 -150 -193zM999 709h-10q4 -31 -11 -75t-20.5 -65.5t-7.5 -38.5l6 -32zM141 612l-69 -389l6 -10q37 158 46 222.5t13 102t4 74.5zM803 602q-25 -51 -37 -147 l-14 -123q0 -68 26.5 -122t81.5 -85l51 -14l58 -7q37 0 63 11q-80 0 -131 14t-94 64q-20 29 -28.5 61.5t-10.5 41.5t-2 34q0 41 18.5 141t18.5 131zM242 518l-2 14l2 -22v8zM952 489l-4 -81l-4 -60l6 -59q6 -25 27 -53q-16 27 -25 53l-6 67l2 66q0 44 4 67zM326 293l6 18 l-13 -22zM915 184q-4 -10 5 -14l20 -4z" />
<glyph unicode="o" horiz-adv-x="1198" d="M434 979q51 14 128 46t126 44t88 12q-78 0 -170 -53l-172 -102v-11l203 95v-23h18q0 31 45 43l91 21q66 0 110.5 -16.5t81.5 -35t68 -38.5q106 -129 106 -320q0 -49 -4 -73.5t-20.5 -99.5t-89 -188.5t-189.5 -179.5l-96 -45q-80 -35 -127 -35h-19q-135 0 -227 13.5 t-182 56.5q-80 68 -110 168t-30 219q0 152 104.5 282t266.5 220zM664 963q18 0 51 -11l53 -8l27 6q-35 20 -84 21q-31 0 -47 -8zM844 967q14 -14 32.5 -23.5t18.5 -23.5h20q66 -59 108 -141.5t56 -178.5l6 47q0 29 -12 72l-22 80l-86 108q-55 60 -121 60zM707 893l-52 8 l-30 4q-20 0 -31 -8l29 6q18 0 47 -10l43 -10zM471 897q-82 -55 -128 -108.5t-62 -135.5l-2 -59q0 -39 -5 -59q0 -37 5 -54l20 -41l2 31l-2 41l-4 41l2 25l-2 24q0 80 63 164zM774 887q78 -12 127 -94l72 -150q14 -43 14 -76q0 -29 -8 -62.5t-27 -66.5l-63 -127q4 25 26 80 l33 88q8 27 9 49.5t1 34.5q0 51 -16 103.5t-53 103.5zM377 883q-106 -57 -174 -180t-68 -261l25 119l96 191q41 76 121 116v15zM565 868q14 -14 56 -20q35 0 55 -12q-16 10 -51 20zM506 836q-55 -25 -93 -81.5t-38 -123.5l-10 -99q0 -94 34 -170q37 -72 82 -102l88 -41 q41 -12 82 -12t72 14q47 43 68.5 106.5t21.5 135.5v31q0 14 -4 38q0 27 -14 76q-14 12 -27 35l-14 47q-35 68 -102.5 107t-145.5 39zM700 836l-4 -11q53 -33 98.5 -82t69.5 -108q6 53 -40 102.5t-124 98.5zM1122 696h-14q-6 -6 -2 -24l16 -25v49zM889 588h-10v-62h10v62z M246 561l-8 -47l-2 -53l2 -51l2 -41q18 -86 87.5 -148.5t161.5 -87.5l-8 6q-109 49 -174 154q-31 53 -47 109.5t-16 121.5zM1106 514l-4 4l4 -12v8zM190 436q0 -74 25 -141.5t78 -93.5q-35 39 -57 88zM770 135l6 -8q49 27 88 52.5t92.5 73.5t77.5 130q-55 -70 -106 -119 t-86 -77.5t-72 -51.5zM190 295q10 -53 46 -105q39 -51 69.5 -71.5t41.5 -25.5t35 -11t71 -6l55 2l51 2q-119 0 -220.5 56.5t-148.5 158.5zM860 264v29l-57 -82zM344 162l-14 8l24 -16z" />
<glyph unicode="p" horiz-adv-x="1384" d="M1176 1077q51 -27 85.5 -57.5t42 -68.5t11.5 -62.5t4 -54.5q0 -84 -35 -183l-65 -190q-94 -201 -305.5 -303.5t-460.5 -102.5q-25 -70 -48.5 -261t-29.5 -212h-15l23 195q18 147 18 219l-36 -170l-31 24q-8 -6 -17 -22q-6 -16 2 -35q31 -16 31 -57q0 -18 -12 -60l-19 -69 l-14 -33q-6 -10 -26 -10l4 147l4 109q-12 -18 -39 -113.5t-68 -124.5q23 33 29 107l8 127q-29 -16 -42 -51t-13 -84q-8 -14 -19.5 -77t-33.5 -81l-9 37q0 18 6.5 39.5t17.5 52.5t11 53q0 119 3 168t14 166l36 385q18 195 19 344q0 164 -21 301l19 21q6 -20 26 -13l11 15 l30 -240l19 -18q16 33 16 71q0 27 -12 82l-10 76l6 39l24 4q53 0 54 -70l6 -2q12 0 12 23l2 33l12 -72l2 -82l-2 -74v-74v-53l5 -33q12 25 22 82l6 101l-2 43v45l-12 129q12 -4 18 -8t21 -21l39 -39v-45q0 -35 5 -47t21 -10l-20 -29l-6 -22l4 -15q25 12 65.5 58.5t85.5 76 t81 48t83 41.5q98 39 182 38q99 0 177 -51zM709 1069h-11l21 8zM121 1051l18 16q6 6 19 2q10 -78 18 -191.5t8 -203.5q0 -150 -12 -295q0 -78 -16.5 -217t-22.5 -209l-29 16q-10 6 -10 27q16 92 21.5 131t5.5 100q0 51 5 143.5t5 114.5l-6 332zM690 1063l-125 -98 q10 14 23.5 27.5t45 37t56.5 33.5zM813 1069l27 12q16 12 30 9q-4 -14 -28 -15q-19 0 -29 -6zM1034 1069q53 -27 92 -65.5t64 -94.5l10 -92q0 -109 -55 -205q29 76 29 162q0 84 -25 150.5t-88 122.5zM938 1102v-12q10 -6 37 -11q31 0 33 23h-70zM793 1063l6 -4l-13 -8z M477 936v70v-70zM805 999q-78 -35 -140.5 -84t-99.5 -122l66 55l4 -12q-12 -25 -71.5 -86.5t-69.5 -128.5l122 178q63 92 144 155q12 12 39 7zM938 989l-6 -8q88 -115 112.5 -164t24.5 -110v-19l4 33l2 35l-6 65q-8 33 -18.5 56.5t-35 58.5t-77.5 53zM389 932q-4 -4 -8 -27 v-12q6 -2 10 -2zM829 932q-158 -94 -258 -231.5t-100 -305.5l6 -76q27 -20 70 -32q41 -8 55 -9.5t33 -1.5q72 0 125 21q92 53 144 149.5t52 202.5l-4 56l-4 45l6 43q10 -10 17 -54q0 -35 16 -51q0 25 -3 38t-13 48l-17 78q-16 33 -52 56.5t-73 23.5zM1214 909v-192 q23 35 23 78q0 35 -10 63zM535 831l-23 -30l-10 -35q14 10 25.5 27.5t7.5 37.5zM979 639l-25 -121q-6 -47 -34 -86q-23 -37 -27 -55q49 29 67.5 84t18.5 135v43zM1198 578l25 43zM1038 555l4 63l-30 -108zM272 492l-41 -461l-12 -51l-4 -50l6 -51q12 10 12 31q0 39 13 51 l20 252zM1171 449q-70 -106 -180 -194.5t-231 -133.5q129 23 238.5 113t172.5 215zM791 227q39 0 61 15l127 104zM348 319l-26 -202q-12 -104 -13 -183q0 59 20.5 175t20.5 161zM467 248l-8 -21l43 -26q27 -10 67 -11q37 0 60 5l65 16zM705 203q43 0 45 20l-33 -8 q-12 -8 -12 -12zM459 121v-31q25 0 37 -4h28q49 0 102.5 8t108.5 27q-18 0 -43.5 -2t-58.5 -8l-80 -9l-49 2q-20 5 -45 17z" />
<glyph unicode="q" horiz-adv-x="1316" d="M928 1126q53 -14 92 -43q37 -23 53 -67q12 -4 12 -27q0 -27 5 -31l55 86l-33 -135q10 10 35 66q18 53 29 63q12 -18 16 -53q0 -23 -18.5 -73t-22.5 -65.5t-6 -37.5l-41 -143l133 288l16 -14q-96 -238 -139 -401.5t-57.5 -267t-14.5 -216.5q0 -129 21 -239q-20 6 -30.5 54 t-37.5 50v-42t9 -93l10 -98v-31q-53 59 -72 176l-27 215q0 104 12.5 207.5t41.5 220.5l90 375l-23 -23l-84 -307q-4 -16 -20.5 -92t-35.5 -195.5t-19 -248.5l6 -131l-64 18l-6 68l-2 73q0 166 43 363l84 381l-10 14q-49 -49 -68.5 -168t-44.5 -160l-45 -227q-6 -49 -10 -94 t-4 -98v-56.5t9 -79t30 -112.5q12 -25 22 -99.5t27 -109.5l-107 -4q-23 55 -39 127q-10 72 -10 141q0 27 2 74t8 112l11 177q-135 -98 -213 -130t-154 -32l6 16q6 12 -2 19q-12 0 -12 -19v-16l-94 16q0 10 25.5 26.5t27.5 30.5l-6 17l-121 -27l-21 4q-72 51 -101.5 136 t-29.5 190v55q0 12 2 40t9 67q35 133 123 250.5t217 195.5l-148 -151l14 -9q121 121 270.5 193t309.5 72q25 0 54.5 -2.5t62.5 -8.5zM831 -174q25 12 41 12q39 0 51.5 -88t30.5 -110q-8 -12 -16 -17q-12 -6 -23 2q0 29 -10 31l-2 -21l-2 -32q-16 -4 -29.5 13t-13.5 40l2 20 q0 18 -18 66l-17 57zM1063 -203l12 -39l10 -41q-35 16 -34 52q0 12 12 28zM991 1044l27 -32v12l-14 16zM686 967l-4 -13q55 0 105.5 -31.5t86.5 -86.5l5 32v31q-35 31 -86.5 49.5t-106.5 18.5zM590 903q-98 -20 -148.5 -106t-72.5 -170l-19 -90v-23q0 -20 1 -44t17.5 -64.5 t42 -70.5t56.5 -40l61 -8l43 2l45 2q131 37 168 201l47 272v-12l-6 -11l-10 2l-10 13q-23 63 -72 106t-112 43zM106 717l52 63q37 43 43 74q-39 -39 -61 -68.5t-34 -68.5zM254 713q-113 -154 -113 -334q0 -55 13 -111h20l-4 19q0 16 -6 26q0 113 21.5 213.5t68.5 186.5z M84 657l8 35l-26 -86zM145 666v-21v21zM1104 645q-29 -66 -45 -139l-27 -172h8zM287 555q-6 -25 -10.5 -45.5t-4.5 -46.5q0 -43 9 -82l26 -84l-16 14q-6 6 -12.5 8.5t-8.5 4.5l64 -86q55 -33 119 -33l43 6v8h-43q0 27 -11 29l-18 -10q-8 -4 -27 -5l-57 33q-20 12 -25 31 l72 -33q-102 96 -102 244zM594 166q14 14 70.5 46t62.5 75l-74 -56q-34 -24 -59 -65zM207 260l-4 -33l73 -73q29 -27 70 -21zM768 1118q-219 -55 -377 -160.5t-231 -281.5q162 188 336 304t376 116zM776 1049v-17q37 -6 78 -31l61 -38l29 -52q12 -29 12 -55l-2 -20 q27 33 27 71q0 41 -39 62q-27 31 -56.5 44t-47 19.5t-62.5 16.5zM768 -297q-6 -10 -6 -27q0 -18 10 -24z" />
<glyph unicode="r" horiz-adv-x="956" d="M827 1090l11 -99q0 -96 17 -179t24.5 -112.5t31.5 -105.5l-10 -35q0 -23 -4 -29q-29 10 -36 -18.5t-34 -19.5l-57 104l-25 61l-8 -36q0 -27 8 -43l62 -103q2 -12 -6 -20l-25 -6q-47 47 -71 139l-37 178q-18 -12 -19 -39l13 -80q4 -35 8 -53.5t20 -56.5q18 -59 55 -138 q-20 0 -22 -14l2 -27q0 -12 -18 -22q-43 43 -72 129l-41 162l-2 41q0 18 -14 53q-8 -2 -29 -27l-23 -28l29 4q-90 -125 -141.5 -270.5t-87.5 -340.5q-8 -10 -60 -16l49 221l-71 -207l-33 -14q53 135 53 281q-29 -45 -52.5 -155t-35.5 -134l-45 -21q-31 -12 -45 -39 q-23 8 -35 37l-14 41q20 88 40.5 204t43 292t22.5 399l27 6q23 4 31 19q43 -16 55 -70l18 -178q0 -45 -24.5 -146.5t-24.5 -136.5q0 -55 -28 -155l-31 -121l20 24l68 242q55 184 55 305q0 33 -2 62.5t-9 66.5t-42 107l8 14q18 -10 35 -49l27 -78q10 14 10 37q0 25 -10 53 l-15 43h49l-2 43q49 -10 50 -73q0 -61 20 -80l8 30l-4 58q0 29 23 41l14 -80l4 -92l-2 -64v-59q43 31 78 70.5t45 82.5l47 37q43 37 55 76q16 0 27.5 10.5t15.5 30.5l2 8l9 6l18 -20q12 10 16 43v22q0 12 17 13zM725 987l-2 -14zM180 942q27 -100 27 -190l6 67l-6 72 q-7 24 -27 51zM715 922q-6 -16 -6 -39q0 -20 10 -33l4 4l6 41q0 19 -14 27zM371 590h8q31 90 31 192v33l-4 35zM571 778l-90 -90l-16 -41l6 -16l64 80q24 34 36 67zM651 559q0 -41 15.5 -82t40.5 -57l-25 67q-13 47 -31 72zM358 473l-32 -113q18 12 24 50zM106 166l-14 -29 q-6 -12 2 -22zM162 154q-2 -8 -4 -18.5t-12.5 -40t-10.5 -52.5l23 57q4 21 4 54z" />
<glyph unicode="s" horiz-adv-x="1114" d="M731 1081l49 4q49 0 97.5 -12t99.5 -37q16 4 35.5 -2t46.5 -35v-16q-20 0 -43 8q-18 12 -25 27l6 6l-18 8l-29 -6q-14 10 -18 18l-115 13l-115 14q-39 0 -57 -4q-25 0 -59 -23l155 -6q55 0 138 -20l14 -23q8 14 41 17l29 -2q20 -10 45 -43l43 -45q-12 -59 -37 -60 q-16 0 -62.5 43t-72.5 41l-76 19q-25 6 -33 26l-45 -8l-74 8l-55 10q-33 0 -61 -18q8 -23 24 -27l25 9l22 10q4 -2 9.5 -4t9.5 -10l43 4h31.5t38 -5.5t45 -10.5t44.5 -15l17 -37q10 10 24 14q10 0 39 -18q23 -18 41 -21l19 -26l12 -45q-176 78 -249 99.5t-138 21.5l-70 -7 l215 -45q-18 0 -54 12.5t-54 12.5q-14 0 -39 -12l133 -33q127 -31 182 -94l-143 49q-53 18 -99.5 28.5t-87.5 10.5h-34l-49 -8q-37 -6 -37 -52q0 -27 18 -61l62 -51v30q33 -37 209 -135t188 -227q12 23 12 43q0 23 -12 51l-23 53q-12 12 -174 110.5t-198 170.5 q39 -53 239.5 -159.5t200.5 -260.5q0 -63 -19.5 -115.5t-64.5 -87.5l25 84l10 58q0 41 -23 71l-8 -79q0 -59 -20 -97q6 -49 -46 -98l-55 -43q-129 -61 -278 -61q-225 0 -377 118q12 0 24 19v20l-28 -8q-23 0 -41 21l-37 69q-6 27 3 37t34 23l67 -115q29 -47 64 -68l67 -33 q31 -12 33 -45l62 -2q4 -14 8 -22q6 6 31 10l47 -4q18 0 34 12l-88 15q-33 6 -57 36q-31 0 -55 13l-111 80l-37 53q-14 25 -14 45q0 12 8 27q35 -86 105 -154q68 -59 153 -72l74 -12l63 -4q45 0 78 16q-47 8 -103 20.5t-134 32t-146 93.5l-71 108q10 -4 28.5 -31.5 t34.5 -37.5q-12 25 -12 57q0 43 24 78q31 -74 94.5 -130.5t153.5 -99.5q16 -16 45 -28q25 -6 68 -6h28q14 0 44 4l47 6l30 61l-2 -45l21 4q12 8 12 13q0 96 -61 161l12 -53l16 -49q-37 102 -210 169t-218 122q-43 59 -61.5 104t-18.5 92q0 31 13 68q18 72 72.5 140.5 t129.5 90.5l2 -28l62 30q23 14 37 35l-8 4h-15l78 39q37 16 74 17q30 -1 57 -15zM827 838v8l21 -8h-21zM281 336q74 -86 164 -136t194 -50l68 6q-16 -16 -54 -17l-32 2l-31 2q-39 0 -80 13.5t-98.5 46.5t-130.5 110v23zM399 866q23 2 52.5 38t40.5 63q-43 -16 -68 -38 t-25 -63zM379 813l-8 -22v-43.5t7 -46t38 -56.5l-17 78l-6 63v19zM344 793q-16 -16 -23.5 -39t-7.5 -54l2 -43q0 -25 4 -39q0 -55 29 -74.5t73 -41t56 -27.5q-66 25 -105.5 85.5t-39.5 129.5q31 -115 231.5 -222.5t218.5 -234.5l6 54q0 102 -166.5 185t-199.5 118t-51 102z M299 825l59 62l66 74l-88 -70q-29 -29 -37 -66z" />
<glyph unicode="t" horiz-adv-x="956" d="M391 1657q6 -10 10 -41v-49q-14 -12 -24 -56l6 -4h14l17 39q0 -59 -32 -166.5t-32 -162.5q0 -41 8 -68l23 57q18 43 25 76l47 219l-7 -112l-40 -240q12 -6 18 -6h20q23 51 41 174l35 252l25 12l4 -31q0 -27 18 -37q12 12 13 48v28q0 14 16 25l12 -15l-12 -247h12 q8 23 20.5 138.5t47.5 166.5l6 -8l-59 -465q12 -12 39 -23l51 -6l53 2q37 0 57 -10q25 -6 39 -39l-39 -43l-14 -27q0 -16 29 -30l-4 -23l-152 27q-23 0 -37 -4t-29 -23q16 -16 101 -29q74 0 100 -30l-55 4l-51 6l-31 -2q10 -12 72 -25q61 -6 61 -35q0 -16 -14 -43l-90 13 l-86 14l-50 -6q-37 -158 -63 -326l-61 -467q-12 -6 -35 0q-16 8 -23 29q16 72 27 162l8 190q-29 -49 -47 -211q0 -76 -17.5 -126t-50.5 -87l-35 39l50 348q41 285 75 441q-6 18 -30 8q-18 -49 -31.5 -154.5t-23 -166t-12.5 -82t-5 -48.5q-10 -41 -16.5 -79.5t-18.5 -68.5 t-20 -71l-4 -51v-47l-2 -37q0 -18 -11 -31q-29 20 -28 82l118 733l-6 13l-26 -25q-66 -350 -140 -852l-18 2l-18 27q-12 -8 -17.5 -20.5t-17.5 -2.5q-6 14 6 25l29 18l-35 47l102 762l-33 6l-53 -8l-47 -8q-27 0 -43 10q0 31 12.5 45.5t75.5 49.5h35q29 0 41 5t24 25v17 l-110 12q-2 12 21.5 27.5t23.5 25.5l-6 17q18 0 47 14l35 18l-68 13q49 12 81 40.5t32 79.5q0 59 9 114.5t17.5 100t20.5 84.5h12q0 -53 -23.5 -194t-23.5 -184q35 35 56.5 182t25.5 153l12 80q0 70 41 107zM477 1649q18 -6 19 -25q0 -14 -17 -47l-14 -35l-6 31q0 20 4 33z M580 1479q-18 -139 -27 -162l-25 -66q6 -4 11 -20l-4 -27v-35l28 88q6 -4 10 -24l-6 -45l6 -19l23 148l-29 -47l6 96l9 76zM715 1143l-21 6zM188 1040l-41 -10q-12 0 -12 -12l39 -2q16 0 25 10l-2 8zM420 979l-29 8l-6 -29zM96 877h37q29 0 35 20q-18 0 -41 -10zM512 852 q-18 -51 -31 -121l-8 -137l29 100q16 53 16 99z" />
<glyph unicode="u" horiz-adv-x="1261" d="M950 1049q0 -41 -19.5 -87.5t-30.5 -76t-15 -49.5q39 37 86 120l53 91q25 -12 57 -13q31 0 54 15l-82 -156q-33 -63 -51.5 -117.5t-18.5 -95.5h14l115 303l18 -18q12 6 21.5 37.5t30.5 37.5q6 -6 -2 -24l-11 -23l33 15q6 -45 -25.5 -106.5t-35.5 -94.5l-66 -270 q-18 -92 -18 -213q0 -10 18 -39l17 -35q0 -12 -9 -23q6 -18 44 -35.5t38 -33.5l-6 -21q-12 0 -37.5 17.5t-42.5 17.5l21 -29l-19 -8q-12 0 -28 15l-43 57l-56 88q-27 53 -26 113q-12 -29 -13 -60q0 -57 36 -114.5t100 -110.5q-14 -4 -25.5 -21.5t-18 -22.5t-12.5 -9 q-6 2 -11 4t-13 12q-6 29 -21 43l-45 47q-6 -6 -10 -20q2 -6 4 -11.5t12 -19.5l17 -31l30 -24q23 -12 27 -25l-8 -16q-37 6 -59 47l-44 80q-25 61 -24 141q0 51 3 72.5t13 72.5l35 160q-27 -6 -39 -33l-24 -92v8q-18 -4 -25 -22l-10 -60l18 -161q10 -76 41 -125l86 -105 l-43 -20l-31 -8q-23 0 -40 32l-109 150v90v37l-2 31l-2 28l-229 -198q-92 -78 -197 -125l-4 8q227 166 430 418l-12 22l-375 -354l-15 2h-8q-29 0 -59 -49q-25 -49 -68 -39q-51 6 -93 49t-54 107q-12 98 -12 196q0 76 6 152.5t27.5 198.5t72.5 282h10l4 -45q0 -27 -6 -62.5 t-27.5 -121.5t-21.5 -117h14l70 307l12 14q6 2 11 2l2 -20l-6 -45q0 -20 16 -37l-55 -268l61 215l43 168l29 -23l14 23q4 8 21 4q4 -4 4 -25l-2 -22l36 39q0 -88 -34.5 -226.5t-47 -205t-12.5 -105.5v-33l4 -35q-6 -6 -10 -30q0 -23 10 -49l21 -50l26 -28l27 -6q10 14 10 30 q0 10 -18.5 51t-18.5 60q0 160 22.5 285t74.5 327l30 47l7 -55q0 -59 -23 -96l-47 -211q-23 -106 -23 -215q0 -100 14.5 -146.5t19.5 -50.5t7 -4l21 12l98 80q86 70 203 281zM1120 846q-43 -70 -66.5 -149t-45.5 -197l-2 -49l-2 -52q0 -53 11 -84.5t42 -54.5l-21 47 q-23 41 -22 125q0 86 51 240zM219 756q-10 -31 -26.5 -88.5t-33 -124t-16.5 -158.5l7 -90q6 -37 24 -80q2 -25 25.5 -44t48.5 -26l-27 33q-20 23 -16 45q-43 74 -43 170q0 41 4 76t18 90l47 184zM850 756l-225 -297q37 31 74.5 72.5t86.5 111.5l48 59q12 21 16 54zM928 688 l6 35l-4 6zM121 307l-6 -16q0 -57 18.5 -102.5t63.5 -65.5l-60 100l8 25q0 16 -4 24zM752 270v37v-37zM1040 219q-4 -10 11 -26l28 -17z" />
<glyph unicode="v" horiz-adv-x="1179" d="M416 1049v-148q0 -111 4 -208t8 -158q0 -70 14.5 -134.5t44.5 -156.5l11 -6q131 166 210.5 330.5t79.5 349.5l3 -27v-35q0 -35 6 -53q16 16 22 82l6 63l13 -4l8 -74q0 -61 -19 -129l-34 -129q39 51 68.5 158t40.5 145.5t20 55.5l8 -101q0 -143 -78 -296.5t-305 -385.5h22 q109 80 212.5 217.5t215.5 413.5l-6 45l6 58l7 55l-3 29l7 -2l8 2q6 -8 6 -15l6 -14q18 0 21 22l-2 27q0 12 20 12l10 -39l19 9l18 12q14 -8 19 -16q0 -180 -69 -327t-194 -298l-241 -287l-23 -16q-4 -4 -20 -4q6 29 32 59l50 47l-6 10q-8 -18 -67.5 -51t-59.5 -61 q0 -12 12 -37h-43q-14 4 -33 20v-57q-57 49 -88 143l-41 181q-16 70 -25 157l-6 201l2 143l2 140q20 0 33 30q8 31 31 35v-22l6 -17zM223 879q6 12 12.5 67t36.5 68q0 -94 1 -194.5t3 -209.5q0 -115 27 -273.5t90 -299.5q-20 0 -49 -24.5t-43 -28.5q-14 0 -31 10l-30 59 q-4 -8 -17 -10q-12 0 -14 16q-33 63 -62 170l-47 166l-32 209q-10 102 -11 174l6 109q2 20 8.5 50t14.5 56l16 -20l19 -55q10 2 16 43q0 39 29 45l-6 -39l6 -52l6 -51l-6 -39l12 -6q14 25 15 62l8 75q6 -6 6 -38q0 -29 16 -39zM963 963h8v-31q0 -45 -8 -84l-13 -78 q0 23 -4 35v24l6 74zM385 977q-12 -37 -12 -82q0 -37 12 -72l2 58l4 55zM336 879v71l-12 -121zM129 901q0 -299 13.5 -441.5t45.5 -260.5q-16 88 -32 237l-21 271l-4 38l2 58q0 29 4 43v33zM213 721l45 -352l-10 2l-17 153q0 45 -4 86t-14 111zM326 494h10l-10 102v-102z M754 549v-23h8l4 23h-12zM504 215q18 10 35.5 29.5t23.5 42.5l-45 -39q-16 -15 -14 -33zM700 260l-176 -137l17 -12zM555 238l-39 -60l23 23q22 21 16 37zM287 215q0 -94 53 -156zM209 139l-21 39l21 -61v22z" />
<glyph unicode="w" horiz-adv-x="1712" d="M1591 1124q18 -23 25.5 -61.5t9.5 -53t10 -38.5l9 51q0 35 -5 47l-4 23q18 -18 25 -48l8 -61l-2 -57q0 -37 -20.5 -181.5t-171 -375t-394.5 -324.5l-20 27q-8 12 -31 8q-4 0 -8 -12l4 -13q-6 -8 -10 -10l-41 33q-6 -25 -19 -37l-32 -21q-70 59 -98.5 121t-120.5 357 q-63 -51 -194.5 -213t-188.5 -207l-25 22l-23 -63q-10 0 -20 12l-10 39l-4 41l6 94l8 78q0 51 -14 92l-15 -63l-4 -64l4 -96l4 -70l-6 -71q-4 16 -30 16q-16 0 -25 -16h-8v127l2 131q0 332 -16.5 483.5t-51.5 280.5q14 2 23 -9l16 -20q0 -61 12.5 -108.5t42.5 -112.5l7 59 q0 53 -13 96l-30 95q25 12 38 12q33 0 51.5 -61.5t32.5 -81.5l45 -572l7 4l-13 332l-10 299q-6 27 -15 40t-20 17l-16 -8q-6 12 6 19l35 12q25 4 37 -27l24 -59q12 -61 17.5 -125t5.5 -139q0 -96 5 -149.5t19 -119.5q16 -4 23.5 11.5t17.5 19.5l-36 -61q14 0 34 26l35 60 q-2 12 -14 6q80 127 147.5 262t110.5 264l22 8l23 11q10 0 16 -23l-4 -41l-4 -41l2 -24q14 2 17 26q0 25 8 30t16 31.5t23 28.5l18 -6v-39l41 39q35 35 68 41l-9 -39l54 43q0 -279 20.5 -447.5t112.5 -320.5l-10 -8v-12l59 59q66 190 93.5 298t27.5 222q0 90 -21 166l35 17 q39 -113 39 -222q0 -150 -52 -288t-145 -273q31 8 64 47t96.5 160t63.5 338q0 123 -37 244q25 -33 36 -73t15 -64.5t4 -55.5q0 -20 -2 -54t-8 -79l-10 -129q39 51 51 189q0 63 5 101t13 64l-12 60q-12 37 -12 55l6 27l22 -21l23 6q18 0 30.5 -46t30.5 -58q6 12 6 29 q0 16 -10 45l-10 45l4 18l18 -10zM37 1047q18 -12 33 -52l18 -47q0 -72 4 -138.5t23.5 -260t19.5 -283.5v-76l-8 -79l-29 -27q25 0 25 -21q-2 -14 -4 -18l-4 -16q-18 -18 -31 -19q-6 6 -8 29l6 33q-16 109 -25.5 219t-9.5 211q0 160 -22.5 292t-57.5 230l8 8q6 -6 21 -10 q10 0 41 25zM1554 944q0 -39 -14 -98l-14 -96v-33l8 -23l33 213l-2 37h-11zM819 926h-10l10 -29v29zM774 852q-10 -6 -10 -29q0 -12 10 -14l8 27q2 10 -8 16zM684 797l-182 -348q55 68 103 153.5t91 188.5zM205 760l-8 31l8 -54v23zM1595 664l4 57l-8 -64zM1008 717v-44.5 t9 -70.5t21 -80zM692 686q-53 -100 -115.5 -180t-142.5 -146l45 66l-59 -66q-31 -35 -31 -65q0 -14 12 -39q72 76 146 172t137 201zM831 686q-18 -37 -18 -86l6 -82l8 -69l56 -203q25 -80 67 -140l-65 164q-33 92 -33 156l61 -156q29 -72 80 -139l8 4l-114 258 q-56 135 -56 293zM918 653h-13v-80q0 -23 6.5 -38t18.5 -29zM219 600l-8 8l8 -24v16zM774 600l-8 -80q0 -39 4 -69.5t21.5 -85t60.5 -132.5q-27 90 -43 180.5t-16 166.5zM1354 420l30 112l-141 -268zM1241 444l6 33zM1468 422q-37 -51 -122 -137l-99 -105l142 125 q54 54 79 117zM197 154v49h-9zM979 100q-6 -29 29 -28v12q-15 4 -29 16z" />
<glyph unicode="x" horiz-adv-x="1058" d="M367 1069l59 -18l160 -334l223 260l6 -19q10 8 23.5 35t31.5 33l9 -31l53 68l14 -10l-26 -49q2 -4 4 -9.5t10 -9.5l49 23l8 -25q-2 -6 -3 -14t-7 -21l-12 -37q-20 -29 -59.5 -73.5t-100.5 -114.5l-141 -162l16 -18l98 106q4 -20 -46 -65t-50 -68t31 -47l96 -119 q37 -41 94 -71l8 -19l-6 -22q-6 -14 -2 -25l-10 -2q-57 35 -127 111l-125 143l-8 -19q2 -8 3 -13t13.5 -19.5t16.5 -32.5l184 -203q-29 18 -40 25.5t-36 27.5l-84 78l-4 -4q20 -16 68 -82q47 -59 90 -84v-14q-74 18 -129 77.5t-93 103.5t-63 75v-23l72 -96q53 -74 104 -108 q-8 12 -37 2l-32 -13l10 -18h-23l-159 190l-152 -122q4 8 47 43.5t35 68.5l-139 -141q-53 -53 -115 -72q-12 -18 -35 -12l180 178q53 53 109 127l-16 16l-164 -172q-115 -123 -207 -174l14 45l316 355q4 29 -37 92l-107 172l-88 158q-20 47 -45 127q8 10 12 14q10 6 23 -4 q12 -27 21 -33q6 29 32 43q16 4 23 -4l12 -25l25 13l61 -162q27 -61 53 -92q6 57 -27.5 136t-43 104.5t-15.5 45.5q29 -12 47.5 -70.5t40.5 -76.5l2 12v10l-8 39l-8 41l88 -211q35 -82 92 -145q-6 37 -18 73t-35 81l-78 165zM848 702l-23 -16l45 66zM786 98l11 -6v-10h-11 v16zM195 844l-17 33zM924 971l-131 -209q18 18 47.5 53t56.5 70t27 86zM494 485q-4 -10 -5 -14l11 -8q0 16 -6 22zM313 217l4 -4l35 49l-6 4zM668 193l16 -19q4 10 -6 12zM852 950l-27 -16q-14 -33 -38.5 -75t-57.5 -87l-94 -137h10q76 84 129 159.5t78 155.5z" />
<glyph unicode="y" horiz-adv-x="1329" d="M1268 1040l-90 -366q10 2 12 6q6 8 0 27h14l-65 -326q-25 -135 -53.5 -230.5t-73.5 -173.5l55 261q-43 -111 -80 -197t-72.5 -161t-142.5 -181l6 -10l8 -8q53 39 127 149l80 117q-20 -68 -43.5 -108t-39 -61.5t-48.5 -64.5l8 -18q0 -23 -30 -27l-21 -6l-20 -2h-27 q-23 0 -31 -4l-20 -25q-31 4 -51 -4l-45 -33l30 -8l56 13l47 10l28 -6l-26 -35l-176 -19l-178 -8q-129 0 -217.5 13.5t-184.5 50.5q-4 14 2 34.5t35 28.5l178 -41q-8 20 -65.5 31.5t-77.5 36.5l-17 12q-4 4 -4 19q41 0 129 -27q29 -6 68 -16.5t59 -10.5l80 -2q12 0 39 -2 t41 -2h31q18 0 35 4q12 0 20 2t37 13q-12 25 -41 26l-27 -4l-28 -4q-23 0 -37 23q-12 -16 -51 -17l-56 6l-80 15q-27 4 -43 7t-59 15q-45 8 -63 51h98l-23 13q8 6 6 16l-24 25q47 -12 102.5 -23.5t145.5 -26t192 -14.5q31 12 50.5 86t78.5 68q0 10 -12 20l-25 10q0 23 1 33 t11.5 51t10.5 68q-37 0 -83 -35t-64.5 -48t-38.5 -23l-68 -23q-43 -12 -88 -12q-76 0 -139 41v24q0 27 -6.5 41.5t-28.5 16.5q-29 0 -39 18l22 31q-31 4 -40 29.5t-11 41t-2 48.5v34l2 35q16 180 39 319.5t68 366.5l14 13l8 -13l-22 -98l-6 -82l2 -39q18 18 30.5 98t69.5 93 q-41 -123 -55.5 -226.5t-20.5 -179.5t-6 -141l82 379q0 -72 -36 -243t-36 -226q0 -43 2 -63.5t15.5 -65.5t56.5 -101l-18 -28q-31 25 -45 75l-21 103l-6 -45q0 -51 23.5 -101.5t64.5 -85.5l-6 23q0 12 16 18l29 6l29 -6l36 -10l37 -2l-94 68q-35 29 -57 67q-6 43 -10.5 85 t-4.5 91q0 166 26 284t40 189.5t39 163.5h12q-6 -12 14 -18l15 37q18 0 18 -17q0 -10 1 -14t3 -4l-55 -275q-27 -150 -27 -268h9l49 311q18 6 18 25l-2 25q0 12 8 18q10 16 22.5 97t45.5 102l-98 -625l6 -111q6 -49 24 -104q31 -43 68 -43q23 0 37 20q156 131 204 272.5 t91 339t61 222.5l-2 -31q0 -25 -4 -39q0 -16 8 -30q14 12 26.5 57t39.5 47l8 -24q0 -16 -10 -39l-11 -37q0 -18 21 -33q10 10 23.5 65.5t35.5 63.5q0 -53 -43 -180l-43 -144l-8 35q-31 -57 -57 -125q-20 -68 -21 -129q35 37 60 103l-129 -551l34 155l39 189l-6 8 q-45 -66 -81 -217.5t-52 -196.5q-12 6 -16 11l-13 8l-16 -13q31 -14 35 -49l-12 -51l-11 -47l4 -18l82 165l-12 -49q70 139 119 340l94 412q51 219 102 348l25 -49l14 35q8 31 33 39l-61 -232l-60 -286l19 -13l71 248l76 289zM184 1055l11 -15q0 -111 -45.5 -409.5 t-45.5 -409.5q-25 66 -24 137q0 35 6 78t10 72l31 229q16 119 57 318zM356 969v-49v49zM104 178q12 2 21 -20l8 -29v-18zM831 0v-10l-4 18zM827 401h-14l12 -18zM1047 385v-27l4 11zM803 291l10 41v37l-20 -31l-9 -25q1 -10 19 -22zM1079 250l13 57h-9zM1030 301l-2 -29 l10 9v14zM745 262l-81 -104h16l37 35q31 27 35 51zM784 213q-20 -14 -32 -45l-9 -62v-24q0 25 23.5 64.5t17.5 66.5zM1075 487l4 25zM401 463l-20 -78q4 -31 7 -51.5t18.5 -77.5t70.5 -88v10q-80 104 -80 240zM877 -72l4 -24l24 18q-18 8 -28 6zM248 -207l-12 19l-7 -27 q137 -33 256 -33l97 6q8 6 22 -2q12 -12 21 2l-2 23l-105 -8q-31 0 -61.5 2t-61.5 8q-59 6 -137 24zM563 -373l-31 4z" />
<glyph unicode="z" horiz-adv-x="1159" d="M600 1075l180 -33q182 -31 267 -71l8 -25q0 -16 -15 -47l-12 -37q0 -10 12 -26l23 24l-4 -49q-195 -244 -473 -401l-35 -33q49 -61 106 -80l142 -41q82 -18 94 -35.5t27 -13.5v20h22q16 -6 23 -20q-16 -18 -47 -19l-64 7l-18 -2q4 -10 36 -17q31 -2 39 -14l-34 -4 q-47 0 -127 47q-74 47 -105 57q-20 0 -27 -6q98 -96 224 -131q-6 -16 13 -28.5t17 -30.5l-30 -7q-27 0 -64 19.5t-64.5 29t-49.5 9.5l-203 104q-78 41 -158 60v-13l-45 31q-18 12 -37 12l-24 -6l-13 -18l-10 6l-10 -6l221 -105q115 -51 219 -114q-8 -10 -8 -23q4 -6 14 -10 l29 12q20 0 60 -26.5t71 -20.5l14 -10q2 -10 -2 -15l-45 -4q-39 0 -72.5 10.5t-58.5 38.5q-35 0 -73.5 18.5t-59.5 53.5q-10 6 -33 10l-32 -2v-16l-240 113q-27 -10 -51 10q25 -6 47 14q-8 14 -29 17q-12 -2 -25.5 -7.5t-35 -13.5t-45.5 -4q-12 14 0 29l26 26q-12 12 0 25 q6 6 23 6q25 0 33 14l-19 23q6 25 35 37l57 24l31 -6l33 -6q18 0 24 14l-18 25h63q-6 18 13 18q33 0 39 9l190 149q96 76 158 164l-49 27l-256 32q-102 12 -195 13q-27 16 -10 32q18 0 35.5 20.5t29.5 22.5l25 -12l-33 -16q12 -12 35 -15l35 2l18 -2l6 11l-28 12l26 2h23 q47 0 150.5 -12.5t156.5 -12.5l-70 -4l220 -53q14 6 18 10l12 15l-26 24q-66 14 -133.5 25.5t-191.5 26t-267 14.5q0 12 14 28l31 31q154 0 317.5 -19.5t339.5 -50.5l11 11l-41 28q-41 8 -88.5 17.5t-96.5 15.5l-405 39q33 27 84 27l61 -6l64 -7l34 4q-16 12 -55 13h-29 l-43 2q-16 4 -30 16q43 12 94 12q43 0 90 -12zM358 217q45 -14 217.5 -108.5t278.5 -94.5q-2 10 -6 13l-8 12q-104 12 -238 67zM455 66l6 2l59 -27zM1022 815l6 -4l12 23zM934 827l-29 -43h10l17 25q2 4 2 10v8zM985 766v12l-18 -22zM748 764q-63 -117 -177 -209 q-8 -18 -51 -51l-41 -35q104 76 176 137q57 53 85 94t26 54q-4 6 -18 10zM940 731l-106 -90q-76 -61 -97 -92q55 31 101 76zM678 520l-111 -90q-4 -6 -27.5 -14t-25.5 -19l102 58q35 20 70 61zM465 461h-10l-21 -19q-8 -6 -6 -14zM555 301l18 -18q14 -12 27 -2 q-29 16 -45 20zM698 1024l-26 8zM487 109q0 -14 10.5 -25.5t24.5 -5.5q-8 12 -16 16zM903 995l-160 17l218 -47z" />
<glyph unicode="&#xa1;" horiz-adv-x="638" d="M526 -393q0 43 -7 65.5t-14 40t-24 49.5l-6 -49l-8 -37l6 -26l-6 -21q-6 -12 -21 -14q-43 168 -86 381l-71 412l-15 -15l117 -760l-127 654l-8 135l-8 135v42t4 35.5t9 33t13 37.5l5 -5q6 -72 11 -120t23 -164l17 -142q10 -111 35 -157l8 8q-6 55 -10.5 106.5t-12.5 92.5 l-6 137q0 115 27 213l-2 -66l-2 -71q0 -61 4 -78l20 -49l4 208h8l17 -372l24 -33q0 35 -2 85t-8 116l-8 149v76l8 49l17 37q6 10 18 14q-8 -47 -14 -108.5t-6 -114.5q0 -143 16 -242l59 -315q41 -207 49 -295q-6 -37 -13 -50t-34 -7zM330 -371l-8 43q-4 12 -25 13 q-6 -4 -10 -15l2 -20h-15l-28 143q-6 45 -31 74q-4 -37 8 -94l15 -84l-2 -25l-23 35l-12 47l-56 393q-23 154 -35 297.5t-12 255.5q0 35 6.5 57.5t28.5 24.5l2 -24v-25q0 -25 6 -37q-6 -45 -10 -94t-4 -100q0 -154 19.5 -271t68.5 -336q0 86 -29.5 307.5t-29.5 286.5v49.5 t6 66.5t12 70.5t19 53.5l22 -16q0 -238 39 -523zM326 479l-4 -8l4 18v-10zM326 557l-4 -43l4 51v-8zM326 623l-4 24l8 35q2 10 18 10l-8 -35q0 -22 -14 -34zM264 795q0 23 43 43t45 47l-90 -41q-6 18 -18 18q-18 -6 -27 -10l-24 -8q-14 4 -19 8v16l90 43q35 18 58 54 q-27 0 -75 -28t-73 -34v23h-63l26 55q10 25 37 47q0 -12 -4 -16l18 -13l19 9l100 79q82 66 137 84l-69 -63q-61 -49 -62 -84l60 31q20 2 52 38.5t50 36.5q14 0 27 -10q0 -14 -2 -18l-6 -12h41q-14 -10 -15 -35q0 -20 -6 -29.5t-14 -13.5q16 -6 39.5 18.5t35.5 24.5 q0 -43 -12 -66zM63 1001l-4 15l19 8l28 -12zM135 1032q-6 4 -9 9.5t-3 7.5q8 14 18.5 22t8.5 19q-12 0 -43 -19.5t-41 -19.5q-14 0 -25 16q78 61 168 78l63 67q25 27 54 33l-35 -49q18 -6 41.5 18.5t40.5 24.5q25 -6 22 -29q-25 -33 -141 -104zM264 1171l-90 -69l6 -4l90 69 z" />
<glyph unicode="&#xa2;" horiz-adv-x="786" d="M483 1214l-6 -61q0 -37 21 -37l32 12q68 -8 117 -49q2 -6 9.5 -21.5t25.5 -42t14 -52.5q-18 -4 -24 16l-13 27q-16 35 -42.5 57t-61.5 29l-6 -13l43 -28q23 -10 35 -33l14 -43l16 -49q6 -6 0 -35l-12 12q-6 10 -18 10l-13 -41q-6 68 -24 111q-14 41 -64 72l58 -37 q0 25 -35 45t-41 35q-20 8 -45 -6q0 -12 15.5 -18.5t17.5 -8.5t26.5 -19.5t46 -69.5t21.5 -116q-25 2 -32 45t-21 58l-29 28q-10 12 -33 15q23 -39 37 -82t20 -88q-4 -20 -8 -25q-8 2 -17 8t-9 27q0 18 -9 26q-4 31 -23.5 55.5t-74.5 71.5q-63 -41 -102 -120 q-35 -80 -35 -166l2 -43q0 -39 20 -68q25 -27 60 -49l65 -8q61 0 146 37l153 75q0 -61 -88 -99t-97 -51t-34.5 -20.5t-34.5 -17.5q123 35 250 96q-20 -20 -20 -53q-86 -57 -162 -92t-166 -58l-37 -153q-12 -2 -14 14l-2 6l-4 4q-12 4 -12 -10q0 -4 -2.5 -7t-4.5 -5l-2 25 q0 29 9 59l12 49l-19 12l-34 -129l-9 33l7 49l6 43q-23 6 -57.5 16.5t-79 33t-70.5 79.5l-12 70l-5 76q0 147 68 252l-12 -35v-27q31 88 97.5 159t156.5 116q-43 -27 -74 -62l-96 -123l6 -10l98 113q35 35 111 63l16 70q6 47 14 65q8 -6 11 -28l-8 -41l-9 -41v-11l6 -8h13 l28 148l29 6q10 -1 10 -19zM590 1098v-13h20q-12 11 -20 13zM317 1024q-6 -12 -53 -53t-59 -74l33 41q12 16 30 12h11q4 18 20 37t21.5 25t9.5 12h-13zM416 1018l10 -12zM164 854q-4 -6 -20.5 -36t-35 -81t-18.5 -98q0 -66 37 -121l41 -39q16 -12 57 -28q-16 8 -36.5 33.5 t-26.5 34.5t-18.5 31.5t-16.5 46.5t-4 67q0 61 19.5 120.5t58.5 106.5q-10 0 -21 -12zM170 664q0 -92 53 -164q43 -25 80 -25l31 6q-61 6 -95 53.5t-69 129.5zM90 530q4 -29 24.5 -53t51.5 -39l-27 31l-20 31q-17 26 -29 30zM608 487l31 25l-49 -25h18zM158 408v-9l20 -4z M199 393l51 -6zM311 350q-16 -23 -16 -43q0 -8 4 -24l10 36q6 17 2 31z" />
<glyph unicode="&#xa3;" horiz-adv-x="1409" d="M1077 1626q72 -18 104.5 -64t100.5 -176q72 -168 72 -364q0 -117 -31 -221q-25 12 -34 32.5t-13 55.5l4 65l6 50q0 29 -8 47l-8 -31l-2 -39q0 -51 -11 -70q0 266 -56 401.5t-154 209.5l-5 -4q80 -86 118 -207t38 -244q0 -102 -24 -205q-2 4 -6.5 7t-6.5 5l-22 -18 q-8 2 -9 6l-26 -26l22 170q14 -6 17 -29l-6 -53q0 -23 14 -37q29 57 29 133q0 20 -2 45t-9 57l-18 119q-10 59 -47 92l-6 -35q0 -25 18.5 -73.5t18.5 -73.5q0 -23 -9 -41l-51 184q-25 94 -67 162q-35 -23 -88.5 -119t-61.5 -104l-100 -221q-39 -90 -51 -181l34 -4l68 -2h76 q39 0 57 -4l-12 -12l-99 6l-65 6l-39 -2q-18 0 -47 -14l-12 -2l-9 -6q12 -14 31 -25l43 -6l49 2l37 -6q25 12 68 12h31l28 -4q12 -37 12 -61q0 -37 -21.5 -51.5t-55.5 -14.5l-78 8l-80 8q-41 0 -64 -16q-23 -47 -34 -119.5t-11 -146.5q43 6 97.5 13t101.5 7l221 6 q-33 -10 -86 -19t-119 -9q-74 0 -120.5 -7.5t-94.5 -25.5q27 -10 70 -10l57 2q37 0 58 4l219 2l221 2q0 -12 -24.5 -16t-36.5 -15l79 -14v-12l-200 -6q-45 0 -115 -7.5t-184 -21.5l14 -12l133 2h49h54q23 4 32 4q111 0 191 -15v-10l-621 -39l-14 -14l18 -21q78 6 137.5 10.5 t129.5 4.5l266 16l4 -4l-70 -18q4 -14 41 -15q51 0 64 -6l-12 -53q-12 0 -143.5 -9.5t-205.5 -9.5l-321 -16q-6 -25 -23 -27l-41 15q-10 0 -18 -15.5t-25 -11.5q-8 4 -10 17l-219 -35q0 12 22 26q-4 6 -24 11l-35 -7l-27 -4q-27 0 -26 39l162 53l-7 35l-71 -6l-90 -20 q0 12 18.5 18t20.5 17l-21 16l39 33l-20 8l94 51h-94q6 23 41 35l79 14q18 49 31 125l27 146l-25 2l-37 -2q-25 0 -37 -5h-18l-10 5l30 45q-16 8 -14 34l23 15q20 8 14 28l33 7q14 6 28 20q-6 25 -38 25l-27 -4l139 34q45 106 92 213t85 190t132.5 202.5t237.5 211.5l51 19 l-8 -27l25 -4q20 0 59 17zM1061 403q117 0 196 -14l-43 -2l-79 4l-52 6l-28 -2zM846 1540q-57 -39 -107.5 -96.5t-79.5 -118.5l15 14l18 17q4 -12 -14.5 -38t-18.5 -38l156 180q-12 18 12.5 42t18.5 38zM930 1522q-100 -88 -171 -209t-124 -262l49 96q78 139 114 193.5 t105 97.5q-100 -119 -167.5 -275.5t-112.5 -335.5h10q82 229 159.5 388t188.5 294l-43 -32l2 32q-6 13 -10 13zM580 1174l-97 -193q-47 -100 -61 -176l74 184zM614 1116l-77 -160q-35 -80 -45 -135q8 12 24 48t35 77zM610 801l4 -19l9 19h-13zM326 743v11l-13 -19zM676 670 l31 -2q41 0 84 14l-46 4l-32 6q-29 1 -37 -22zM807 690l-8 -12q12 -6 41 -10l39 6l32 8zM584 666h18l4 8q0 8 -5 10t-13 -2zM438 666v-23q12 0 14.5 2t4.5 4q6 6 -2 13zM575 625q-12 -6 -25 -26.5t-13 -53.5l6 -62l6 -61q0 -25 -4 -33l14 129q6 35 25 82zM418 600 q-25 -45 -43.5 -102.5t-18.5 -114.5l4 -45l11 4l32 150q6 33 10.5 58t4.5 50zM518 465l-16 -33l-8 -41q0 -18 8 -29q10 8 16 31l4 27v24zM1061 1561v-19q106 -55 162 -192q47 -172 73 -252h13l2 67q0 31 -4 45q0 23 -35 93q-25 59 -34 77.5t-48 90.5t-129 90zM1147 315v9 h-21v-9h21zM348 258v-27l4 7q0 6 -1 11t-3 9zM688 250l12 -12l7 12h-19zM741 250l-14 6zM475 238v-39l4 4q2 2 4 14q-4 17 -8 21zM522 172l-12 -22h18l2 8zM326 145l-4 -30l22 4q0 22 -18 26zM221 23h-18v-9z" />
<glyph unicode="&#xa7;" horiz-adv-x="1095" d="M758 1647q80 0 152.5 -36t117.5 -95v-13q-14 0 -35.5 22.5t-38.5 26.5q6 -35 16.5 -52t33.5 -40l-3 -43l-18 19l4 -43q-18 0 -38.5 28.5t-39.5 18.5l21 -25q16 -14 10 -26q-12 0 -25.5 19t-31.5 19q-25 29 -46.5 43.5t-48.5 14.5l70 -55q63 -51 64 -84l-7 -25l-10 8l-4 4 v-33q-31 63 -82 95t-153 78l-56 -5l-57 -2q-37 -12 -47 -22t-14 -33q0 -80 88 -135l116 -68l-80 56q-68 39 -81 84q43 -57 206.5 -147.5t182.5 -151.5l18 -64v-10l-4 -39l-4 -27l4 -18l20 51q12 -12 13 -41l-2 -43q0 -123 -93.5 -211t-232.5 -141l-98 -10q-100 0 -196.5 43 t-164.5 123q0 14 -9 33.5t-9 35.5q10 -6 20 10l15 19q-35 35 -35 80q0 12 2 18l16 25l15 -43l18 -64q10 -33 63.5 -85t110.5 -75l6 2q-43 18 -69 46l-113 155v23h8q31 -82 102.5 -144.5t139.5 -85.5q37 -8 60.5 -12t45.5 -4q90 0 156 47q-29 -6 -61.5 -10t-69.5 -4 q-84 0 -154.5 24.5t-124.5 81.5l-55 68q-18 31 -12 59q0 18 -10 41l-11 35q0 10 15 23q2 -10 7 -30t19 -46l41 -68q0 35 -20 76l33 -35l4 4l24 -24q0 18 -10 45l-10 43l67 -123q31 -47 84.5 -79t112.5 -32q25 0 49.5 4t63.5 17l26 22q14 14 15 31q0 10 -2 16q-2 0 -3 2 l-36 -43l20 54l6 55q0 29 -24.5 78t-166 120.5t-171.5 96.5q18 -25 153.5 -104.5t160 -125t24.5 -86.5l-2 -20q-14 127 -213 221t-217 232q18 6 18 18q0 6 -6 16q-16 16 -17 43q0 27 17 68l20 53l13 21l12 16l-12 -43q-12 -31 -13 -47l6 -25l62 99l-12 14q6 18 16 18l23 -14 q10 -6 18 -6t14 6l-16 17l31 22q25 12 30 33q-10 6 -29.5 -8.5t-29.5 -14.5q47 37 119 62t215 37zM952 1028q23 0 19 -31l-17 -6zM635 1159q80 0 152.5 -36t117.5 -95v-14q-12 0 -37 24q-18 25 -34 25q8 -47 49 -90l-2 -43l-19 18l2 -43q-12 0 -36.5 26.5t-39.5 18.5l21 -20 q18 -14 8 -31q-2 0 -8 4t-18.5 19.5t-30.5 17.5q-20 23 -43 38t-51 19l94 -73q41 -31 41 -68l-6 -22l-13 6l-4 4v-33q-27 59 -84 98t-149 76l-35 -4l-27 -2h-53l-41 -18q-18 -10 -18 -37q0 -82 59 -121l145 -84l-79 53q-66 43 -82 86q43 -59 204.5 -146t184.5 -157l18 -70 l-6 -34l-4 -29l4 -21l23 54q12 -10 12 -37l-4 -45q0 -123 -92 -214t-232 -141l-98 -10q-221 0 -363 166q0 14 -9 34.5t-7 35.5q12 -6 21 8l12 18q-33 39 -33 99l16 24l11 -20l14 -60q18 -59 68.5 -110t113.5 -74l6 2q-45 18 -67.5 43t-114.5 158v20h10q70 -174 191 -211 q125 -33 158 -32q94 0 153 45q-61 -12 -127 -13q-84 0 -155.5 24.5t-124.5 80.5l-50 61q-16 23 -20 49l2 19q0 18 -10 41l-10 33q0 12 14 24q6 -37 20 -65l47 -78l-6 35l-16 41l33 -33l28 -23q4 16 -8 45l-10 45l49 -90q47 -86 96 -112q53 -33 115 -33q37 0 51 4l64 16 l28 19q14 14 15 32q0 12 -2 14.5t-4 4.5l-37 -43l20 55l6 53q0 29 -25.5 81.5t-172 125t-164.5 88.5q16 -16 152.5 -98t172.5 -149q10 -29 15 -64l-4 -25q-12 119 -214 231t-214 224q10 8 12 12q6 12 -6 25.5t-12 40.5q0 23 16 63l18 58l29 37l-12 -43q-12 -31 -13 -49 l7 -25l61 100l-14 13q6 18 18 18q14 -6 21 -10l20 -8q10 4 12 8l-16 14l31 23q25 12 30 30q-8 6 -27.5 -7t-29.5 -13q61 47 141 66.5t191 31.5zM831 539q23 0 17 -31l-14 -4zM840 1548q84 -51 137 -108q-41 59 -71.5 78.5t-65.5 29.5zM604 1528l19 -8h24v8l-29 6zM678 1522 q12 -12 41 -15l20 2l-28 9q-13 4 -33 4zM424 1456q-10 -6 -21 -24l-14 -33l27 37q4 4 5 9t3 11zM381 1358l4 16zM406 1366l10 -57zM315 1354l-6 -15v-28q0 -41 11.5 -74t50.5 -57q-33 33 -42.5 64.5t-11.5 50t-2 59.5zM385 1325l-4 -16q31 -92 214 -204t208 -151l-21 39 q-10 18 -32 41l-168 99q-146 83 -197 192zM842 1042q41 -57 41 -124l-2 -27l6 47q0 65 -45 104zM647 1604q78 0 144.5 -12.5t130.5 -43.5q-88 66 -199 66q-39 0 -76 -10zM807 905l-2 -20q0 -4 1 -7.5t3 -5.5l4 19q0 6 -2 9t-4 5zM934 872l-33 -102l17 29zM647 678l-4 -10h43 l47 18q88 61 113.5 86t25.5 82q-18 -68 -75.5 -106.5t-149.5 -69.5zM891 760l-55 -76q-23 -33 -62 -53l-4 6l25 49l14 37l-55 -53l-6 -21l-7 -20q8 -10 13 -13q-47 -27 -115 -53q-66 -20 -123 -20l-37 -4q-59 0 -119 30q-51 31 -135 93q57 -70 138 -102t182 -32 q111 0 210 65t136 167zM516 1583l4 -4l21 12l-4 4zM395 1096l25 8zM483 1038q8 -8 43 -8v8l-22 4q-13 4 -21 -4zM555 1034q10 -10 43 -14l20 2l-34 10zM303 969q-12 -6 -24 -31l-13 -27l21 25q16 19 16 33zM285 879l8 -60zM193 866l-7 -16v-25q0 -41 12.5 -72.5t49.5 -60.5 q-33 37 -45 72q-10 41 -10 102zM264 838l-4 -19q31 -92 214 -203.5t208 -150.5l-16 35q-4 12 -37 47q-129 70 -224.5 132.5t-140.5 158.5zM672 610l6 -4l-25 15zM721 555q39 -61 39 -129l-2 -25l6 50q0 67 -43 104zM750 1577l8 -6zM684 418l-2 -21q0 -4 1 -8t3 -6q6 10 6 23 q0 4 -3 7zM813 383l-35 -98q14 14 21 34zM526 188l-4 -10l41 2l47 19q74 49 107 80.5t33 87.5q-18 -66 -78 -107t-146 -72zM770 270l-45 -61q-35 -47 -72 -66l-6 7l27 49l12 37l-53 -54l-6 -20l-6 -21q8 -12 12 -12q-61 -33 -117 -55q-55 -18 -121 -19l-37 -4 q-59 0 -116.5 31t-137.5 92q59 -74 138.5 -104.5t179.5 -30.5q113 0 210 64.5t138 166.5zM315 113l-32 16zM260 887l4 -19zM717 1061q47 -6 74 -33l65 -78q-25 27 -63 58zM795 1098l-21 12zM526 1116q37 12 78 12q47 0 99.5 -18t95.5 -49q-49 25 -104.5 36t-92.5 15t-76 4z M403 612l35 -8z" />
<glyph unicode="&#xa8;" horiz-adv-x="884" d="M178 1589q23 -8 49.5 -24.5t67.5 -46.5l88 -62q4 -8 8 -43q-6 2 -11 4t-15.5 14.5t-26.5 10.5q12 -6 14 -27q0 -18 10 -24h-26l4 -13l2 -10l-20 -8q-10 0 -35 24q-16 23 -33 29l-43 21q0 -18 29 -45l61 -56q-33 10 -92 58l-78 59l-16 -8l2 -10l-23 24l-20 45h43v15 q12 0 47 -23q35 -18 53 -18q-12 16 -41 34l-59 31v10q8 8 22 4l25 -10q10 8 12 15l62 -29q0 12 -28 26.5t-32 32.5zM643 1573q18 0 41 -14l33 -29l8 14l63 -59q37 -37 37 -70l-6 -24q-2 -2 -4 -2h-6l-6 8l-12 -6l-115 104l-10 -8l116 -127q0 -12 -30 -25q-14 8 -49 48 t-58 49l-2 -19q-6 18 -50 46t-56 57q6 6 24 2l29 -2q20 0 14 28q6 6 21 -2q16 -8 24 6zM530 1487l181 -160h-29q-41 45 -66.5 64.5t-58.5 29.5v-12l115 -92l-2 -14l-17 -15l-67 55q-53 47 -90 66l-13 23q10 12 23 12l20 -6l23 -17q6 12 -12 27l-21 16zM39 1450l31 -8 q-16 -12 -33 -2zM90 1427l88 -55q68 -37 90 -65l-6 -15l-8 -6q-12 0 -27.5 15.5t-29.5 13.5l24 -33q-16 0 -41 25l-39 45q-37 0 -63 16l-53 37q4 6 18 10l27 -12q18 -12 30 -12l-12 16q-12 8 2 20zM178 1333l-59 49z" />
<glyph unicode="&#xa9;" horiz-adv-x="1146" d="M563 1311q68 18 135 18q104 0 188.5 -42t147.5 -130q57 -90 58 -184v-25l6 -61q0 -20 -1 -45t-16 -66q-12 -57 -41 -108q8 -12 0 -35l-18 -35l-129 -158q-86 -92 -170 -106q98 57 183 144t136 188l-10 2l35 137q6 35 10 65.5t4 65.5q0 92 -28 162l-31 35v-25l-10 -4 q4 -10 8 -10h18q25 -90 25 -179q0 -141 -60.5 -267t-179.5 -222q-86 -57 -125 -73.5t-72.5 -26t-52.5 -13.5q-4 10 -20 4l-14 -6l-109 13l23 -21q-104 0 -188.5 82t-115 148.5t-36.5 105.5l-4 61l4 105l6 78l37 118q18 49 55 80l-53 -131q-27 -84 -27 -147q0 -145 55.5 -264 t173.5 -177q-100 78 -157 197q-51 121 -51 254l6 94q25 133 146.5 253t258.5 151zM782 1294h-41l-39 2q-35 0 -57 -8l49 4q147 0 269 -114q-20 49 -64 69zM446 1245q6 -16 -18 -28q-25 -6 -25 -25l152 96l-59 -14q-32 -6 -50 -29zM553 1239q-117 0 -197 -143l-65 -138 q-18 -74 -19 -149q0 -102 34 -185t112 -139q10 -12 24 -12q12 0 17 12l94 -22l109 -14q82 -10 135 52t101 146t48 217q0 66 -19.5 134.5t-58.5 121.5q-23 20 -32 24.5t-23 4.5l-31 20q-12 10 -12 25q-16 -12 -38.5 11.5t-39.5 27.5l-6 -14q-25 0 -65.5 12t-67.5 8zM883 1159 q-6 -25 21.5 -62.5t29.5 -49.5l-6 -19q8 -10 12 -10q20 -61 21 -125q0 -57 -11 -100q-6 -45 -24 -95q23 39 35 97.5t12 126.5l2 24q0 39 -33 117l-31 86q-4 -4 -16 -2zM346 1157q-139 -127 -139 -315q0 -78 26 -144q-12 55 -12 109q0 94 32 179t93 171zM252 901l-10 -86 q0 -66 15 -116t48 -111q-20 43 -34.5 101.5t-18.5 87t-4 67.5l2 30zM969 709l-117 -154l-25 -16q-18 -6 -12 -23q51 20 86 69.5t68 123.5zM897 664l14 12zM274 569q18 -61 68.5 -101t120.5 -52l-31 16q-25 16 -31 31q-12 2 -18 0q-27 16 -57 45zM356 528l-14 17zM395 489 l31 -20q-8 10 -12 12zM623 401q6 -6 18 -2l21 2l43 13q27 10 36 35zM496 410q0 -16 18 -17q16 0 33 8zM428 328l-18 10v-10h18zM727 1122q20 -8 28.5 -12t25 -15.5t28.5 -41.5l-6 -19q0 -12 -10 -12v-10l-5 -6l-8 4l4 8l-43 35l-32 18l34 -35q31 -29 31 -51l-20 -4l-21 14 l4 -16l6 -12l-36 30l-39 33l-39 12l-49 5q-45 -6 -61.5 -35t-41.5 -105q0 -82 9.5 -125t46 -71.5t90.5 -28.5q53 0 94 25q25 25 65 45q0 -16 -22 -45l4 -7l-6 -10l10 4l16 8l-2 -14l19 8v-28l-60 -56l-39 -20l-6 8l29 18l-43 -10l-25 -14l17 2q10 0 16 -10q-51 -20 -108 -21 q-80 0 -138 35q-31 23 -50 51.5t-25.5 48t-6.5 39.5l9 6q-12 47 -13 93q0 131 87 215t198 84q47 -1 84 -15zM506 952l-8 -28q0 12 8 28zM494 903v-24q0 -57 26 -109q-31 41 -31 96zM719 1112l72 -51l-39 33zM602 1073q55 0 96 -33l-49 31q-8 4 -26 4q-13 0 -21 -2zM516 1067 q-18 -10 -22 -25q16 11 22 25zM729 1020l6 4zM451 883l12 67q6 29 24 56q-16 -10 -28 -41zM616 1122l39 -2l35 2l-49 6zM389 942l2 8zM438 905l-8 -39q0 -106 88 -170q-80 96 -80 209zM446 1022q49 53 81 73.5t75 26.5q-70 -27 -124 -70.5t-62 -82.5l-13 -62l-4 -41 q0 59 6 93t41 63zM375 817q0 -33 6 -50l9 -25.5t22 -41.5l-21 66zM766 727l10 6zM373 733l16 -55q6 -18 31 -37l-27 39zM735 690q14 6 19 10zM532 692q2 -8 25 -14q-8 8 -14.5 10t-10.5 4zM420 668l-14 20zM733 678l15 6zM580 674h-13q4 -4 17 -4zM770 655l8 9zM627 641 q43 0 63 21l-39 -11q-18 -4 -24 -10zM442 649l-10 6zM426 637q12 -18 33 -31l80 -20q-33 0 -68 22zM502 637q35 -18 80 -19l26 3h-18q-8 4 -8 8l-27 -2q-26 0 -53 10zM475 629l-10 4l14 -10zM727 621l6 4zM520 610l-26 8zM594 584l18 2h17q18 0 26 8l-30 -4zM567 586h15h-15 z" />
<glyph unicode="&#xad;" horiz-adv-x="827" d="M68 989q29 10 77 21l97 8l94 -4l98 -8l-28 -2l-44 2l-45 2l-47 -7q-29 0 -43 -4l74 -12l92 -2h72l74 2l10 16q27 -25 115 -38q90 -10 122 -35q0 -12 -19 -28.5t-24 -27.5l13 -24l-4 -8l-76 14q-63 8 -88 37l-137 8l-93 2l-106 -2l-115 -8q-8 8 -45 8q-39 0 -24 37 q-12 0 -13 18q-6 10 6.5 17.5t6.5 17.5zM80 829l149 7l148 6q80 0 126 -7.5t115 -31.5q31 6 68 -17l47 -26v-19q-63 16 -142 29.5t-202 28t-295 14.5zM227 791q12 2 25.5 -13.5t40.5 -9.5l-14 18q98 0 188 -12t197 -37l-9 -18q2 -6 6.5 -11.5t22.5 -15.5t18 -24l-34 -6 q12 -10 24.5 -14.5t9.5 -20.5l-12 -17q-119 39 -258 52q-55 0 -173 5t-161 5q0 18 11 28l28 9l27 -2q20 0 33 -5q20 0 30 9q92 0 158 -9l264 -40q0 10 -28 22l-56 23q-31 6 -64.5 10t-54.5 6l-133 4l-98 -2h-98q-6 23 16.5 37t26.5 24q2 -8 18 -14l49 -4v23zM217 997h-57 l-54 -12z" />
<glyph unicode="&#xae;" horiz-adv-x="1075" d="M485 1298q68 18 136 19q104 0 190 -43t144.5 -128t58.5 -185v-25l6 -68q0 -37 -2 -54t-14 -50q-12 -53 -41 -109q8 -12 0 -34l-19 -35l-129 -158q-86 -92 -168 -106q98 61 181 145t139 186l-11 2l35 138q6 35 10.5 65.5t4.5 67.5q0 90 -29 159l-33 35v-24l-10 -4 q4 -10 8 -11h19q27 -94 26 -180q0 -143 -62.5 -269t-179.5 -218q-86 -55 -143 -81t-106 -32q-6 10 -19 4l-16 -6l-107 12l21 -20q-102 0 -186.5 82t-115 148.5t-36.5 105.5l-4 61l4 105l6 77l37 119q18 49 55 80q-53 -125 -67.5 -172t-14.5 -106q0 -145 55.5 -264 t176.5 -177q-104 80 -160 197q-51 121 -51 254l6 94q27 135 145.5 253.5t259.5 149.5zM707 1282h-41l-39 2q-35 0 -58 -8l49 4q152 0 267 -115q-20 47 -62 70zM371 1233q6 -16 -19 -29q-25 -6 -24 -24l84 51q41 23 65 45q-63 -12 -78 -21zM475 1227q-115 0 -194 -144 l-66 -137q-18 -74 -18 -151q0 -104 34.5 -186.5t110.5 -135.5q6 -12 23 -12q12 0 18 12l92 -22l109 -15q68 -6 117 39t109 145.5t60 231.5q0 66 -19.5 134.5t-57.5 121.5q-23 20 -32 24.5t-24 4.5l-30 16q-12 8 -15 29q-16 -12 -41 12q-18 23 -37 27l-6 -15l-63 13 q-47 12 -70 8zM805 1147q-6 -25 21.5 -60.5t29.5 -52.5l-4 -18q8 -8 12 -10q20 -61 21 -125q0 -57 -6.5 -91t-10.5 -50.5t-20 -53.5q25 43 37 98.5t12 124.5q6 51 -29 125q-29 72 -32 103h-15zM268 1145q-139 -127 -139 -318q0 -76 27 -141q-12 55 -13 107q0 92 31 177 t94 175zM174 889l-10 -86q0 -66 15.5 -116t47.5 -112q-55 117 -55 259zM891 696l-115 -153l-24 -17q-16 -6 -15 -22q53 20 89 70t65 122zM821 651l15 13l-5 4zM199 557q18 -63 68 -102t120 -52l-43 23q-14 10 -18 25q-12 2 -21 0q-31 14 -57 45zM279 516l-13 16zM319 477 l29 -20q-8 10 -12 12zM545 389q6 -4 20 -2l21 2q45 12 56 19.5t24 27.5zM418 397q0 -12 18 -16q18 0 33 8zM352 315l-20 11v-11h20zM657 1153q43 -23 61.5 -38t39 -48t20.5 -82l-14 -8l10 -14q8 0 10 2q6 -23 -6 -41l-14 -9q2 -12 -12 -32l-25 -25l16 33l-57 -49l-68 -43 q12 -33 46 -68l51 -53q0 14 -23 37l-28 30l47 -49q41 -41 69 -53l-18 -2q-6 -6 4 -23l8 -18l-26 16q8 -12 19 -17t11 -19l-18 6l-105 92q-35 35 -65 84l-8 -6q0 12 -15 28l-14 23q25 -66 75 -118t142 -126q-6 -8 -10 -8q-6 -8 -6 -12q-27 6 -58 35l-59 53l-35 39l-22 22 l6 -26l28 -35l58 -53l69 -54v-8q-51 12 -95 48t-80 77t-60 84l-45 82l-21 -125l-20 -125v37l-19 -49q-8 8 -14 8q-12 0 -14 -8l4 33l4 36l-33 -75q0 23 -4 26l-18 -14q-10 -6 -15 -19l-28 -6q-6 10 6 22.5t2 20.5l26 205q12 98 13 184h12l-2 17h-8l4 29q0 12 -8 20l-15 -2 l11 14q8 6 9 9.5t3 5.5q-6 6 -17 6v8l11 8l8 4l-16 6l14 9l4 12q-12 0 -16 -2l-17 -2q10 12 23.5 14t9.5 19h-18q55 31 108 30l25 -2l73 6l60 -4zM453 489l12 3zM348 1130q18 -6 41 11h-24q-11 -1 -17 -11zM438 1122q0 -4 11 -10l4 10q-4 8 -9 8zM739 1038l9 -49l-5 -24 q2 8 2 24q0 33 -19 52.5t-41.5 38t-57.5 44.5q37 0 62 -21.5t50 -64.5zM410 1122h-9l2 -12zM569 1122l76 -32q-33 32 -76 32zM391 1122l2 -12zM627 1079q-51 35 -101 35l-24 -2q66 0 133 -41zM410 1092l4 -5l8 3zM510 1073l8 -6l-18 -2q-14 0 -19 -4l-16 -156l-2 -55 q0 -27 14 -41l-6 29q6 2 10 0l11 -7l32 -69q18 -33 43 -55q-35 53 -69 131h8l4 -7l-2 35q14 -12 21.5 -27.5t13.5 -19.5l-11 29q-2 2 -2 4l2 4l13 6q2 6 6 8t6 4l23 -10q10 -4 18 8q23 12 39 36t16 59q0 23 -32 51l-31 29l35 -21q16 -6 30 -27q16 -16 17 -45q0 -23 -4 -32 l-13 -25l-18 -27q-6 -4 -9 -10t-3 -8l34 27q18 12 19 41l-2 28q0 20 -11.5 50t-52.5 52.5t-102 22.5zM401 1071v-10l9 8zM639 1069l49 -55q0 18 -20 33zM393 627q23 104 34 187t15 134t4 109q0 -72 -14 -170q-10 -106 -39 -260zM387 678q43 176 43 373zM408 1040l-7 9v-101z M356 930q4 4 2 35zM694 885l8 16l-14 -22zM334 752l-19 -123l-12 -84q16 35 25.5 82t9.5 108q0 68 4 103.5t12 60.5zM584 852l4 -6q8 4 11 7l5 5zM551 846l6 -10zM629 821l-15 -6zM522 713l-20 45zM569 725l-6 8zM383 653l2 9zM709 588l34 -25q-12 6 -18 13.5t-16 11.5z" />
<glyph unicode="&#xb4;" horiz-adv-x="745" d="M639 1626l18 -41q0 -170 -65.5 -314.5t-188.5 -275.5l-20 9q-12 0 -33.5 -26t-40.5 -26q16 18 23.5 68.5t36.5 73.5q0 -16 4 -25q16 0 39 37q18 37 41 37q0 31 36 84q41 51 41 88l-14 6l-16 -29l-15 -26l21 227q16 -6 18 -25l4 -30q0 -47 13 -58q8 23 14 51.5t6 69.5 q0 39 3 60.5t11 54.5l29 -6q19 0 35 16zM477 1511l29 56l10 -56h-24q-16 0 -21 -4l-14 -200l-115 -220q-74 -127 -176 -198l-4 4q12 37 58 114.5t61 116.5l43 -10q10 6 12 10l8 15q-10 23 -39 35q31 80 31 165q0 47 -12 103q31 6 30 39v28q0 12 8 21q18 -35 33 -90l23 -109 q8 20 13 46t5 61l10 98zM270 1468l19 -49q10 -27 10 -61v-23h-25l-8 54l-10 43q0 20 14 36zM295 1300q0 -39 -4 -61t-12 -49q-6 -37 -23 -47l8 74q6 65 31 83zM545 1247q-37 -23 -56 -57l-43 -111q31 31 57 73t42 95z" />
</font>
</defs>
</svg>
